{
classes = (
{
code = "uni0622 uni0623 uni0624 uni0625 uni0627 uni0629 uni062F uni0630 uni0671 uni0672 uni0673 uni0675 uni0677 uni0688 uni06C0 uni06D2 uni06D3 uniFEDF uni0627.short";
name = aalt;
},
{
code = "uniFE82 uniFE84 uniFE86 uniFE88 uniFE8E uniFE94 uniFEAA uniFEAC uniFB51 uni0672.fina uni0673.fina uni0675.fina glyph2248 uniFB89 uniFBA5 uniFBAF uniFBB1 uniFEDF.alt1 uniFE8E.short";
name = aalt2;
},
{
code = "uni0622 uni0623 uni0624 uni0625 uni0626 uni0627 uni0628 uni0629 uni062A uni062B uni062C uni062D uni062E uni062F uni0630 uni0631 uni0632 uni0633 uni0634 uni0635 uni0636 uni0637 uni0638 uni0639 uni063A uni0641 uni0642 uni0643 uni0644 uni0645 uni0646 uni0647 uni0648 uni0649 uni064A uni0671 uni0672 uni0673 uni0675 uni0676 uni0678 uni0679 uni067E uni0686 uni0688 uni0691 uni06A1 uni06A9 uni06AF uni06BA uni06BE uni06C0 uni06CC uni06D2 uni06D3 uni0627.short";
name = fina;
},
{
code = "uniFE82 uniFE84 uniFE86 uniFE88 uniFE8A uniFE8E uniFE90 uniFE94 uniFE96 uniFE9A uniFE9E uniFEA2 uniFEA6 uniFEAA uniFEAC uniFEAE uniFEB0 uniFEB2 uniFEB6 uniFEBA uniFEBE uniFEC2 uniFEC6 uniFECA uniFECE uniFED2 uniFED6 uniFEDA uniFEDE uniFEE2 uniFEE6 uniFEEA uniFEEE uniFEF0 uniFEF2 uniFB51 uni0672.fina uni0673.fina uni0675.fina uni0676.fina uni0678.fina uniFB67 uniFB57 uniFB7B uniFB89 uniFB8D uni06A1.fina uniFB8F uniFB93 uniFB9F uniFBAB uniFBA5 uniFBFD uniFBAF uniFBB1 uniFE8E.short";
name = fina2;
},
{
code = "uniFE8B uniFE91 uniFE97 uniFE9B uniFE9F uniFEA3 uniFEA7 uniFEB3 uniFEB7 uniFEBB uniFEBF uniFEC3 uniFEC7 uniFECB uniFECF uniFED3 uniFED7 uniFEDB uniFEDF uniFEE3 uniFEE7 uniFEEB uniFBE8 uniFBFE uniFE8B uniFB68 uniFB58 uniFB7C uni06A1.init uniFB90 uniFB94 uniFEE7 uniFBAC uniFBA8 uniFBFE";
name = init;
},
{
code = "uni0631 uni0632 uni0644 uni0646 uni0647 uni0648 uni0649 uni064A uni0676 uni0677 uni0691 uni06BA uniFEDF";
name = init_isol;
},
{

glyphs = (
{
glyphname = .notdef;
layers = (
{
layerId = "445A555C-B070-40FB-B385-62320451654E";
paths = (
{
closed = 1;
nodes = (
"279 148 LINE",
"279 234 LINE",
"351 234 LINE",
"351 148 LINE"
);
},
{
closed = 1;
nodes = (
"286 298 LINE",
"284 319 LINE",
"284 389 OFFCURVE",
"305 430 QCURVE SMOOTH",
"317 455 OFFCURVE",
"359 497 QCURVE SMOOTH",
"400 538 OFFCURVE",
"411 558 QCURVE SMOOTH",
"422 579 OFFCURVE",
"423 603 QCURVE",
"423 650 OFFCURVE",
"393 680 QCURVE",
"364 711 OFFCURVE",
"327 712 QCURVE",
"284 712 OFFCURVE",
"228 655 OFFCURVE",
"222 591 QCURVE",
"158 601 LINE",
"167 691 OFFCURVE",
"261 776 OFFCURVE",
"397 776 OFFCURVE",
"443 729 QCURVE SMOOTH",
"489 683 OFFCURVE",
"488 609 QCURVE",
"488 567 OFFCURVE",
"473 537 QCURVE",
"457 507 OFFCURVE",
"409 460 QCURVE SMOOTH",
"360 414 OFFCURVE",
"354 387 QCURVE",
"344 365 OFFCURVE",
"345 298 QCURVE"
);
},
{
closed = 1;
nodes = (
"597 54 LINE",
"597 859 LINE",
"54 859 LINE",
"54 54 LINE"
);
},
{
closed = 1;
nodes = (
"651 914 LINE",
"651 0 LINE",
"0 0 LINE",
"0 914 LINE"
);
}
);
width = 650;
}
);
},
{
glyphname = exclam;
layers = (
{
layerId = "445A555C-B070-40FB-B385-62320451654E";
paths = (
{
closed = 1;
nodes = (
"156 1286 LINE",
"158 1285 LINE",
"165 1284 LINE",
"170 1282 OFFCURVE",
"177 1280 QCURVE",
"179 1279 LINE",
"184 1276 OFFCURVE",
"191 1272 QCURVE",
"196 1270 OFFCURVE",
"202 1264 QCURVE",
"211 1257 LINE",
"212 1255 LINE",
"221 1245 LINE",
"224 1241 OFFCURVE",
"228 1234 QCURVE",
"232 1230 OFFCURVE",
"235 1222 QCURVE",
"239 1217 OFFCURVE",
"241 1209 QCURVE",
"244 1204 OFFCURVE",
"247 1196 QCURVE",
"248 1192 OFFCURVE",
"251 1184 QCURVE",
"251 1181 LINE",
"254 1175 OFFCURVE",
"255 1167 QCURVE",
"257 1161 OFFCURVE",
"258 1153 QCURVE",
"259 1151 LINE",
"260 1146 OFFCURVE",
"261 1138 QCURVE",
"262 1136 LINE",
"262 1129 OFFCURVE",
"264 1119 QCURVE",
"266 1102 LINE",
"266 1096 LINE",
"267 1090 LINE",
"267 980 LINE",
"266 978 LINE",
"266 972 LINE",
"265 965 OFFCURVE",
"265 954 QCURVE",
"263 937 LINE",
"263 932 OFFCURVE",
"262 925 QCURVE",
"262 922 LINE",
"261 920 LINE",
"260 903 LINE",
"258 896 OFFCURVE",
"258 886 QCURVE",
"256 879 OFFCURVE",
"255 870 QCURVE SMOOTH",
"253 854 LINE",
"253 847 OFFCURVE",
"250 838 QCURVE",
"248 821 LINE",
"236 757 LINE",
"234 751 OFFCURVE",
"233 741 QCURVE",
"229 726 LINE",
"229 719 OFFCURVE",
"226 711 QCURVE",
"223 695 LINE",
"219 680 LINE SMOOTH",
"217 673 OFFCURVE",
"216 664 QCURVE",
"214 657 LINE",
"213 654 OFFCURVE",
"212 649 QCURVE SMOOTH",
"211 644 OFFCURVE",
"209 637 QCURVE",
"208 635 LINE",
"207 628 OFFCURVE",
"204 619 QCURVE",
"203 613 OFFCURVE",
"201 607 QCURVE",
"201 604 LINE",
"198 598 OFFCURVE",
"197 589 QCURVE",
"194 583 OFFCURVE",
"193 574 QCURVE",
"190 568 OFFCURVE",
"189 559 QCURVE",
"185 549 LINE",
"184 545 LINE",
"183 539 OFFCURVE",
"180 531 QCURVE",
"174 509 LINE",
"173 506 OFFCURVE",
"172 501 QCURVE",
"167 487 LINE",
"166 481 OFFCURVE",
"163 473 QCURVE",
"162 468 OFFCURVE",
"159 461 QCURVE",
"159 458 LINE",
"157 452 OFFCURVE",
"154 444 QCURVE",
"153 439 OFFCURVE",
"150 432 QCURVE",
"150 429 LINE",
"147 423 OFFCURVE",
"145 415 QCURVE",
"143 409 OFFCURVE",
"140 401 QCURVE",
"136 387 LINE",
"134 381 OFFCURVE",
"131 373 QCURVE",
"129 369 OFFCURVE",
"127 361 QCURVE",
"126 359 LINE",
"126 349 OFFCURVE",
"119 348 QCURVE",
"116 364 LINE",
"112 378 LINE",
"109 394 LINE SMOOTH",
"108 399 OFFCURVE",
"105 406 QCURVE",
"104 412 OFFCURVE",
"103 416 QCURVE SMOOTH",
"101 424 LINE",
"98 440 LINE",
"96 446 OFFCURVE",
"94 455 QCURVE SMOOTH",
"93 460 OFFCURVE",
"91 468 QCURVE",
"91 471 LINE",
"89 477 OFFCURVE",
"87 486 QCURVE",
"85 493 LINE",
"84 501 LINE",
"80 516 LINE",
"77 532 LINE",
"73 547 LINE",
"72 554 LINE",
"70 562 LINE",
"69 569 OFFCURVE",
"67 578 QCURVE",
"63 593 LINE",
"60 609 LINE",
"58 615 OFFCURVE",
"57 625 QCURVE",
"55 632 LINE",
"54 640 LINE",
"50 655 LINE",
"50 662 OFFCURVE",
"47 671 QCURVE",
"46 678 OFFCURVE",
"44 687 QCURVE",
"41 703 LINE",
"40 710 OFFCURVE",
"38 719 QCURVE",
"37 726 OFFCURVE",
"35 735 QCURVE",
"33 742 LINE",
"32 750 LINE SMOOTH",
"31 757 OFFCURVE",
"29 766 QCURVE",
"29 771 OFFCURVE",
"27 779 QCURVE",
"27 782 LINE",
"25 788 OFFCURVE",
"24 799 QCURVE",
"22 806 LINE",
"22 813 LINE",
"21 814 LINE",
"19 831 LINE",
"16 847 LINE",
"14 864 LINE",
"13 870 OFFCURVE",
"12 881 QCURVE",
"10 888 OFFCURVE",
"10 897 QCURVE",
"8 904 OFFCURVE",
"8 914 QCURVE",
"6 921 OFFCURVE",
"6 932 QCURVE",
"5 939 OFFCURVE",
"4 948 QCURVE",
"3 955 LINE",
"3 965 LINE",
"2 965 LINE",
"2 976 LINE",
"1 977 LINE",
"1 990 LINE",
"0 995 LINE",
"0 1105 LINE",
"1 1107 LINE",
"1 1113 LINE",
"2 1127 LINE",
"3 1130 LINE",
"5 1147 LINE",
"7 1153 OFFCURVE",
"8 1162 QCURVE",
"16 1192 LINE",
"18 1198 OFFCURVE",
"21 1206 QCURVE SMOOTH",
"23 1211 OFFCURVE",
"27 1219 QCURVE SMOOTH",
"33 1231 LINE",
"37 1235 OFFCURVE",
"39 1241 QCURVE",
"41 1242 LINE",
"44 1247 OFFCURVE",
"50 1253 QCURVE SMOOTH",
"53 1256 OFFCURVE",
"57 1261 QCURVE",
"59 1261 LINE",
"59 1262 LINE",
"70 1270 LINE SMOOTH",
"74 1273 OFFCURVE",
"82 1276 QCURVE",
"88 1280 OFFCURVE",
"96 1282 QCURVE",
"102 1283 OFFCURVE",
"110 1286 QCURVE"
);
},
{
closed = 1;
nodes = (
"137 260 OFFCURVE",
"142 257 QCURVE",
"142 256 OFFCURVE",
"144 255 QCURVE",
"147 251 OFFCURVE",
"152 246 QCURVE SMOOTH",
"155 243 OFFCURVE",
"160 238 QCURVE SMOOTH",
"163 235 OFFCURVE",
"168 230 QCURVE",
"170 227 OFFCURVE",
"175 224 QCURVE",
"175 223 OFFCURVE",
"177 222 QCURVE",
"180 218 OFFCURVE",
"185 213 QCURVE SMOOTH",
"188 210 OFFCURVE",
"193 205 QCURVE SMOOTH",
"196 202 OFFCURVE",
"201 197 QCURVE SMOOTH",
"204 194 OFFCURVE",
"209 189 QCURVE",
"211 186 OFFCURVE",
"216 183 QCURVE",
"216 182 OFFCURVE",
"218 181 QCURVE",
"221 177 OFFCURVE",
"226 172 QCURVE SMOOTH",
"229 169 OFFCURVE",
"234 164 QCURVE SMOOTH",
"237 161 OFFCURVE",
"242 156 QCURVE SMOOTH",
"245 153 OFFCURVE",
"250 148 QCURVE",
"252 145 OFFCURVE",
"257 142 QCURVE",
"257 141 OFFCURVE",
"259 140 QCURVE",
"262 136 OFFCURVE",
"267 132 QCURVE",
"265 128 OFFCURVE",
"260 122 QCURVE",
"256 119 OFFCURVE",
"251 114 QCURVE SMOOTH",
"248 111 OFFCURVE",
"243 106 QCURVE SMOOTH",
"240 103 OFFCURVE",
"235 98 QCURVE",
"232 96 OFFCURVE",
"229 91 QCURVE",
"228 91 OFFCURVE",
"227 89 QCURVE",
"223 86 OFFCURVE",
"218 81 QCURVE SMOOTH",
"215 78 OFFCURVE",
"210 73 QCURVE SMOOTH",
"207 70 OFFCURVE",
"202 65 QCURVE SMOOTH",
"199 62 OFFCURVE",
"194 57 QCURVE",
"191 55 OFFCURVE",
"188 50 QCURVE",
"187 50 OFFCURVE",
"186 48 QCURVE",
"182 45 OFFCURVE",
"177 40 QCURVE SMOOTH",
"174 37 OFFCURVE",
"169 32 QCURVE SMOOTH",
"166 29 OFFCURVE",
"161 24 QCURVE SMOOTH",
"158 21 OFFCURVE",
"153 16 QCURVE",
"150 14 OFFCURVE",
"147 9 QCURVE",
"146 9 OFFCURVE",
"145 7 QCURVE",
"141 3 OFFCURVE",
"136 0 QCURVE",
"132 2 OFFCURVE",
"127 8 QCURVE",
"124 11 OFFCURVE",
"119 16 QCURVE",
"117 19 OFFCURVE",
"112 22 QCURVE",
"112 23 OFFCURVE",
"110 24 QCURVE",
"107 28 OFFCURVE",
"102 33 QCURVE SMOOTH",
"99 36 OFFCURVE",
"94 41 QCURVE SMOOTH",
"91 44 OFFCURVE",
"86 49 QCURVE",
"84 52 OFFCURVE",
"79 55 QCURVE",
"79 56 OFFCURVE",
"77 57 QCURVE",
"74 61 OFFCURVE",
"69 65 QCURVE",
"66 69 OFFCURVE",
"61 74 QCURVE SMOOTH",
"58 77 OFFCURVE",
"53 82 QCURVE SMOOTH",
"50 85 OFFCURVE",
"45 90 QCURVE SMOOTH",
"42 93 OFFCURVE",
"37 98 QCURVE",
"35 101 OFFCURVE",
"30 104 QCURVE",
"30 105 OFFCURVE",
"28 106 QCURVE",
"25 110 OFFCURVE",
"20 115 QCURVE SMOOTH",
"17 118 OFFCURVE",
"12 123 QCURVE",
"8 126 OFFCURVE",
"5 131 QCURVE",
"8 134 OFFCURVE",
"13 139 QCURVE SMOOTH",
"16 142 OFFCURVE",
"21 147 QCURVE",
"24 149 OFFCURVE",
"27 154 QCURVE",
"28 154 OFFCURVE",
"29 156 QCURVE",
"33 159 OFFCURVE",
"38 164 QCURVE SMOOTH",
"41 167 OFFCURVE",
"46 172 QCURVE SMOOTH",
"49 175 OFFCURVE",
"54 180 QCURVE",
"57 182 OFFCURVE",
"60 187 QCURVE",
"61 187 OFFCURVE",
"62 189 QCURVE",
"66 192 OFFCURVE",
"70 197 QCURVE",
"74 200 OFFCURVE",
"79 205 QCURVE SMOOTH",
"82 208 OFFCURVE",
"87 213 QCURVE SMOOTH",
"90 216 OFFCURVE",
"95 221 QCURVE SMOOTH",
"98 224 OFFCURVE",
"103 229 QCURVE",
"106 231 OFFCURVE",
"109 236 QCURVE",
"110 236 OFFCURVE",
"111 238 QCURVE",
"115 241 OFFCURVE",
"120 246 QCURVE SMOOTH",
"123 249 OFFCURVE",
"128 254 QCURVE SMOOTH",
"132 258 OFFCURVE",
"135 263 QCURVE"
);
}
);
width = 378;
}
);
unicode = 0021;
},
{
glyphname = quotedbl;
layers = (
{
layerId = "445A555C-B070-40FB-B385-62320451654E";
paths = (
{
closed = 1;
nodes = (
"535 870 LINE",
"450 659 LINE",
"367 659 LINE",
"367 1098 LINE",
"535 1098 LINE"
);
},
{
closed = 1;
nodes = (
"274 870 LINE",
"189 659 LINE",
"107 659 LINE",
"108 862 LINE",
"108 1098 LINE",
"274 1098 LINE"
);
}
);
width = 619;
}
);
unicode = 0022;
},
{
glyphname = numbersign;
layers = (
{
layerId = "445A555C-B070-40FB-B385-62320451654E";
paths = (
{
closed = 1;
nodes = (
"602 347 LINE",
"386 347 LINE",
"319 0 LINE",
"191 0 LINE",
"258 347 LINE",
"60 347 LINE",
"60 464 LINE",
"282 464 LINE",
"340 758 LINE",
"124 758 LINE",
"124 878 LINE",
"362 878 LINE",
"433 1230 LINE",
"559 1230 LINE",
"492 878 LINE",
"707 878 LINE",
"775 1230 LINE",
"904 1230 LINE",
"834 878 LINE",
"1002 878 LINE",
"1002 758 LINE",
"811 758 LINE",
"754 464 LINE",
"938 464 LINE",
"938 347 LINE",
"730 347 LINE",
"662 0 LINE",
"535 0 LINE"
);
},
{
closed = 1;
nodes = (
"410 464 LINE",
"625 464 LINE",
"683 758 LINE",
"467 758 LINE"
);
}
);
width = 1078;
}
);
unicode = 0023;
},
{
glyphname = dollar;
layers = (
{
layerId = "445A555C-B070-40FB-B385-62320451654E";
paths = (
{
closed = 1;
nodes = (
"731 423 OFFCURVE",
"623 530 OFFCURVE",
"499 572 QCURVE",
"329 623 OFFCURVE",
"155 796 OFFCURVE",
"155 939 QCURVE SMOOTH",
"155 1078 OFFCURVE",
"314 1256 OFFCURVE",
"455 1274 QCURVE",
"455 1458 LINE",
"589 1458 LINE",
"589 1272 LINE",
"730 1253 OFFCURVE",
"886 1059 OFFCURVE",
"886 896 QCURVE",
"720 896 LINE",
"720 1004 OFFCURVE",
"614 1137 OFFCURVE",
"521 1137 QCURVE SMOOTH",
"420 1137 OFFCURVE",
"320 1032 OFFCURVE",
"320 944 QCURVE SMOOTH",
"320 861 OFFCURVE",
"425 759 OFFCURVE",
"558 713 QCURVE",
"730 657 OFFCURVE",
"898 492 OFFCURVE",
"898 348 QCURVE SMOOTH",
"898 204 OFFCURVE",
"724 32 OFFCURVE",
"571 16 QCURVE",
"571 -146 LINE",
"439 -146 LINE",
"439 15 LINE",
"294 30 OFFCURVE",
"108 212 OFFCURVE",
"112 387 QCURVE",
"113 392 LINE",
"272 392 LINE",
"272 262 OFFCURVE",
"404 152 OFFCURVE",
"499 152 QCURVE SMOOTH",
"608 152 OFFCURVE",
"731 255 OFFCURVE",
"731 347 QCURVE SMOOTH"
);
}
);
width = 1007;
}
);
unicode = 0024;
},
{
glyphname = percent;
layers = (
{
layerId = "445A555C-B070-40FB-B385-62320451654E";
paths = (
{
closed = 1;
nodes = (
"88 997 LINE SMOOTH",
"88 1103 OFFCURVE",
"226 1251 OFFCURVE",
"342 1251 QCURVE SMOOTH",
"459 1251 OFFCURVE",
"597 1105 OFFCURVE",
"597 997 QCURVE SMOOTH",
"597 932 LINE SMOOTH",
"597 824 OFFCURVE",
"459 679 OFFCURVE",
"345 679 QCURVE SMOOTH",
"228 679 OFFCURVE",
"88 825 OFFCURVE",
"88 932 QCURVE SMOOTH"
);
},
{
closed = 1;
nodes = (
"212 932 LINE SMOOTH",
"212 869 OFFCURVE",
"280 783 OFFCURVE",
"345 783 QCURVE SMOOTH",
"405 783 OFFCURVE",
"473 868 OFFCURVE",
"473 932 QCURVE SMOOTH",
"473 997 LINE SMOOTH",
"473 1058 OFFCURVE",
"405 1148 OFFCURVE",
"342 1148 QCURVE SMOOTH",
"279 1148 OFFCURVE",
"212 1059 OFFCURVE",
"212 997 QCURVE SMOOTH"
);
},
{
closed = 1;
nodes = (
"684 305 LINE SMOOTH",
"684 413 OFFCURVE",
"822 559 OFFCURVE",
"939 559 QCURVE SMOOTH",
"1054 559 OFFCURVE",
"1193 412 OFFCURVE",
"1193 305 QCURVE SMOOTH",
"1193 238 LINE SMOOTH",
"1193 130 OFFCURVE",
"1054 -15 OFFCURVE",
"940 -15 QCURVE SMOOTH",
"824 -15 OFFCURVE",
"684 130 OFFCURVE",
"684 238 QCURVE SMOOTH"
);
},
{
closed = 1;
nodes = (
"807 238 LINE SMOOTH",
"807 175 OFFCURVE",
"876 88 OFFCURVE",
"940 88 QCURVE SMOOTH",
"1001 88 OFFCURVE",
"1068 175 OFFCURVE",
"1068 238 QCURVE SMOOTH",
"1068 305 LINE SMOOTH",
"1068 368 OFFCURVE",
"1000 455 OFFCURVE",
"939 455 QCURVE SMOOTH",
"876 455 OFFCURVE",
"807 368 OFFCURVE",
"807 305 QCURVE SMOOTH"
);
},
{
closed = 1;
nodes = (
"387 97 LINE",
"296 153 LINE",
"896 1114 LINE",
"987 1057 LINE"
);
}
);
width = 1265;
}
);
unicode = 0025;
},
{
glyphname = ampersand;
layers = (
{
layerId = "445A555C-B070-40FB-B385-62320451654E";
paths = (
{
closed = 1;
nodes = (
"54 437 OFFCURVE",
"173 592 OFFCURVE",
"292 669 QCURVE",
"226 753 OFFCURVE",
"161 884 OFFCURVE",
"161 953 QCURVE SMOOTH",
"161 1095 OFFCURVE",
"326 1251 OFFCURVE",
"472 1251 QCURVE SMOOTH",
"604 1251 OFFCURVE",
"770 1097 OFFCURVE",
"770 989 QCURVE SMOOTH",
"770 907 OFFCURVE",
"683 785 OFFCURVE",
"595 722 QCURVE",
"504 655 LINE",
"791 309 LINE",
"826 364 OFFCURVE",
"864 497 OFFCURVE",
"864 572 QCURVE",
"1013 572 LINE",
"1013 460 OFFCURVE",
"948 271 OFFCURVE",
"886 195 QCURVE",
"1042 7 LINE",
"1039 3 LINE",
"846 3 LINE",
"774 89 LINE",
"706 39 OFFCURVE",
"542 -15 OFFCURVE",
"454 -15 QCURVE SMOOTH",
"271 -15 OFFCURVE",
"54 179 OFFCURVE",
"54 334 QCURVE SMOOTH"
);
},
{
closed = 1;
nodes = (
"516 116 OFFCURVE",
"634 158 OFFCURVE",
"686 195 QCURVE",
"382 562 LINE",
"348 538 LINE SMOOTH",
"271 481 OFFCURVE",
"221 376 OFFCURVE",
"221 334 QCURVE SMOOTH",
"221 238 OFFCURVE",
"340 116 OFFCURVE",
"454 116 QCURVE SMOOTH"
);
},
{
closed = 1;
nodes = (
"328 911 OFFCURVE",
"373 813 OFFCURVE",
"420 755 QCURVE",
"535 836 LINE",
"583 868 OFFCURVE",
"619 943 OFFCURVE",
"619 989 QCURVE SMOOTH",
"619 1040 OFFCURVE",
"536 1120 OFFCURVE",
"472 1120 QCURVE SMOOTH",
"402 1120 OFFCURVE",
"328 1024 OFFCURVE",
"328 956 QCURVE SMOOTH"
);
}
);
width = 1078;
}
);
unicode = 0026;
},
{
glyphname = quotesingle;
layers = (
{
layerId = "445A555C-B070-40FB-B385-62320451654E";
paths = (
{
closed = 1;
nodes = (
"274 908 LINE",
"189 670 LINE",
"107 670 LINE",
"108 893 LINE",
"108 1096 LINE",
"274 1096 LINE"
);
}
);
width = 377;
}
);
unicode = 0027;
},
{
glyphname = parenleft;
layers = (
{
layerId = "445A555C-B070-40FB-B385-62320451654E";
paths = (
{
closed = 1;
nodes = (
"113 564 LINE SMOOTH",
"113 898 OFFCURVE",
"381 1368 OFFCURVE",
"528 1448 QCURVE",
"533 1446 LINE",
"564 1348 LINE",
"450 1258 OFFCURVE",
"277 860 OFFCURVE",
"277 566 QCURVE SMOOTH",
"277 555 LINE SMOOTH",
"277 263 OFFCURVE",
"449 -136 OFFCURVE",
"564 -235 QCURVE",
"533 -326 LINE",
"528 -326 LINE",
"381 -248 OFFCURVE",
"113 224 OFFCURVE",
"113 557 QCURVE SMOOTH"
);
}
);
width = 572;
}
);
unicode = 0028;
},
{
glyphname = parenright;
layers = (
{
layerId = "445A555C-B070-40FB-B385-62320451654E";
paths = (
{
closed = 1;
nodes = (
"459 557 LINE SMOOTH",
"459 222 OFFCURVE",
"190 -248 OFFCURVE",
"42 -326 QCURVE",
"36 -326 LINE",
"5 -235 LINE",
"119 -146 OFFCURVE",
"293 261 OFFCURVE",
"293 555 QCURVE SMOOTH",
"293 566 LINE SMOOTH",
"293 855 OFFCURVE",
"114 1263 OFFCURVE",
"5 1355 QCURVE",
"36 1448 LINE",
"42 1448 LINE",
"189 1368 OFFCURVE",
"459 898 OFFCURVE",
"459 564 QCURVE SMOOTH"
);
}
);
width = 581;
}
);
unicode = 0029;
},
{
glyphname = asterisk;
layers = (
{
layerId = "445A555C-B070-40FB-B385-62320451654E";
paths = (
{
closed = 1;
nodes = (
"273 533 LINE",
"74 590 LINE",
"116 720 LINE",
"314 644 LINE",
"306 860 LINE",
"442 860 LINE",
"434 639 LINE",
"631 714 LINE",
"672 581 LINE",
"466 525 LINE",
"596 356 LINE",
"484 274 LINE",
"367 459 LINE",
"252 281 LINE",
"140 359 LINE"
);
}
);
width = 746;
}
);
unicode = 002A;
},
{
glyphname = plus;
layers = (
{
layerId = "445A555C-B070-40FB-B385-62320451654E";
paths = (
{
closed = 1;
nodes = (
"573 641 LINE",
"910 641 LINE",
"910 491 LINE",
"573 491 LINE",
"573 103 LINE",
"406 103 LINE",
"406 491 LINE",
"65 491 LINE",
"65 641 LINE",
"406 641 LINE",
"406 998 LINE",
"573 998 LINE"
);
}
);
width = 982;
}
);
unicode = 002B;
},
{
glyphname = comma;
layers = (
{
layerId = "445A555C-B070-40FB-B385-62320451654E";
paths = (
{
closed = 1;
nodes = (
"267 77 LINE",
"139 -182 LINE",
"41 -182 LINE",
"99 86 LINE",
"99 224 LINE",
"267 224 LINE"
);
}
);
width = 341;
}
);
unicode = 002C;
},
{
glyphname = hyphen;
layers = (
{
layerId = "445A555C-B070-40FB-B385-62320451654E";
paths = (
{
closed = 1;
nodes = (
"641 378 LINE",
"142 378 LINE",
"142 509 LINE",
"641 509 LINE"
);
}
);
width = 780;
}
);
unicode = 002D;
},
{
glyphname = period;
layers = (
{
layerId = "445A555C-B070-40FB-B385-62320451654E";
paths = (
{
closed = 1;
nodes = (
"303 0 LINE",
"137 0 LINE",
"137 170 LINE",
"303 170 LINE"
);
}
);
width = 464;
}
);
unicode = 002E;
},
{
glyphname = slash;
layers = (
{
layerId = "445A555C-B070-40FB-B385-62320451654E";
paths = (
{
closed = 1;
nodes = (
"156 -88 LINE",
"13 -88 LINE",
"527 1248 LINE",
"668 1248 LINE"
);
}
);
width = 717;
}
);
unicode = 002F;
},
{
glyphname = zero;
layers = (
{
layerId = "445A555C-B070-40FB-B385-62320451654E";
paths = (
{
closed = 1;
nodes = (
"879 437 LINE SMOOTH",
"879 229 OFFCURVE",
"666 -15 OFFCURVE",
"487 -15 QCURVE SMOOTH",
"310 -15 OFFCURVE",
"95 229 OFFCURVE",
"95 437 QCURVE SMOOTH",
"95 799 LINE SMOOTH",
"95 1006 OFFCURVE",
"307 1251 OFFCURVE",
"486 1251 QCURVE SMOOTH",
"665 1251 OFFCURVE",
"879 1006 OFFCURVE",
"879 799 QCURVE SMOOTH"
);
},
{
closed = 1;
nodes = (
"712 833 LINE SMOOTH",
"712 965 OFFCURVE",
"593 1120 OFFCURVE",
"486 1120 QCURVE SMOOTH",
"378 1120 OFFCURVE",
"262 965 OFFCURVE",
"262 833 QCURVE SMOOTH",
"262 404 LINE SMOOTH",
"262 271 OFFCURVE",
"382 116 OFFCURVE",
"487 116 QCURVE SMOOTH",
"595 116 OFFCURVE",
"712 269 OFFCURVE",
"712 404 QCURVE SMOOTH"
);
}
);
width = 974;
}
);
unicode = 0030;
},
{
glyphname = one;
layers = (
{
layerId = "445A555C-B070-40FB-B385-62320451654E";
paths = (
{
closed = 1;
nodes = (
"600 0 LINE",
"434 0 LINE",
"434 1076 LINE",
"166 1074 LINE",
"166 1202 LINE",
"600 1248 LINE"
);
}
);
width = 973;
}
);
unicode = 0031;
},
{
glyphname = two;
layers = (
{
layerId = "445A555C-B070-40FB-B385-62320451654E";
paths = (
{
closed = 1;
nodes = (
"891 0 LINE",
"127 0 LINE",
"127 114 LINE",
"514 574 LINE",
"616 698 OFFCURVE",
"689 847 OFFCURVE",
"689 923 QCURVE SMOOTH",
"689 1008 OFFCURVE",
"589 1117 OFFCURVE",
"502 1117 QCURVE SMOOTH",
"394 1117 OFFCURVE",
"279 983 OFFCURVE",
"279 884 QCURVE",
"118 884 LINE",
"117 889 LINE",
"113 1039 OFFCURVE",
"322 1248 OFFCURVE",
"502 1248 QCURVE SMOOTH",
"666 1248 OFFCURVE",
"856 1066 OFFCURVE",
"856 920 QCURVE SMOOTH",
"856 824 OFFCURVE",
"749 637 OFFCURVE",
"639 497 QCURVE",
"329 134 LINE",
"330 130 LINE",
"891 130 LINE"
);
}
);
width = 974;
}
);
unicode = 0032;
},
{
glyphname = three;
layers = (
{
layerId = "445A555C-B070-40FB-B385-62320451654E";
paths = (
{
closed = 1;
nodes = (
"488 701 LINE SMOOTH",
"601 701 OFFCURVE",
"693 813 OFFCURVE",
"693 913 QCURVE SMOOTH",
"693 1005 OFFCURVE",
"593 1120 OFFCURVE",
"493 1120 QCURVE SMOOTH",
"397 1120 OFFCURVE",
"271 1000 OFFCURVE",
"271 911 QCURVE",
"113 911 LINE",
"109 917 LINE",
"104 1055 OFFCURVE",
"324 1251 OFFCURVE",
"493 1251 QCURVE SMOOTH",
"665 1251 OFFCURVE",
"859 1078 OFFCURVE",
"859 909 QCURVE SMOOTH",
"859 824 OFFCURVE",
"769 681 OFFCURVE",
"687 641 QCURVE",
"780 605 OFFCURVE",
"877 453 OFFCURVE",
"877 346 QCURVE SMOOTH",
"877 176 OFFCURVE",
"665 -15 OFFCURVE",
"493 -15 QCURVE SMOOTH",
"336 -15 OFFCURVE",
"97 170 OFFCURVE",
"102 322 QCURVE",
"103 327 LINE",
"261 327 LINE",
"261 237 OFFCURVE",
"391 116 OFFCURVE",
"493 116 QCURVE SMOOTH",
"594 116 OFFCURVE",
"711 242 OFFCURVE",
"711 343 QCURVE SMOOTH",
"711 458 OFFCURVE",
"603 573 OFFCURVE",
"488 573 QCURVE SMOOTH",
"353 573 LINE",
"353 701 LINE"
);
}
);
width = 973;
}
);
unicode = 0033;
},
{
glyphname = four;
layers = (
{
layerId = "445A555C-B070-40FB-B385-62320451654E";
paths = (
{
closed = 1;
nodes = (
"753 414 LINE",
"924 414 LINE",
"924 284 LINE",
"753 284 LINE",
"753 0 LINE",
"589 0 LINE",
"589 284 LINE",
"61 284 LINE",
"61 378 LINE",
"578 1230 LINE",
"753 1230 LINE"
);
},
{
closed = 1;
nodes = (
"239 414 LINE",
"589 414 LINE",
"589 991 LINE",
"583 991 LINE",
"569 949 LINE"
);
}
);
width = 973;
}
);
unicode = 0034;
},
{
glyphname = five;
layers = (
{
layerId = "445A555C-B070-40FB-B385-62320451654E";
paths = (
{
closed = 1;
nodes = (
"147 550 LINE",
"218 1233 LINE",
"834 1233 LINE",
"834 1085 LINE",
"358 1085 LINE",
"319 731 LINE",
"360 761 OFFCURVE",
"454 799 OFFCURVE",
"517 799 QCURVE",
"687 802 OFFCURVE",
"880 584 OFFCURVE",
"880 394 QCURVE SMOOTH",
"880 209 OFFCURVE",
"682 -15 OFFCURVE",
"492 -15 QCURVE SMOOTH",
"336 -15 OFFCURVE",
"128 155 OFFCURVE",
"133 322 QCURVE",
"134 327 LINE",
"285 327 LINE",
"285 226 OFFCURVE",
"400 116 OFFCURVE",
"492 116 QCURVE SMOOTH",
"597 116 OFFCURVE",
"715 265 OFFCURVE",
"715 394 QCURVE SMOOTH",
"715 512 OFFCURVE",
"597 656 OFFCURVE",
"492 656 QCURVE SMOOTH",
"394 656 OFFCURVE",
"306 596 OFFCURVE",
"285 535 QCURVE"
);
}
);
width = 972;
}
);
unicode = 0035;
},
{
glyphname = six;
layers = (
{
layerId = "445A555C-B070-40FB-B385-62320451654E";
paths = (
{
closed = 1;
nodes = (
"614 1251 OFFCURVE",
"756 1221 OFFCURVE",
"802 1201 QCURVE",
"766 1072 LINE",
"718 1095 OFFCURVE",
"612 1120 OFFCURVE",
"541 1120 QCURVE SMOOTH",
"424 1120 OFFCURVE",
"280 922 OFFCURVE",
"280 771 QCURVE SMOOTH",
"280 676 LINE",
"332 728 OFFCURVE",
"474 787 OFFCURVE",
"555 787 QCURVE SMOOTH",
"714 787 OFFCURVE",
"898 573 OFFCURVE",
"898 400 QCURVE SMOOTH",
"898 211 OFFCURVE",
"692 -15 OFFCURVE",
"516 -15 QCURVE SMOOTH",
"345 -15 OFFCURVE",
"116 245 OFFCURVE",
"116 470 QCURVE SMOOTH",
"116 753 LINE SMOOTH",
"116 968 OFFCURVE",
"361 1251 OFFCURVE",
"541 1251 QCURVE SMOOTH"
);
},
{
closed = 1;
nodes = (
"423 662 OFFCURVE",
"309 596 OFFCURVE",
"280 538 QCURVE",
"280 453 LINE SMOOTH",
"280 297 OFFCURVE",
"417 116 OFFCURVE",
"516 116 QCURVE SMOOTH",
"620 116 OFFCURVE",
"732 274 OFFCURVE",
"732 400 QCURVE SMOOTH",
"732 520 OFFCURVE",
"612 662 OFFCURVE",
"501 662 QCURVE SMOOTH"
);
}
);
width = 972;
}
);
unicode = 0036;
},
{
glyphname = seven;
layers = (
{
layerId = "445A555C-B070-40FB-B385-62320451654E";
paths = (
{
closed = 1;
nodes = (
"898 1099 LINE",
"665 822 OFFCURVE",
"501 398 OFFCURVE",
"501 134 QCURVE SMOOTH",
"501 0 LINE",
"335 0 LINE",
"335 134 LINE SMOOTH",
"335 413 OFFCURVE",
"540 859 OFFCURVE",
"735 1099 QCURVE",
"83 1099 LINE",
"83 1230 LINE",
"898 1230 LINE"
);
}
);
width = 974;
}
);
unicode = 0037;
},
{
glyphname = eight;
layers = (
{
layerId = "445A555C-B070-40FB-B385-62320451654E";
paths = (
{
closed = 1;
nodes = (
"853 823 OFFCURVE",
"746 677 OFFCURVE",
"655 639 QCURVE",
"760 604 OFFCURVE",
"886 445 OFFCURVE",
"886 341 QCURVE SMOOTH",
"886 171 OFFCURVE",
"666 -15 OFFCURVE",
"496 -15 QCURVE SMOOTH",
"314 -15 OFFCURVE",
"86 171 OFFCURVE",
"86 341 QCURVE SMOOTH",
"86 446 OFFCURVE",
"214 604 OFFCURVE",
"325 640 QCURVE",
"230 677 OFFCURVE",
"120 823 OFFCURVE",
"120 919 QCURVE SMOOTH",
"120 1081 OFFCURVE",
"327 1251 OFFCURVE",
"494 1251 QCURVE SMOOTH",
"651 1251 OFFCURVE",
"853 1079 OFFCURVE",
"853 919 QCURVE SMOOTH"
);
},
{
closed = 1;
nodes = (
"721 445 OFFCURVE",
"590 575 OFFCURVE",
"494 575 QCURVE SMOOTH",
"388 575 OFFCURVE",
"252 445 OFFCURVE",
"252 344 QCURVE SMOOTH",
"252 239 OFFCURVE",
"388 116 OFFCURVE",
"496 116 QCURVE SMOOTH",
"592 116 OFFCURVE",
"721 241 OFFCURVE",
"721 344 QCURVE SMOOTH"
);
},
{
closed = 1;
nodes = (
"686 1005 OFFCURVE",
"577 1120 OFFCURVE",
"494 1120 QCURVE SMOOTH",
"403 1120 OFFCURVE",
"286 1009 OFFCURVE",
"286 917 QCURVE SMOOTH",
"286 823 OFFCURVE",
"405 706 OFFCURVE",
"496 706 QCURVE SMOOTH",
"578 706 OFFCURVE",
"686 823 OFFCURVE",
"686 917 QCURVE SMOOTH"
);
}
);
width = 972;
}
);
unicode = 0038;
},
{
glyphname = nine;
layers = (
{
layerId = "445A555C-B070-40FB-B385-62320451654E";
paths = (
{
closed = 1;
nodes = (
"544 116 OFFCURVE",
"690 280 OFFCURVE",
"690 433 QCURVE SMOOTH",
"690 538 LINE",
"649 478 OFFCURVE",
"530 416 OFFCURVE",
"458 416 QCURVE SMOOTH",
"281 416 OFFCURVE",
"78 634 OFFCURVE",
"78 829 QCURVE SMOOTH",
"78 1015 OFFCURVE",
"294 1251 OFFCURVE",
"451 1251 QCURVE SMOOTH",
"636 1251 OFFCURVE",
"858 1018 OFFCURVE",
"858 807 QCURVE SMOOTH",
"858 435 LINE SMOOTH",
"858 223 OFFCURVE",
"614 -15 OFFCURVE",
"424 -15 QCURVE SMOOTH",
"359 -15 OFFCURVE",
"222 13 OFFCURVE",
"162 39 QCURVE",
"188 165 LINE",
"245 139 OFFCURVE",
"352 116 OFFCURVE",
"424 116 QCURVE SMOOTH"
);
},
{
closed = 1;
nodes = (
"545 545 OFFCURVE",
"665 626 OFFCURVE",
"690 687 QCURVE",
"690 833 LINE SMOOTH",
"690 970 OFFCURVE",
"569 1120 OFFCURVE",
"456 1120 QCURVE SMOOTH",
"366 1120 OFFCURVE",
"245 959 OFFCURVE",
"245 829 QCURVE SMOOTH",
"245 701 OFFCURVE",
"356 545 OFFCURVE",
"458 545 QCURVE SMOOTH"
);
}
);
width = 973;
}
);
unicode = 0039;
},
{
glyphname = colon;
layers = (
{
layerId = "445A555C-B070-40FB-B385-62320451654E";
paths = (
{
closed = 1;
nodes = (
"303 0 LINE",
"137 0 LINE",
"137 170 LINE",
"303 170 LINE"
);
},
{
closed = 1;
nodes = (
"303 740 LINE",
"137 740 LINE",
"137 910 LINE",
"303 910 LINE"
);
}
);
width = 436;
}
);
unicode = 003A;
},
{
glyphname = semicolon;
layers = (
{
layerId = "445A555C-B070-40FB-B385-62320451654E";
paths = (
{
closed = 1;
nodes = (
"304 777 LINE",
"137 777 LINE",
"137 946 LINE",
"304 946 LINE"
);
},
{
closed = 1;
nodes = (
"310 77 LINE",
"182 -182 LINE",
"84 -182 LINE",
"142 86 LINE",
"142 224 LINE",
"310 224 LINE"
);
}
);
width = 444;
}
);
unicode = 003B;
},
{
glyphname = less;
layers = (
{
layerId = "445A555C-B070-40FB-B385-62320451654E";
paths = (
{
closed = 1;
nodes = (
"276 473 LINE",
"204 459 LINE",
"204 453 LINE",
"276 438 LINE",
"750 245 LINE",
"750 76 LINE",
"60 395 LINE",
"60 521 LINE",
"750 840 LINE",
"750 671 LINE"
);
}
);
width = 878;
}
);
unicode = 003C;
},
{
glyphname = equal;
layers = (
{
layerId = "445A555C-B070-40FB-B385-62320451654E";
paths = (
{
closed = 1;
nodes = (
"832 637 LINE",
"128 637 LINE",
"128 777 LINE",
"832 777 LINE"
);
},
{
closed = 1;
nodes = (
"832 287 LINE",
"128 287 LINE",
"128 425 LINE",
"832 425 LINE"
);
}
);
width = 972;
}
);
unicode = 003D;
},
{
glyphname = greater;
layers = (
{
layerId = "445A555C-B070-40FB-B385-62320451654E";
paths = (
{
closed = 1;
nodes = (
"115 662 LINE",
"115 825 LINE",
"837 507 LINE",
"837 381 LINE",
"115 62 LINE",
"115 226 LINE",
"620 428 LINE",
"692 441 LINE",
"692 447 LINE",
"620 464 LINE"
);
}
);
width = 904;
}
);
unicode = 003E;
},
{
glyphname = question;
layers = (
{
layerId = "445A555C-B070-40FB-B385-62320451654E";
paths = (
{
closed = 1;
nodes = (
"300 347 LINE",
"300 468 OFFCURVE",
"341 564 OFFCURVE",
"428 641 QCURVE",
"511 739 OFFCURVE",
"582 847 OFFCURVE",
"582 922 QCURVE SMOOTH",
"582 1012 OFFCURVE",
"487 1108 OFFCURVE",
"398 1108 QCURVE SMOOTH",
"320 1108 OFFCURVE",
"213 1025 OFFCURVE",
"213 943 QCURVE",
"54 943 LINE",
"51 948 LINE",
"49 1084 OFFCURVE",
"246 1248 OFFCURVE",
"398 1248 QCURVE SMOOTH",
"564 1248 OFFCURVE",
"749 1078 OFFCURVE",
"749 926 QCURVE SMOOTH",
"749 817 OFFCURVE",
"630 636 OFFCURVE",
"530 541 QCURVE",
"486 497 OFFCURVE",
"467 424 OFFCURVE",
"467 347 QCURVE"
);
},
{
closed = 1;
nodes = (
"473 0 LINE",
"297 0 LINE",
"297 175 LINE",
"473 175 LINE"
);
}
);
width = 822;
}
);
unicode = 003F;
},
{
glyphname = at;
layers = (
{
layerId = "445A555C-B070-40FB-B385-62320451654E";
paths = (
{
closed = 1;
nodes = (
"1456 307 OFFCURVE",
"1269 46 OFFCURVE",
"1082 46 QCURVE SMOOTH",
"1020 46 OFFCURVE",
"930 116 OFFCURVE",
"910 180 QCURVE",
"868 113 OFFCURVE",
"747 46 OFFCURVE",
"665 46 QCURVE SMOOTH",
"560 46 OFFCURVE",
"444 250 OFFCURVE",
"459 415 QCURVE SMOOTH",
"478 634 OFFCURVE",
"672 898 OFFCURVE",
"812 898 QCURVE SMOOTH",
"900 898 OFFCURVE",
"1007 854 OFFCURVE",
"1071 810 QCURVE",
"1068 805 LINE",
"1073 805 LINE",
"1030 311 LINE SMOOTH",
"1022 218 OFFCURVE",
"1074 148 OFFCURVE",
"1118 148 QCURVE SMOOTH",
"1222 148 OFFCURVE",
"1346 340 OFFCURVE",
"1353 488 QCURVE",
"1366 811 OFFCURVE",
"1097 1171 OFFCURVE",
"813 1171 QCURVE SMOOTH",
"551 1171 OFFCURVE",
"234 781 OFFCURVE",
"222 467 QCURVE",
"208 150 OFFCURVE",
"492 -220 OFFCURVE",
"756 -220 QCURVE SMOOTH",
"832 -220 OFFCURVE",
"983 -184 OFFCURVE",
"1036 -155 QCURVE",
"1068 -244 LINE",
"1012 -281 OFFCURVE",
"837 -318 OFFCURVE",
"753 -318 QCURVE SMOOTH",
"432 -318 OFFCURVE",
"82 103 OFFCURVE",
"96 467 QCURVE",
"113 824 OFFCURVE",
"501 1272 OFFCURVE",
"815 1272 QCURVE SMOOTH",
"1136 1272 OFFCURVE",
"1478 851 OFFCURVE",
"1464 488 QCURVE"
);
},
{
closed = 1;
nodes = (
"599 295 OFFCURVE",
"654 170 OFFCURVE",
"717 170 QCURVE SMOOTH",
"771 170 OFFCURVE",
"860 211 OFFCURVE",
"898 264 QCURVE",
"897 275 OFFCURVE",
"898 298 OFFCURVE",
"899 311 QCURVE SMOOTH",
"939 767 LINE",
"917 775 OFFCURVE",
"868 788 OFFCURVE",
"843 788 QCURVE SMOOTH",
"737 788 OFFCURVE",
"626 602 OFFCURVE",
"609 415 QCURVE"
);
}
);
width = 1549;
}
);
unicode = 0040;
},
{
glyphname = A;
layers = (
{
layerId = "445A555C-B070-40FB-B385-62320451654E";
paths = (
{
closed = 1;
nodes = (
"780 317 LINE",
"316 317 LINE",
"206 0 LINE",
"36 0 LINE",
"479 1230 LINE",
"623 1230 LINE",
"1057 0 LINE",
"887 0 LINE"
);
},
{
closed = 1;
nodes = (
"365 456 LINE",
"732 456 LINE",
"552 984 LINE",
"547 984 LINE"
);
}
);
width = 1094;
}
);
unicode = 0041;
},
{
glyphname = B;
layers = (
{
layerId = "445A555C-B070-40FB-B385-62320451654E";
paths = (
{
closed = 1;
nodes = (
"144 0 LINE",
"144 1230 LINE",
"545 1230 LINE SMOOTH",
"737 1230 OFFCURVE",
"956 1063 OFFCURVE",
"956 898 QCURVE SMOOTH",
"956 817 OFFCURVE",
"857 692 OFFCURVE",
"776 659 QCURVE",
"898 642 OFFCURVE",
"1038 467 OFFCURVE",
"1038 348 QCURVE SMOOTH",
"1038 179 OFFCURVE",
"818 0 OFFCURVE",
"631 0 QCURVE SMOOTH"
);
},
{
closed = 1;
nodes = (
"310 577 LINE",
"310 130 LINE",
"631 130 LINE SMOOTH",
"746 130 OFFCURVE",
"871 242 OFFCURVE",
"871 346 QCURVE SMOOTH",
"871 448 OFFCURVE",
"742 572 OFFCURVE",
"634 577 QCURVE",
"623 577 LINE"
);
},
{
closed = 1;
nodes = (
"310 708 LINE",
"580 708 LINE SMOOTH",
"672 708 OFFCURVE",
"790 809 OFFCURVE",
"790 900 QCURVE SMOOTH",
"790 1001 OFFCURVE",
"664 1099 OFFCURVE",
"545 1099 QCURVE SMOOTH",
"310 1099 LINE"
);
}
);
width = 1099;
}
);
unicode = 0042;
},
{
glyphname = C;
layers = (
{
layerId = "445A555C-B070-40FB-B385-62320451654E";
paths = (
{
closed = 1;
nodes = (
"1021 397 LINE",
"1023 392 LINE",
"1027 218 OFFCURVE",
"776 -15 OFFCURVE",
"571 -15 QCURVE SMOOTH",
"362 -15 OFFCURVE",
"98 280 OFFCURVE",
"98 508 QCURVE SMOOTH",
"98 728 LINE SMOOTH",
"98 953 OFFCURVE",
"362 1251 OFFCURVE",
"780 1251 OFFCURVE",
"1026 1028 OFFCURVE",
"1023 845 QCURVE",
"1021 841 LINE",
"861 841 LINE",
"861 970 OFFCURVE",
"709 1120 OFFCURVE",
"571 1120 QCURVE SMOOTH",
"432 1120 OFFCURVE",
"266 896 OFFCURVE",
"266 729 QCURVE SMOOTH",
"266 508 LINE SMOOTH",
"266 340 OFFCURVE",
"432 116 OFFCURVE",
"571 116 QCURVE SMOOTH",
"710 116 OFFCURVE",
"861 265 OFFCURVE",
"861 397 QCURVE"
);
}
);
width = 1097;
}
);
unicode = 0043;
},
{
glyphname = D;
layers = (
{
layerId = "445A555C-B070-40FB-B385-62320451654E";
paths = (
{
closed = 1;
nodes = (
"144 0 LINE",
"144 1230 LINE",
"530 1230 LINE SMOOTH",
"770 1230 OFFCURVE",
"1064 934 OFFCURVE",
"1064 698 QCURVE SMOOTH",
"1064 530 LINE SMOOTH",
"1064 295 OFFCURVE",
"770 0 OFFCURVE",
"530 0 QCURVE SMOOTH"
);
},
{
closed = 1;
nodes = (
"310 1099 LINE",
"310 130 LINE",
"530 130 LINE SMOOTH",
"701 130 OFFCURVE",
"898 355 OFFCURVE",
"898 530 QCURVE SMOOTH",
"898 700 LINE SMOOTH",
"898 876 OFFCURVE",
"701 1099 OFFCURVE",
"530 1099 QCURVE SMOOTH"
);
}
);
width = 1171;
}
);
unicode = 0044;
},
{
glyphname = E;
layers = (
{
layerId = "445A555C-B070-40FB-B385-62320451654E";
paths = (
{
closed = 1;
nodes = (
"815 570 LINE",
"310 570 LINE",
"310 130 LINE",
"901 130 LINE",
"901 0 LINE",
"144 0 LINE",
"144 1230 LINE",
"893 1230 LINE",
"893 1099 LINE",
"310 1099 LINE",
"310 701 LINE",
"815 701 LINE"
);
}
);
width = 953;
}
);
unicode = 0045;
},
{
glyphname = F;
layers = (
{
layerId = "445A555C-B070-40FB-B385-62320451654E";
paths = (
{
closed = 1;
nodes = (
"829 544 LINE",
"310 544 LINE",
"310 0 LINE",
"144 0 LINE",
"144 1230 LINE",
"914 1230 LINE",
"914 1099 LINE",
"310 1099 LINE",
"310 674 LINE",
"829 674 LINE"
);
}
);
width = 952;
}
);
unicode = 0046;
},
{
glyphname = G;
layers = (
{
layerId = "445A555C-B070-40FB-B385-62320451654E";
paths = (
{
closed = 1;
nodes = (
"1028 169 LINE",
"984 100 OFFCURVE",
"767 -15 OFFCURVE",
"593 -15 QCURVE SMOOTH",
"381 -15 OFFCURVE",
"103 267 OFFCURVE",
"103 490 QCURVE SMOOTH",
"103 745 LINE SMOOTH",
"103 968 OFFCURVE",
"371 1251 OFFCURVE",
"583 1251 QCURVE SMOOTH",
"788 1251 OFFCURVE",
"1026 1031 OFFCURVE",
"1023 862 QCURVE",
"1021 859 LINE",
"861 859 LINE",
"861 970 OFFCURVE",
"716 1120 OFFCURVE",
"583 1120 QCURVE SMOOTH",
"441 1120 OFFCURVE",
"269 909 OFFCURVE",
"269 746 QCURVE SMOOTH",
"269 490 LINE SMOOTH",
"269 327 OFFCURVE",
"452 116 OFFCURVE",
"593 116 QCURVE SMOOTH",
"703 116 OFFCURVE",
"830 172 OFFCURVE",
"861 212 QCURVE",
"861 488 LINE",
"583 488 LINE",
"583 617 LINE",
"1028 617 LINE"
);
}
);
width = 1171;
}
);
unicode = 0047;
},
{
glyphname = H;
layers = (
{
layerId = "445A555C-B070-40FB-B385-62320451654E";
paths = (
{
closed = 1;
nodes = (
"1074 0 LINE",
"907 0 LINE",
"907 542 LINE",
"310 542 LINE",
"310 0 LINE",
"144 0 LINE",
"144 1230 LINE",
"310 1230 LINE",
"310 674 LINE",
"907 674 LINE",
"907 1230 LINE",
"1074 1230 LINE"
);
}
);
width = 1217;
}
);
unicode = 0048;
},
{
glyphname = I;
layers = (
{
layerId = "445A555C-B070-40FB-B385-62320451654E";
paths = (
{
closed = 1;
nodes = (
"328 0 LINE",
"161 0 LINE",
"161 1230 LINE",
"328 1230 LINE"
);
}
);
width = 488;
}
);
unicode = 0049;
},
{
glyphname = J;
layers = (
{
layerId = "445A555C-B070-40FB-B385-62320451654E";
paths = (
{
closed = 1;
nodes = (
"640 1233 LINE",
"808 1233 LINE",
"808 361 LINE SMOOTH",
"808 188 OFFCURVE",
"598 -15 OFFCURVE",
"433 -15 QCURVE SMOOTH",
"262 -15 OFFCURVE",
"62 165 OFFCURVE",
"66 337 QCURVE",
"68 341 LINE",
"228 341 LINE",
"228 226 OFFCURVE",
"334 116 OFFCURVE",
"433 116 QCURVE SMOOTH",
"525 116 OFFCURVE",
"640 249 OFFCURVE",
"640 361 QCURVE SMOOTH"
);
}
);
width = 947;
}
);
unicode = 004A;
},
{
glyphname = K;
layers = (
{
layerId = "445A555C-B070-40FB-B385-62320451654E";
paths = (
{
closed = 1;
nodes = (
"419 556 LINE",
"310 556 LINE",
"310 0 LINE",
"144 0 LINE",
"144 1230 LINE",
"310 1230 LINE",
"310 686 LINE",
"401 686 LINE",
"857 1230 LINE",
"1045 1230 LINE",
"1046 1226 LINE",
"548 644 LINE",
"1082 4 LINE",
"1080 0 LINE",
"878 0 LINE"
);
}
);
width = 1099;
}
);
unicode = 004B;
},
{
glyphname = L;
layers = (
{
layerId = "445A555C-B070-40FB-B385-62320451654E";
paths = (
{
closed = 1;
nodes = (
"310 130 LINE",
"910 130 LINE",
"910 0 LINE",
"144 0 LINE",
"144 1230 LINE",
"310 1230 LINE"
);
}
);
width = 951;
}
);
unicode = 004C;
},
{
glyphname = M;
layers = (
{
layerId = "445A555C-B070-40FB-B385-62320451654E";
paths = (
{
closed = 1;
nodes = (
"754 230 LINE",
"758 230 LINE",
"1151 1230 LINE",
"1358 1230 LINE",
"1358 0 LINE",
"1193 0 LINE",
"1193 922 LINE",
"1187 923 LINE",
"814 0 LINE",
"698 0 LINE",
"314 953 LINE",
"310 953 LINE",
"310 0 LINE",
"144 0 LINE",
"144 1230 LINE",
"362 1230 LINE"
);
}
);
width = 1501;
}
);
unicode = 004D;
},
{
glyphname = N;
layers = (
{
layerId = "445A555C-B070-40FB-B385-62320451654E";
paths = (
{
closed = 1;
nodes = (
"1074 0 LINE",
"907 0 LINE",
"314 940 LINE",
"310 938 LINE",
"310 0 LINE",
"144 0 LINE",
"144 1230 LINE",
"310 1230 LINE",
"901 292 LINE",
"907 294 LINE",
"907 1230 LINE",
"1074 1230 LINE"
);
}
);
width = 1217;
}
);
unicode = 004E;
},
{
glyphname = O;
layers = (
{
layerId = "445A555C-B070-40FB-B385-62320451654E";
paths = (
{
closed = 1;
nodes = (
"1084 508 LINE SMOOTH",
"1084 284 OFFCURVE",
"804 -15 OFFCURVE",
"581 -15 QCURVE SMOOTH",
"366 -15 OFFCURVE",
"95 283 OFFCURVE",
"95 508 QCURVE SMOOTH",
"95 728 LINE SMOOTH",
"95 951 OFFCURVE",
"366 1251 OFFCURVE",
"581 1251 QCURVE SMOOTH",
"804 1251 OFFCURVE",
"1084 952 OFFCURVE",
"1084 728 QCURVE SMOOTH"
);
},
{
closed = 1;
nodes = (
"917 729 LINE SMOOTH",
"917 898 OFFCURVE",
"735 1114 OFFCURVE",
"581 1114 QCURVE SMOOTH",
"435 1114 OFFCURVE",
"262 898 OFFCURVE",
"262 729 QCURVE SMOOTH",
"262 508 LINE SMOOTH",
"262 338 OFFCURVE",
"435 121 OFFCURVE",
"581 121 QCURVE SMOOTH",
"736 121 OFFCURVE",
"917 337 OFFCURVE",
"917 508 QCURVE SMOOTH"
);
}
);
width = 1180;
}
);
unicode = 004F;
},
{
glyphname = P;
layers = (
{
layerId = "445A555C-B070-40FB-B385-62320451654E";
paths = (
{
closed = 1;
nodes = (
"310 493 LINE",
"310 0 LINE",
"144 0 LINE",
"144 1230 LINE",
"614 1230 LINE SMOOTH",
"811 1230 OFFCURVE",
"1030 1027 OFFCURVE",
"1030 862 QCURVE SMOOTH",
"1030 695 OFFCURVE",
"811 493 OFFCURVE",
"614 493 QCURVE SMOOTH"
);
},
{
closed = 1;
nodes = (
"310 623 LINE",
"614 623 LINE SMOOTH",
"739 623 OFFCURVE",
"863 758 OFFCURVE",
"863 859 QCURVE SMOOTH",
"863 962 OFFCURVE",
"738 1099 OFFCURVE",
"614 1099 QCURVE SMOOTH",
"310 1099 LINE"
);
}
);
width = 1100;
}
);
unicode = 0050;
},
{
glyphname = Q;
layers = (
{
layerId = "445A555C-B070-40FB-B385-62320451654E";
paths = (
{
closed = 1;
nodes = (
"1084 525 LINE SMOOTH",
"1084 429 OFFCURVE",
"1026 254 OFFCURVE",
"973 187 QCURVE",
"1158 8 LINE",
"1044 -100 LINE",
"856 80 LINE",
"798 40 OFFCURVE",
"658 2 OFFCURVE",
"581 2 QCURVE SMOOTH",
"366 2 OFFCURVE",
"95 300 OFFCURVE",
"95 525 QCURVE SMOOTH",
"95 745 LINE SMOOTH",
"95 968 OFFCURVE",
"366 1268 OFFCURVE",
"581 1268 QCURVE SMOOTH",
"804 1268 OFFCURVE",
"1084 969 OFFCURVE",
"1084 745 QCURVE SMOOTH"
);
},
{
closed = 1;
nodes = (
"917 746 LINE SMOOTH",
"917 915 OFFCURVE",
"735 1131 OFFCURVE",
"581 1131 QCURVE SMOOTH",
"435 1131 OFFCURVE",
"262 915 OFFCURVE",
"262 746 QCURVE SMOOTH",
"262 525 LINE SMOOTH",
"262 355 OFFCURVE",
"435 138 OFFCURVE",
"581 138 QCURVE SMOOTH",
"736 138 OFFCURVE",
"917 354 OFFCURVE",
"917 525 QCURVE SMOOTH"
);
}
);
width = 1205;
}
);
unicode = 0051;
},
{
glyphname = R;
layers = (
{
layerId = "445A555C-B070-40FB-B385-62320451654E";
paths = (
{
closed = 1;
nodes = (
"310 533 LINE",
"310 0 LINE",
"144 0 LINE",
"144 1229 LINE",
"564 1229 LINE SMOOTH",
"767 1229 OFFCURVE",
"979 1049 OFFCURVE",
"979 880 QCURVE SMOOTH",
"979 785 OFFCURVE",
"881 644 OFFCURVE",
"785 602 QCURVE",
"887 570 OFFCURVE",
"976 422 OFFCURVE",
"976 314 QCURVE SMOOTH",
"976 198 LINE SMOOTH",
"976 139 OFFCURVE",
"1001 49 OFFCURVE",
"1033 20 QCURVE",
"1033 0 LINE",
"862 0 LINE",
"828 29 OFFCURVE",
"809 140 OFFCURVE",
"809 199 QCURVE SMOOTH",
"809 311 LINE SMOOTH",
"809 412 OFFCURVE",
"694 533 OFFCURVE",
"594 533 QCURVE SMOOTH"
);
},
{
closed = 1;
nodes = (
"310 665 LINE",
"547 665 LINE SMOOTH",
"689 665 OFFCURVE",
"814 770 OFFCURVE",
"814 881 QCURVE SMOOTH",
"814 985 OFFCURVE",
"692 1099 OFFCURVE",
"564 1099 QCURVE SMOOTH",
"310 1099 LINE"
);
}
);
width = 1100;
}
);
unicode = 0052;
},
{
glyphname = S;
layers = (
{
layerId = "445A555C-B070-40FB-B385-62320451654E";
paths = (
{
closed = 1;
nodes = (
"799 397 OFFCURVE",
"679 509 OFFCURVE",
"528 550 QCURVE",
"339 596 OFFCURVE",
"129 777 OFFCURVE",
"129 913 QCURVE SMOOTH",
"129 1057 OFFCURVE",
"357 1251 OFFCURVE",
"537 1251 QCURVE SMOOTH",
"732 1251 OFFCURVE",
"962 1030 OFFCURVE",
"958 884 QCURVE",
"957 879 LINE",
"798 879 LINE",
"798 983 OFFCURVE",
"651 1120 OFFCURVE",
"537 1120 QCURVE SMOOTH",
"420 1120 OFFCURVE",
"296 1006 OFFCURVE",
"296 917 QCURVE SMOOTH",
"296 836 OFFCURVE",
"433 729 OFFCURVE",
"584 688 QCURVE",
"770 639 OFFCURVE",
"964 453 OFFCURVE",
"964 314 QCURVE SMOOTH",
"964 165 OFFCURVE",
"732 -15 OFFCURVE",
"542 -15 QCURVE SMOOTH",
"366 -15 OFFCURVE",
"92 184 OFFCURVE",
"96 351 QCURVE",
"98 357 LINE",
"256 357 LINE",
"256 242 OFFCURVE",
"433 116 OFFCURVE",
"542 116 QCURVE SMOOTH",
"661 116 OFFCURVE",
"799 221 OFFCURVE",
"799 313 QCURVE SMOOTH"
);
}
);
width = 1058;
}
);
unicode = 0053;
},
{
glyphname = T;
layers = (
{
layerId = "445A555C-B070-40FB-B385-62320451654E";
paths = (
{
closed = 1;
nodes = (
"1003 1099 LINE",
"597 1099 LINE",
"597 0 LINE",
"432 0 LINE",
"432 1099 LINE",
"31 1099 LINE",
"31 1230 LINE",
"1003 1230 LINE"
);
}
);
width = 1034;
}
);
unicode = 0054;
},
{
glyphname = U;
layers = (
{
layerId = "445A555C-B070-40FB-B385-62320451654E";
paths = (
{
closed = 1;
nodes = (
"1050 1233 LINE",
"1050 416 LINE SMOOTH",
"1050 213 OFFCURVE",
"789 -15 OFFCURVE",
"580 -15 QCURVE SMOOTH",
"379 -15 OFFCURVE",
"125 214 OFFCURVE",
"125 416 QCURVE SMOOTH",
"125 1233 LINE",
"291 1233 LINE",
"291 416 LINE SMOOTH",
"291 275 OFFCURVE",
"453 116 OFFCURVE",
"580 116 QCURVE SMOOTH",
"715 116 OFFCURVE",
"886 275 OFFCURVE",
"886 416 QCURVE SMOOTH",
"886 1233 LINE"
);
}
);
width = 1170;
}
);
unicode = 0055;
},
{
glyphname = V;
layers = (
{
layerId = "445A555C-B070-40FB-B385-62320451654E";
paths = (
{
closed = 1;
nodes = (
"517 324 LINE",
"545 221 LINE",
"549 221 LINE",
"578 324 LINE",
"895 1230 LINE",
"1075 1230 LINE",
"619 0 LINE",
"475 0 LINE",
"19 1230 LINE",
"199 1230 LINE"
);
}
);
width = 1094;
}
);
unicode = 0056;
},
{
glyphname = W;
layers = (
{
layerId = "445A555C-B070-40FB-B385-62320451654E";
paths = (
{
closed = 1;
nodes = (
"391 426 LINE",
"411 265 LINE",
"415 264 LINE",
"445 426 LINE",
"663 1230 LINE",
"825 1230 LINE",
"1045 426 LINE",
"1075 262 LINE",
"1079 262 LINE",
"1101 426 LINE",
"1278 1230 LINE",
"1459 1230 LINE",
"1161 0 LINE",
"1013 0 LINE",
"767 853 LINE",
"749 964 LINE",
"743 964 LINE",
"726 853 LINE",
"476 0 LINE",
"327 0 LINE",
"31 1230 LINE",
"211 1230 LINE"
);
}
);
width = 1489;
}
);
unicode = 0057;
},
{
glyphname = X;
layers = (
{
layerId = "445A555C-B070-40FB-B385-62320451654E";
paths = (
{
closed = 1;
nodes = (
"549 750 LINE",
"836 1230 LINE",
"1037 1230 LINE",
"647 620 LINE",
"1045 0 LINE",
"847 0 LINE",
"552 487 LINE",
"257 0 LINE",
"55 0 LINE",
"453 620 LINE",
"65 1230 LINE",
"264 1230 LINE"
);
}
);
width = 1094;
}
);
unicode = 0058;
},
{
glyphname = Y;
layers = (
{
layerId = "445A555C-B070-40FB-B385-62320451654E";
paths = (
{
closed = 1;
nodes = (
"545 605 LINE",
"867 1230 LINE",
"1056 1230 LINE",
"624 433 LINE",
"624 0 LINE",
"459 0 LINE",
"459 445 LINE",
"34 1230 LINE",
"224 1230 LINE"
);
}
);
width = 1094;
}
);
unicode = 0059;
},
{
glyphname = Z;
layers = (
{
layerId = "445A555C-B070-40FB-B385-62320451654E";
paths = (
{
closed = 1;
nodes = (
"269 130 LINE",
"958 130 LINE",
"958 0 LINE",
"83 0 LINE",
"83 124 LINE",
"739 1099 LINE",
"91 1099 LINE",
"91 1230 LINE",
"929 1230 LINE",
"929 1111 LINE"
);
}
);
width = 1035;
}
);
unicode = 005A;
},
{
glyphname = bracketleft;
layers = (
{
layerId = "445A555C-B070-40FB-B385-62320451654E";
paths = (
{
closed = 1;
nodes = (
"445 1318 LINE",
"287 1318 LINE",
"287 -89 LINE",
"445 -89 LINE",
"445 -220 LINE",
"120 -220 LINE",
"120 1449 LINE",
"445 1449 LINE"
);
}
);
width = 465;
}
);
unicode = 005B;
},
{
glyphname = backslash;
layers = (
{
layerId = "445A555C-B070-40FB-B385-62320451654E";
paths = (
{
closed = 1;
nodes = (
"32 1248 LINE",
"189 1248 LINE",
"703 -88 LINE",
"547 -88 LINE"
);
}
);
width = 715;
}
);
unicode = 005C;
},
{
glyphname = bracketright;
layers = (
{
layerId = "445A555C-B070-40FB-B385-62320451654E";
paths = (
{
closed = 1;
nodes = (
"10 1449 LINE",
"336 1449 LINE",
"336 -220 LINE",
"10 -220 LINE",
"10 -89 LINE",
"170 -89 LINE",
"170 1318 LINE",
"10 1318 LINE"
);
}
);
width = 466;
}
);
unicode = 005D;
},
{
glyphname = asciicircum;
layers = (
{
layerId = "445A555C-B070-40FB-B385-62320451654E";
paths = (
{
closed = 1;
nodes = (
"207 513 LINE",
"52 513 LINE",
"305 1127 LINE",
"418 1127 LINE",
"670 513 LINE",
"516 513 LINE",
"377 867 LINE",
"363 926 LINE",
"358 926 LINE",
"345 867 LINE"
);
}
);
width = 723;
}
);
unicode = 005E;
},
{
glyphname = underscore;
layers = (
{
layerId = "445A555C-B070-40FB-B385-62320451654E";
paths = (
{
closed = 1;
nodes = (
"783 -108 LINE",
"2 -108 LINE",
"2 22 LINE",
"783 22 LINE"
);
}
);
width = 784;
}
);
unicode = 005F;
},
{
glyphname = grave;
layers = (
{
layerId = "445A555C-B070-40FB-B385-62320451654E";
paths = (
{
closed = 1;
nodes = (
"414 882 LINE",
"281 882 LINE",
"70 1102 LINE",
"72 1105 LINE",
"267 1105 LINE"
);
}
);
width = 541;
}
);
unicode = 0060;
},
{
glyphname = a;
layers = (
{
layerId = "445A555C-B070-40FB-B385-62320451654E";
paths = (
{
closed = 1;
nodes = (
"683 3 LINE",
"674 44 OFFCURVE",
"665 107 OFFCURVE",
"665 140 QCURVE",
"617 74 OFFCURVE",
"468 -15 OFFCURVE",
"382 -15 QCURVE SMOOTH",
"239 -15 OFFCURVE",
"90 131 OFFCURVE",
"90 260 QCURVE SMOOTH",
"90 391 OFFCURVE",
"302 538 OFFCURVE",
"484 538 QCURVE SMOOTH",
"665 538 LINE",
"665 629 LINE SMOOTH",
"665 709 OFFCURVE",
"566 803 OFFCURVE",
"476 803 QCURVE SMOOTH",
"395 803 OFFCURVE",
"295 722 OFFCURVE",
"295 665 QCURVE",
"137 664 LINE",
"137 668 LINE",
"130 769 OFFCURVE",
"329 934 OFFCURVE",
"486 934 QCURVE SMOOTH",
"642 934 OFFCURVE",
"830 776 OFFCURVE",
"830 627 QCURVE SMOOTH",
"830 187 LINE SMOOTH",
"830 139 OFFCURVE",
"841 47 OFFCURVE",
"854 3 QCURVE"
);
},
{
closed = 1;
nodes = (
"497 125 OFFCURVE",
"642 217 OFFCURVE",
"665 278 QCURVE",
"665 427 LINE",
"478 427 LINE SMOOTH",
"377 427 OFFCURVE",
"256 325 OFFCURVE",
"256 256 QCURVE SMOOTH",
"256 196 OFFCURVE",
"331 125 OFFCURVE",
"407 125 QCURVE SMOOTH"
);
}
);
width = 950;
}
);
unicode = 0061;
},
{
glyphname = b;
layers = (
{
layerId = "445A555C-B070-40FB-B385-62320451654E";
paths = (
{
closed = 1;
nodes = (
"901 425 LINE SMOOTH",
"901 229 OFFCURVE",
"712 -15 OFFCURVE",
"545 -15 QCURVE SMOOTH",
"454 -15 OFFCURVE",
"319 57 OFFCURVE",
"276 128 QCURVE",
"247 3 LINE",
"120 3 LINE",
"120 1321 LINE",
"287 1321 LINE",
"287 808 LINE",
"330 869 OFFCURVE",
"458 934 OFFCURVE",
"542 934 QCURVE SMOOTH",
"712 934 OFFCURVE",
"901 664 OFFCURVE",
"901 443 QCURVE SMOOTH"
);
},
{
closed = 1;
nodes = (
"736 443 LINE SMOOTH",
"736 601 OFFCURVE",
"619 799 OFFCURVE",
"500 799 QCURVE SMOOTH",
"425 799 OFFCURVE",
"319 723 OFFCURVE",
"287 659 QCURVE",
"287 265 LINE",
"319 196 OFFCURVE",
"424 121 OFFCURVE",
"503 121 QCURVE SMOOTH",
"620 121 OFFCURVE",
"736 289 OFFCURVE",
"736 425 QCURVE SMOOTH"
);
}
);
width = 981;
}
);
unicode = 0062;
},
{
glyphname = c;
layers = (
{
layerId = "445A555C-B070-40FB-B385-62320451654E";
paths = (
{
closed = 1;
nodes = (
"561 116 OFFCURVE",
"676 217 OFFCURVE",
"676 292 QCURVE",
"826 292 LINE",
"829 287 LINE",
"833 169 OFFCURVE",
"623 -15 OFFCURVE",
"484 -15 QCURVE SMOOTH",
"293 -15 OFFCURVE",
"83 247 OFFCURVE",
"83 442 QCURVE SMOOTH",
"83 478 LINE SMOOTH",
"83 670 OFFCURVE",
"293 934 OFFCURVE",
"484 934 QCURVE SMOOTH",
"636 934 OFFCURVE",
"833 745 OFFCURVE",
"829 607 QCURVE",
"827 602 LINE",
"676 602 LINE",
"676 686 OFFCURVE",
"568 803 OFFCURVE",
"484 803 QCURVE SMOOTH",
"361 803 OFFCURVE",
"250 614 OFFCURVE",
"250 478 QCURVE SMOOTH",
"250 442 LINE SMOOTH",
"250 305 OFFCURVE",
"360 116 OFFCURVE",
"484 116 QCURVE SMOOTH"
);
}
);
width = 905;
}
);
unicode = 0063;
},
{
glyphname = d;
layers = (
{
layerId = "445A555C-B070-40FB-B385-62320451654E";
paths = (
{
closed = 1;
nodes = (
"83 443 LINE SMOOTH",
"83 664 OFFCURVE",
"271 934 OFFCURVE",
"442 934 QCURVE SMOOTH",
"521 934 OFFCURVE",
"646 875 OFFCURVE",
"689 818 QCURVE",
"689 1321 LINE",
"856 1321 LINE",
"856 3 LINE",
"729 3 LINE",
"703 119 LINE",
"659 53 OFFCURVE",
"526 -15 OFFCURVE",
"439 -15 QCURVE SMOOTH",
"273 -15 OFFCURVE",
"83 227 OFFCURVE",
"83 425 QCURVE SMOOTH"
);
},
{
closed = 1;
nodes = (
"250 425 LINE SMOOTH",
"250 287 OFFCURVE",
"363 121 OFFCURVE",
"483 121 QCURVE SMOOTH",
"556 121 OFFCURVE",
"657 188 OFFCURVE",
"689 249 QCURVE",
"689 676 LINE",
"658 733 OFFCURVE",
"556 799 OFFCURVE",
"484 799 QCURVE SMOOTH",
"363 799 OFFCURVE",
"250 601 OFFCURVE",
"250 443 QCURVE SMOOTH"
);
}
);
width = 982;
}
);
unicode = 0064;
},
{
glyphname = e;
layers = (
{
layerId = "445A555C-B070-40FB-B385-62320451654E";
paths = (
{
closed = 1;
nodes = (
"303 -15 OFFCURVE",
"83 237 OFFCURVE",
"83 442 QCURVE SMOOTH",
"83 479 LINE SMOOTH",
"83 676 OFFCURVE",
"310 934 OFFCURVE",
"473 934 QCURVE SMOOTH",
"657 934 OFFCURVE",
"840 706 OFFCURVE",
"840 517 QCURVE SMOOTH",
"840 428 LINE",
"256 428 LINE",
"252 424 LINE",
"252 287 OFFCURVE",
"373 116 OFFCURVE",
"499 116 QCURVE SMOOTH",
"583 116 OFFCURVE",
"712 164 OFFCURVE",
"757 206 QCURVE",
"822 98 LINE",
"773 51 OFFCURVE",
"612 -15 OFFCURVE",
"499 -15 QCURVE SMOOTH"
);
},
{
closed = 1;
nodes = (
"387 803 OFFCURVE",
"273 668 OFFCURVE",
"261 563 QCURVE",
"262 560 LINE",
"675 560 LINE",
"675 573 LINE SMOOTH",
"675 673 OFFCURVE",
"577 803 OFFCURVE",
"473 803 QCURVE SMOOTH"
);
}
);
width = 905;
}
);
unicode = 0065;
},
{
glyphname = f;
layers = (
{
layerId = "445A555C-B070-40FB-B385-62320451654E";
paths = (
{
closed = 1;
nodes = (
"190 0 LINE",
"190 791 LINE",
"48 791 LINE",
"48 914 LINE",
"190 914 LINE",
"190 1030 LINE SMOOTH",
"190 1176 OFFCURVE",
"343 1336 OFFCURVE",
"479 1336 QCURVE SMOOTH",
"509 1336 OFFCURVE",
"568 1327 OFFCURVE",
"602 1318 QCURVE",
"582 1192 LINE",
"568 1194 OFFCURVE",
"524 1200 OFFCURVE",
"500 1200 QCURVE SMOOTH",
"428 1200 OFFCURVE",
"358 1112 OFFCURVE",
"358 1030 QCURVE SMOOTH",
"358 914 LINE",
"521 914 LINE",
"521 791 LINE",
"358 791 LINE",
"358 0 LINE"
);
}
);
width = 568;
}
);
unicode = 0066;
},
{
glyphname = g;
layers = (
{
layerId = "445A555C-B070-40FB-B385-62320451654E";
paths = (
{
closed = 1;
nodes = (
"91 502 LINE SMOOTH",
"91 723 OFFCURVE",
"279 993 OFFCURVE",
"449 993 QCURVE SMOOTH",
"535 993 OFFCURVE",
"667 923 OFFCURVE",
"711 856 QCURVE",
"732 976 LINE",
"865 976 LINE",
"865 56 LINE SMOOTH",
"865 -118 OFFCURVE",
"661 -308 OFFCURVE",
"468 -308 QCURVE SMOOTH",
"402 -308 OFFCURVE",
"249 -272 OFFCURVE",
"191 -241 QCURVE",
"217 -110 LINE",
"264 -136 OFFCURVE",
"401 -168 OFFCURVE",
"467 -168 QCURVE SMOOTH",
"588 -168 OFFCURVE",
"698 -56 OFFCURVE",
"698 56 QCURVE SMOOTH",
"698 160 LINE",
"654 102 OFFCURVE",
"529 44 OFFCURVE",
"446 44 QCURVE SMOOTH",
"279 44 OFFCURVE",
"91 286 OFFCURVE",
"91 484 QCURVE SMOOTH"
);
},
{
closed = 1;
nodes = (
"257 484 LINE SMOOTH",
"257 347 OFFCURVE",
"371 179 OFFCURVE",
"488 179 QCURVE SMOOTH",
"564 179 OFFCURVE",
"665 248 OFFCURVE",
"698 309 QCURVE",
"698 731 LINE",
"666 789 OFFCURVE",
"564 857 OFFCURVE",
"492 857 QCURVE SMOOTH",
"371 857 OFFCURVE",
"257 659 OFFCURVE",
"257 502 QCURVE SMOOTH"
);
}
);
width = 981;
}
);
unicode = 0067;
},
{
glyphname = h;
layers = (
{
layerId = "445A555C-B070-40FB-B385-62320451654E";
paths = (
{
closed = 1;
nodes = (
"287 792 LINE",
"335 857 OFFCURVE",
"473 931 OFFCURVE",
"556 931 QCURVE SMOOTH",
"703 931 OFFCURVE",
"865 756 OFFCURVE",
"865 572 QCURVE SMOOTH",
"865 0 LINE",
"698 0 LINE",
"698 574 LINE SMOOTH",
"698 686 OFFCURVE",
"602 796 OFFCURVE",
"505 796 QCURVE SMOOTH",
"431 796 OFFCURVE",
"320 737 OFFCURVE",
"287 685 QCURVE",
"287 0 LINE",
"120 0 LINE",
"120 1318 LINE",
"287 1318 LINE"
);
}
);
width = 981;
}
);
unicode = 0068;
},
{
glyphname = i;
layers = (
{
layerId = "445A555C-B070-40FB-B385-62320451654E";
paths = (
{
closed = 1;
nodes = (
"300 0 LINE",
"134 0 LINE",
"134 914 LINE",
"300 914 LINE"
);
},
{
closed = 1;
nodes = (
"300 1148 LINE",
"134 1148 LINE",
"134 1318 LINE",
"300 1318 LINE"
);
}
);
width = 434;
}
);
unicode = 0069;
},
{
glyphname = j;
layers = (
{
layerId = "445A555C-B070-40FB-B385-62320451654E";
paths = (
{
closed = 1;
nodes = (
"313 976 LINE",
"313 -13 LINE SMOOTH",
"313 -156 OFFCURVE",
"167 -308 OFFCURVE",
"39 -308 QCURVE SMOOTH",
"12 -308 OFFCURVE",
"-31 -300 OFFCURVE",
"-55 -292 QCURVE",
"-44 -162 LINE",
"-31 -166 OFFCURVE",
"12 -171 OFFCURVE",
"27 -171 QCURVE SMOOTH",
"82 -171 OFFCURVE",
"147 -97 OFFCURVE",
"147 -13 QCURVE SMOOTH",
"147 976 LINE"
);
},
{
closed = 1;
nodes = (
"307 1212 LINE",
"142 1212 LINE",
"142 1379 LINE",
"307 1379 LINE"
);
}
);
width = 447;
}
);
unicode = 006A;
},
{
glyphname = k;
layers = (
{
layerId = "445A555C-B070-40FB-B385-62320451654E";
paths = (
{
closed = 1;
nodes = (
"373 421 LINE",
"288 421 LINE",
"288 0 LINE",
"122 0 LINE",
"122 1318 LINE",
"288 1318 LINE",
"288 554 LINE",
"372 554 LINE",
"645 914 LINE",
"846 914 LINE",
"513 492 LINE",
"874 0 LINE",
"678 0 LINE"
);
}
);
width = 885;
}
);
unicode = 006B;
},
{
glyphname = l;
layers = (
{
layerId = "445A555C-B070-40FB-B385-62320451654E";
paths = (
{
closed = 1;
nodes = (
"300 0 LINE",
"134 0 LINE",
"134 1318 LINE",
"300 1318 LINE"
);
}
);
width = 434;
}
);
unicode = 006C;
},
{
glyphname = m;
layers = (
{
layerId = "445A555C-B070-40FB-B385-62320451654E";
paths = (
{
closed = 1;
nodes = (
"269 914 LINE",
"281 794 LINE",
"326 859 OFFCURVE",
"463 931 OFFCURVE",
"646 931 OFFCURVE",
"778 847 OFFCURVE",
"810 762 QCURVE",
"853 841 OFFCURVE",
"995 931 OFFCURVE",
"1090 931 QCURVE SMOOTH",
"1229 931 OFFCURVE",
"1392 739 OFFCURVE",
"1392 547 QCURVE SMOOTH",
"1392 0 LINE",
"1225 0 LINE",
"1225 548 LINE SMOOTH",
"1225 684 OFFCURVE",
"1132 796 OFFCURVE",
"1039 796 QCURVE SMOOTH",
"953 796 OFFCURVE",
"848 678 OFFCURVE",
"840 588 QCURVE",
"840 581 LINE",
"840 0 LINE",
"673 0 LINE",
"673 548 LINE SMOOTH",
"673 677 OFFCURVE",
"577 796 OFFCURVE",
"487 796 QCURVE SMOOTH",
"412 796 OFFCURVE",
"314 732 OFFCURVE",
"287 677 QCURVE",
"287 0 LINE",
"120 0 LINE",
"120 914 LINE"
);
}
);
width = 1512;
}
);
unicode = 006D;
},
{
glyphname = n;
layers = (
{
layerId = "445A555C-B070-40FB-B385-62320451654E";
paths = (
{
closed = 1;
nodes = (
"269 914 LINE",
"281 779 LINE",
"328 852 OFFCURVE",
"464 931 OFFCURVE",
"552 931 QCURVE SMOOTH",
"700 931 OFFCURVE",
"863 758 OFFCURVE",
"863 577 QCURVE SMOOTH",
"863 0 LINE",
"696 0 LINE",
"696 574 LINE SMOOTH",
"696 695 OFFCURVE",
"601 796 OFFCURVE",
"503 796 QCURVE SMOOTH",
"426 796 OFFCURVE",
"319 734 OFFCURVE",
"287 678 QCURVE",
"287 0 LINE",
"120 0 LINE",
"120 914 LINE"
);
}
);
width = 982;
}
);
unicode = 006E;
},
{
glyphname = o;
layers = (
{
layerId = "445A555C-B070-40FB-B385-62320451654E";
paths = (
{
closed = 1;
nodes = (
"83 469 LINE SMOOTH",
"83 671 OFFCURVE",
"303 934 OFFCURVE",
"490 934 QCURVE SMOOTH",
"682 934 OFFCURVE",
"900 673 OFFCURVE",
"900 469 QCURVE SMOOTH",
"900 449 LINE SMOOTH",
"900 245 OFFCURVE",
"682 -15 OFFCURVE",
"492 -15 QCURVE SMOOTH",
"303 -15 OFFCURVE",
"83 245 OFFCURVE",
"83 449 QCURVE SMOOTH"
);
},
{
closed = 1;
nodes = (
"247 449 LINE SMOOTH",
"247 305 OFFCURVE",
"371 116 OFFCURVE",
"492 116 QCURVE SMOOTH",
"611 116 OFFCURVE",
"735 305 OFFCURVE",
"735 449 QCURVE SMOOTH",
"735 469 LINE SMOOTH",
"735 613 OFFCURVE",
"611 803 OFFCURVE",
"490 803 QCURVE SMOOTH",
"371 803 OFFCURVE",
"247 613 OFFCURVE",
"247 469 QCURVE SMOOTH"
);
}
);
width = 982;
}
);
unicode = 006F;
},
{
glyphname = p;
layers = (
{
layerId = "445A555C-B070-40FB-B385-62320451654E";
paths = (
{
closed = 1;
nodes = (
"900 481 LINE SMOOTH",
"900 284 OFFCURVE",
"710 41 OFFCURVE",
"544 41 QCURVE SMOOTH",
"460 41 OFFCURVE",
"331 98 OFFCURVE",
"287 153 QCURVE",
"287 -293 LINE",
"120 -293 LINE",
"120 973 LINE",
"247 973 LINE",
"275 854 LINE",
"319 920 OFFCURVE",
"454 990 OFFCURVE",
"541 990 QCURVE SMOOTH",
"712 990 OFFCURVE",
"900 720 OFFCURVE",
"900 499 QCURVE SMOOTH"
);
},
{
closed = 1;
nodes = (
"732 499 LINE SMOOTH",
"732 655 OFFCURVE",
"611 854 OFFCURVE",
"492 854 QCURVE SMOOTH",
"420 854 OFFCURVE",
"319 789 OFFCURVE",
"287 733 QCURVE",
"287 291 LINE",
"319 234 OFFCURVE",
"420 171 OFFCURVE",
"493 171 QCURVE SMOOTH",
"612 171 OFFCURVE",
"732 344 OFFCURVE",
"732 481 QCURVE SMOOTH"
);
}
);
width = 982;
}
);
unicode = 0070;
},
{
glyphname = q;
layers = (
{
layerId = "445A555C-B070-40FB-B385-62320451654E";
paths = (
{
closed = 1;
nodes = (
"83 499 LINE SMOOTH",
"83 720 OFFCURVE",
"271 990 OFFCURVE",
"442 990 QCURVE SMOOTH",
"522 990 OFFCURVE",
"651 926 OFFCURVE",
"695 867 QCURVE",
"719 973 LINE",
"847 973 LINE",
"847 -293 LINE",
"679 -293 LINE",
"679 145 LINE",
"636 93 OFFCURVE",
"516 41 OFFCURVE",
"439 41 QCURVE SMOOTH",
"273 41 OFFCURVE",
"83 283 OFFCURVE",
"83 481 QCURVE SMOOTH"
);
},
{
closed = 1;
nodes = (
"250 481 LINE SMOOTH",
"250 343 OFFCURVE",
"363 171 OFFCURVE",
"483 171 QCURVE SMOOTH",
"550 171 OFFCURVE",
"647 231 OFFCURVE",
"679 287 QCURVE",
"679 747 LINE",
"647 800 OFFCURVE",
"550 859 OFFCURVE",
"484 859 QCURVE SMOOTH",
"365 859 OFFCURVE",
"250 656 OFFCURVE",
"250 499 QCURVE SMOOTH"
);
}
);
width = 981;
}
);
unicode = 0071;
},
{
glyphname = r;
layers = (
{
layerId = "445A555C-B070-40FB-B385-62320451654E";
paths = (
{
closed = 1;
nodes = (
"553 767 LINE",
"468 772 LINE",
"402 772 OFFCURVE",
"311 709 OFFCURVE",
"287 653 QCURVE",
"287 0 LINE",
"120 0 LINE",
"120 914 LINE",
"269 914 LINE",
"286 780 LINE",
"324 852 OFFCURVE",
"439 931 OFFCURVE",
"514 931 QCURVE SMOOTH",
"530 931 OFFCURVE",
"564 925 OFFCURVE",
"577 922 QCURVE"
);
}
);
width = 605;
}
);
unicode = 0072;
},
{
glyphname = s;
layers = (
{
layerId = "445A555C-B070-40FB-B385-62320451654E";
paths = (
{
closed = 1;
nodes = (
"652 303 OFFCURVE",
"568 373 OFFCURVE",
"452 399 QCURVE SMOOTH",
"290 434 OFFCURVE",
"117 559 OFFCURVE",
"117 664 QCURVE SMOOTH",
"117 773 OFFCURVE",
"307 934 OFFCURVE",
"458 934 QCURVE SMOOTH",
"614 934 OFFCURVE",
"806 765 OFFCURVE",
"802 652 QCURVE",
"800 647 LINE",
"642 647 LINE",
"642 706 OFFCURVE",
"538 803 OFFCURVE",
"458 803 QCURVE SMOOTH",
"369 803 OFFCURVE",
"284 723 OFFCURVE",
"284 668 QCURVE SMOOTH",
"284 615 OFFCURVE",
"358 555 OFFCURVE",
"476 531 QCURVE",
"644 495 OFFCURVE",
"818 365 OFFCURVE",
"818 260 QCURVE SMOOTH",
"818 140 OFFCURVE",
"621 -15 OFFCURVE",
"463 -15 QCURVE SMOOTH",
"288 -15 OFFCURVE",
"86 163 OFFCURVE",
"92 280 QCURVE",
"93 286 LINE",
"252 286 LINE",
"256 197 OFFCURVE",
"380 116 OFFCURVE",
"463 116 QCURVE SMOOTH",
"550 116 OFFCURVE",
"652 191 OFFCURVE",
"652 249 QCURVE SMOOTH"
);
}
);
width = 904;
}
);
unicode = 0073;
},
{
glyphname = t;
layers = (
{
layerId = "445A555C-B070-40FB-B385-62320451654E";
paths = (
{
closed = 1;
nodes = (
"353 1137 LINE",
"353 917 LINE",
"526 917 LINE",
"526 794 LINE",
"353 794 LINE",
"353 238 LINE SMOOTH",
"353 173 OFFCURVE",
"406 122 OFFCURVE",
"450 122 QCURVE SMOOTH",
"463 122 OFFCURVE",
"499 130 OFFCURVE",
"511 134 QCURVE",
"535 20 LINE",
"516 5 OFFCURVE",
"443 -15 OFFCURVE",
"408 -15 QCURVE SMOOTH",
"306 -15 OFFCURVE",
"186 107 OFFCURVE",
"186 238 QCURVE SMOOTH",
"186 794 LINE",
"41 794 LINE",
"41 917 LINE",
"186 917 LINE",
"186 1137 LINE"
);
}
);
width = 582;
}
);
unicode = 0074;
},
{
glyphname = u;
layers = (
{
layerId = "445A555C-B070-40FB-B385-62320451654E";
paths = (
{
closed = 1;
nodes = (
"701 139 LINE",
"659 64 OFFCURVE",
"522 -15 OFFCURVE",
"435 -15 QCURVE SMOOTH",
"286 -15 OFFCURVE",
"118 176 OFFCURVE",
"118 379 QCURVE SMOOTH",
"118 917 LINE",
"285 917 LINE",
"285 376 LINE SMOOTH",
"285 231 OFFCURVE",
"370 121 OFFCURVE",
"462 121 QCURVE SMOOTH",
"550 121 OFFCURVE",
"665 193 OFFCURVE",
"695 259 QCURVE",
"695 917 LINE",
"862 917 LINE",
"862 3 LINE",
"712 3 LINE"
);
}
);
width = 982;
}
);
unicode = 0075;
},
{
glyphname = v;
layers = (
{
layerId = "445A555C-B070-40FB-B385-62320451654E";
paths = (
{
closed = 1;
nodes = (
"425 269 LINE",
"441 204 LINE",
"446 204 LINE",
"462 269 LINE",
"672 914 LINE",
"843 914 LINE",
"506 0 LINE",
"380 0 LINE",
"40 914 LINE",
"209 914 LINE"
);
}
);
width = 869;
}
);
unicode = 0076;
},
{
glyphname = w;
layers = (
{
layerId = "445A555C-B070-40FB-B385-62320451654E";
paths = (
{
closed = 1;
nodes = (
"355 332 LINE",
"376 215 LINE",
"381 215 LINE",
"403 332 LINE",
"584 914 LINE",
"718 914 LINE",
"901 332 LINE",
"926 202 LINE",
"931 202 LINE",
"957 332 LINE",
"1092 914 LINE",
"1267 914 LINE",
"1002 0 LINE",
"867 0 LINE",
"686 557 LINE",
"652 703 LINE",
"646 703 LINE",
"614 557 LINE",
"436 0 LINE",
"303 0 LINE",
"38 914 LINE",
"211 914 LINE"
);
}
);
width = 1309;
}
);
unicode = 0077;
},
{
glyphname = x;
layers = (
{
layerId = "445A555C-B070-40FB-B385-62320451654E";
paths = (
{
closed = 1;
nodes = (
"431 577 LINE",
"626 914 LINE",
"820 914 LINE",
"522 463 LINE",
"828 0 LINE",
"636 0 LINE",
"435 346 LINE",
"232 0 LINE",
"40 0 LINE",
"345 463 LINE",
"48 914 LINE",
"239 914 LINE"
);
}
);
width = 869;
}
);
unicode = 0078;
},
{
glyphname = y;
layers = (
{
layerId = "445A555C-B070-40FB-B385-62320451654E";
paths = (
{
closed = 1;
nodes = (
"401 400 LINE",
"430 285 LINE",
"435 285 LINE",
"660 976 LINE",
"845 976 LINE",
"461 -79 LINE",
"425 -171 OFFCURVE",
"297 -308 OFFCURVE",
"188 -308 QCURVE SMOOTH",
"167 -308 OFFCURVE",
"104 -298 OFFCURVE",
"87 -295 QCURVE",
"104 -163 LINE",
"99 -162 OFFCURVE",
"170 -168 OFFCURVE",
"179 -168 QCURVE SMOOTH",
"232 -168 OFFCURVE",
"299 -73 OFFCURVE",
"322 -15 QCURVE",
"362 81 LINE",
"22 976 LINE",
"209 976 LINE"
);
}
);
width = 869;
}
);
unicode = 0079;
},
{
glyphname = z;
layers = (
{
layerId = "445A555C-B070-40FB-B385-62320451654E";
paths = (
{
closed = 1;
nodes = (
"277 130 LINE",
"805 130 LINE",
"805 0 LINE",
"79 0 LINE",
"79 116 LINE",
"573 782 LINE",
"85 782 LINE",
"85 914 LINE",
"777 914 LINE",
"777 800 LINE"
);
}
);
width = 869;
}
);
unicode = 007A;
},
{
glyphname = braceleft;
layers = (
{
layerId = "445A555C-B070-40FB-B385-62320451654E";
paths = (
{
closed = 1;
nodes = (
"366 409 LINE",
"326 339 LINE",
"262 380 LINE",
"300 450 LINE"
);
},
{
closed = 1;
nodes = (
"101 735 LINE",
"17 713 OFFCURVE",
"15 631 QCURVE",
"85 692 OFFCURVE",
"179 659 QCURVE",
"182 659 LINE",
"185 658 LINE",
"208 655 LINE",
"-7 526 OFFCURVE",
"1 283 QCURVE",
"4 276 OFFCURVE",
"4 269 QCURVE",
"5 267 LINE",
"6 252 OFFCURVE",
"11 240 QCURVE",
"11 236 LINE",
"12 235 OFFCURVE",
"12 234 QCURVE",
"17 222 LINE",
"19 220 LINE",
"20 216 LINE",
"21 212 LINE",
"23 209 LINE",
"31 196 OFFCURVE",
"35 186 QCURVE",
"39 183 LINE",
"40 179 LINE",
"43 176 LINE SMOOTH",
"45 174 OFFCURVE",
"45 172 QCURVE",
"49 169 LINE",
"52 165 LINE",
"54 162 LINE",
"58 159 LINE",
"66 150 LINE",
"77 143 OFFCURVE",
"83 135 QCURVE",
"88 132 LINE",
"91 131 OFFCURVE",
"91 130 QCURVE",
"105 124 OFFCURVE",
"114 116 QCURVE",
"119 115 LINE",
"147 102 LINE",
"151 102 OFFCURVE",
"152 101 QCURVE",
"156 99 LINE",
"160 98 LINE",
"163 98 LINE",
"167 97 LINE",
"170 96 LINE",
"172 94 LINE",
"182 94 OFFCURVE",
"191 91 QCURVE",
"203 91 OFFCURVE",
"211 88 QCURVE",
"227 88 LINE",
"232 88 LINE",
"253 88 LINE",
"263 88 LINE",
"272 88 LINE",
"280 89 OFFCURVE",
"285 89 QCURVE",
"289 91 LINE",
"309 93 LINE",
"332 97 LINE",
"336 98 LINE",
"340 98 LINE",
"343 101 LINE",
"351 102 OFFCURVE",
"356 103 QCURVE",
"365 106 LINE",
"374 111 OFFCURVE",
"381 112 QCURVE",
"385 113 LINE",
"389 116 LINE",
"402 121 LINE",
"411 126 LINE",
"433 137 LINE",
"435 140 LINE",
"444 144 OFFCURVE",
"449 149 QCURVE",
"451 150 LINE",
"457 154 OFFCURVE",
"460 157 QCURVE",
"464 158 LINE",
"465 160 LINE",
"488 177 LINE",
"493 184 LINE",
"313 111 OFFCURVE",
"158 176 QCURVE",
"31 238 OFFCURVE",
"47 370 QCURVE",
"47 373 LINE",
"49 386 LINE",
"54 408 LINE",
"56 413 LINE",
"58 418 LINE",
"59 420 LINE",
"59 424 LINE",
"61 427 LINE",
"62 431 LINE",
"66 439 OFFCURVE",
"69 446 QCURVE",
"69 450 LINE",
"182 634 OFFCURVE",
"380 645 QCURVE",
"381 650 LINE",
"388 660 OFFCURVE",
"392 668 QCURVE",
"395 672 LINE",
"397 675 LINE",
"399 679 LINE",
"400 683 LINE",
"403 686 LINE",
"408 694 LINE",
"409 698 LINE",
"418 713 LINE",
"418 715 LINE",
"418 713 LINE",
"418 715 LINE",
"414 715 LINE SMOOTH",
"408 715 OFFCURVE",
"404 713 QCURVE",
"400 713 LINE",
"384 713 LINE",
"370 713 LINE",
"364 713 LINE",
"347 713 LINE",
"342 713 LINE",
"319 713 LINE",
"315 713 LINE",
"300 713 LINE",
"294 715 LINE",
"288 715 LINE",
"281 715 LINE",
"275 716 LINE",
"266 716 LINE",
"258 719 OFFCURVE",
"253 717 QCURVE",
"244 719 LINE",
"238 720 LINE",
"231 721 LINE",
"227 721 LINE",
"217 724 LINE",
"211 724 LINE",
"191 727 LINE",
"187 727 LINE",
"185 729 LINE",
"181 729 LINE",
"177 729 LINE",
"165 731 OFFCURVE",
"156 732 QCURVE",
"149 732 LINE",
"146 734 LINE",
"142 734 LINE",
"138 735 LINE",
"133 735 LINE",
"129 735 LINE",
"124 735 LINE"
);
}
);
width = 490;
}
);
unicode = 007B;
},
{
glyphname = bar;
layers = (
{
layerId = "445A555C-B070-40FB-B385-62320451654E";
paths = (
{
closed = 1;
nodes = (
"241 -190 LINE",
"102 -190 LINE",
"102 1025 LINE",
"241 1025 LINE"
);
}
);
width = 358;
}
);
unicode = 007C;
},
{
glyphname = braceright;
layers = (
{
layerId = "445A555C-B070-40FB-B385-62320451654E";
paths = (
{
closed = 1;
nodes = (
"324 555 LINE",
"271 472 LINE",
"193 527 LINE",
"244 614 LINE"
);
},
{
closed = 1;
nodes = (
"426 497 LINE",
"423 493 LINE",
"420 488 LINE",
"419 480 OFFCURVE",
"416 476 QCURVE",
"413 469 OFFCURVE",
"410 465 QCURVE",
"409 462 LINE SMOOTH",
"403 445 OFFCURVE",
"395 435 QCURVE",
"395 429 LINE",
"398 427 LINE",
"410 396 LINE",
"450 321 OFFCURVE",
"447 246 QCURVE",
"383 201 OFFCURVE",
"312 191 QCURVE",
"184 170 OFFCURVE",
"110 250 QCURVE",
"51 336 OFFCURVE",
"105 449 QCURVE",
"109 463 OFFCURVE",
"98 465 QCURVE",
"95 462 LINE",
"92 459 LINE",
"88 456 LINE",
"85 449 OFFCURVE",
"81 446 QCURVE",
"78 436 OFFCURVE",
"72 431 QCURVE",
"-50 97 OFFCURVE",
"282 104 QCURVE",
"401 121 OFFCURVE",
"465 204 QCURVE",
"467 214 OFFCURVE",
"472 221 QCURVE",
"472 225 LINE",
"473 229 LINE",
"480 248 LINE",
"482 259 LINE",
"486 276 OFFCURVE",
"486 288 QCURVE",
"494 414 OFFCURVE",
"435 512 QCURVE"
);
}
);
width = 551;
}
);
unicode = 007D;
},
{
glyphname = asciitilde;
layers = (
{
layerId = "445A555C-B070-40FB-B385-62320451654E";
paths = (
{
closed = 1;
nodes = (
"890 521 LINE",
"890 424 OFFCURVE",
"767 282 OFFCURVE",
"676 282 QCURVE SMOOTH",
"613 282 OFFCURVE",
"509 329 OFFCURVE",
"449 381 QCURVE",
"407 415 OFFCURVE",
"339 449 OFFCURVE",
"304 449 QCURVE SMOOTH",
"255 449 OFFCURVE",
"190 374 OFFCURVE",
"190 322 QCURVE",
"90 334 LINE",
"90 430 OFFCURVE",
"210 565 OFFCURVE",
"304 565 QCURVE SMOOTH",
"366 565 OFFCURVE",
"470 517 OFFCURVE",
"530 467 QCURVE SMOOTH",
"572 431 OFFCURVE",
"639 399 OFFCURVE",
"676 399 QCURVE SMOOTH",
"722 399 OFFCURVE",
"790 479 OFFCURVE",
"790 534 QCURVE"
);
}
);
width = 979;
}
);
unicode = 007E;
},
{
glyphname = brokenbar;
layers = (
{
layerId = "445A555C-B070-40FB-B385-62320451654E";
paths = (
{
closed = 1;
nodes = (
"151 360 LINE",
"226 360 LINE",
"226 804 LINE",
"151 804 LINE"
);
},
{
closed = 1;
nodes = (
"151 -268 LINE",
"226 -268 LINE",
"226 176 LINE",
"151 176 LINE"
);
}
);
width = 376;
}
);
unicode = 00A6;
},
{
glyphname = section;
layers = (
{
layerId = "445A555C-B070-40FB-B385-62320451654E";
paths = (
{
closed = 1;
nodes = (
"433 705 LINE",
"460 711 OFFCURVE",
"491 737 OFFCURVE",
"491 757 QCURVE SMOOTH",
"491 772 OFFCURVE",
"472 795 OFFCURVE",
"442 812 OFFCURVE",
"404 821 OFFCURVE",
"385 821 QCURVE SMOOTH",
"350 821 OFFCURVE",
"271 781 OFFCURVE",
"206 721 OFFCURVE",
"164 649 OFFCURVE",
"164 615 QCURVE SMOOTH",
"164 594 OFFCURVE",
"180 553 OFFCURVE",
"208 515 OFFCURVE",
"243 477 OFFCURVE",
"261 460 QCURVE",
"280 439 OFFCURVE",
"329 392 OFFCURVE",
"378 339 OFFCURVE",
"425 284 OFFCURVE",
"444 256 QCURVE SMOOTH",
"469 221 OFFCURVE",
"501 150 OFFCURVE",
"501 117 QCURVE SMOOTH",
"501 78 OFFCURVE",
"471 29 OFFCURVE",
"457 15 QCURVE",
"476 -21 LINE",
"525 31 OFFCURVE",
"571 122 OFFCURVE",
"571 178 QCURVE SMOOTH",
"571 211 OFFCURVE",
"539 286 OFFCURVE",
"512 323 QCURVE SMOOTH",
"486 358 OFFCURVE",
"426 427 OFFCURVE",
"360 495 OFFCURVE",
"293 561 OFFCURVE",
"264 591 QCURVE",
"235 618 OFFCURVE",
"235 654 QCURVE SMOOTH",
"235 675 OFFCURVE",
"252 711 OFFCURVE",
"279 733 OFFCURVE",
"315 746 OFFCURVE",
"335 746 QCURVE SMOOTH",
"361 746 OFFCURVE",
"414 721 OFFCURVE",
"430 705 QCURVE"
);
},
{
closed = 1;
nodes = (
"222 -160 LINE",
"201 -163 OFFCURVE",
"169 -184 OFFCURVE",
"169 -205 QCURVE SMOOTH",
"169 -223 OFFCURVE",
"189 -249 OFFCURVE",
"218 -265 OFFCURVE",
"252 -272 OFFCURVE",
"266 -272 QCURVE SMOOTH",
"302 -272 OFFCURVE",
"381 -233 OFFCURVE",
"446 -172 OFFCURVE",
"487 -95 OFFCURVE",
"487 -59 QCURVE SMOOTH",
"487 -39 OFFCURVE",
"470 2 OFFCURVE",
"442 42 OFFCURVE",
"407 78 OFFCURVE",
"389 96 QCURVE",
"370 117 OFFCURVE",
"323 163 OFFCURVE",
"275 213 OFFCURVE",
"230 266 OFFCURVE",
"210 294 QCURVE SMOOTH",
"186 329 OFFCURVE",
"154 398 OFFCURVE",
"154 432 QCURVE SMOOTH",
"154 470 OFFCURVE",
"183 520 OFFCURVE",
"196 533 QCURVE",
"177 570 LINE",
"152 543 OFFCURVE",
"117 495 OFFCURVE",
"95 448 OFFCURVE",
"84 398 OFFCURVE",
"84 372 QCURVE SMOOTH",
"84 338 OFFCURVE",
"117 265 OFFCURVE",
"143 227 QCURVE SMOOTH",
"167 193 OFFCURVE",
"227 125 OFFCURVE",
"293 59 OFFCURVE",
"358 -6 OFFCURVE",
"387 -34 QCURVE",
"394 -42 OFFCURVE",
"404 -55 OFFCURVE",
"407 -63 QCURVE",
"416 -79 OFFCURVE",
"416 -97 QCURVE SMOOTH",
"416 -119 OFFCURVE",
"400 -156 OFFCURVE",
"374 -183 OFFCURVE",
"338 -197 OFFCURVE",
"318 -197 QCURVE SMOOTH",
"293 -197 OFFCURVE",
"243 -176 OFFCURVE",
"224 -160 QCURVE"
);
}
);
width = 662;
}
);
unicode = 00A7;
},
{
glyphname = dieresis;
layers = (
{
layerId = "445A555C-B070-40FB-B385-62320451654E";
paths = (
{
closed = 1;
nodes = (
"376 601 OFFCURVE",
"345 634 OFFCURVE",
"345 657 QCURVE SMOOTH",
"345 680 OFFCURVE",
"376 712 OFFCURVE",
"399 712 QCURVE SMOOTH",
"424 712 OFFCURVE",
"455 680 OFFCURVE",
"455 657 QCURVE SMOOTH",
"455 634 OFFCURVE",
"422 601 OFFCURVE",
"399 601 QCURVE SMOOTH"
);
},
{
closed = 1;
nodes = (
"163 601 OFFCURVE",
"131 634 OFFCURVE",
"131 657 QCURVE SMOOTH",
"131 680 OFFCURVE",
"164 712 OFFCURVE",
"186 712 QCURVE SMOOTH",
"209 712 OFFCURVE",
"241 680 OFFCURVE",
"241 657 QCURVE SMOOTH",
"241 634 OFFCURVE",
"209 601 OFFCURVE",
"186 601 QCURVE SMOOTH"
);
}
);
width = 586;
}
);
unicode = 00A8;
},
{
glyphname = copyright;
layers = (
{
layerId = "445A555C-B070-40FB-B385-62320451654E";
paths = (
{
closed = 1;
nodes = (
"645 495 LINE",
"645 525 OFFCURVE",
"646 580 OFFCURVE",
"649 609 QCURVE",
"621 617 OFFCURVE",
"557 625 OFFCURVE",
"528 625 QCURVE SMOOTH",
"473 625 OFFCURVE",
"375 597 OFFCURVE",
"301 540 OFFCURVE",
"257 455 OFFCURVE",
"257 399 QCURVE SMOOTH",
"257 350 OFFCURVE",
"294 269 OFFCURVE",
"358 213 OFFCURVE",
"446 183 OFFCURVE",
"497 183 QCURVE SMOOTH",
"535 183 OFFCURVE",
"605 196 OFFCURVE",
"643 205 QCURVE",
"646 235 OFFCURVE",
"654 289 OFFCURVE",
"662 321 QCURVE",
"636 328 LINE",
"627 301 OFFCURVE",
"605 261 OFFCURVE",
"592 248 QCURVE SMOOTH",
"576 232 OFFCURVE",
"535 219 OFFCURVE",
"513 219 QCURVE SMOOTH",
"473 219 OFFCURVE",
"415 250 OFFCURVE",
"374 302 OFFCURVE",
"354 372 OFFCURVE",
"354 411 QCURVE SMOOTH",
"354 451 OFFCURVE",
"375 517 OFFCURVE",
"417 564 OFFCURVE",
"477 591 OFFCURVE",
"517 591 QCURVE SMOOTH",
"557 591 OFFCURVE",
"613 543 OFFCURVE",
"615 494 QCURVE"
);
},
{
closed = 1;
nodes = (
"137 477 OFFCURVE",
"194 606 OFFCURVE",
"288 702 OFFCURVE",
"417 758 OFFCURVE",
"491 758 QCURVE SMOOTH",
"563 758 OFFCURVE",
"691 702 OFFCURVE",
"787 606 OFFCURVE",
"843 477 OFFCURVE",
"843 403 QCURVE SMOOTH",
"843 328 OFFCURVE",
"787 198 OFFCURVE",
"691 101 OFFCURVE",
"563 46 OFFCURVE",
"491 46 QCURVE SMOOTH",
"417 46 OFFCURVE",
"288 101 OFFCURVE",
"194 198 OFFCURVE",
"137 328 OFFCURVE",
"137 403 QCURVE SMOOTH"
);
},
{
closed = 1;
nodes = (
"84 319 OFFCURVE",
"147 174 OFFCURVE",
"258 66 OFFCURVE",
"407 4 OFFCURVE",
"491 4 QCURVE SMOOTH",
"574 4 OFFCURVE",
"721 66 OFFCURVE",
"832 174 OFFCURVE",
"895 319 OFFCURVE",
"895 403 QCURVE SMOOTH",
"895 486 OFFCURVE",
"832 631 OFFCURVE",
"721 737 OFFCURVE",
"574 800 OFFCURVE",
"491 800 QCURVE SMOOTH",
"407 800 OFFCURVE",
"258 737 OFFCURVE",
"147 631 OFFCURVE",
"84 486 OFFCURVE",
"84 403 QCURVE SMOOTH"
);
}
);
width = 979;
}
);
unicode = 00A9;
},
{
glyphname = uni00AD;
layers = (
{
layerId = "445A555C-B070-40FB-B385-62320451654E";
paths = (
{
closed = 1;
nodes = (
"667 473 LINE",
"147 473 LINE",
"147 609 LINE",
"667 609 LINE"
);
}
);
width = 812;
}
);
unicode = 00AD;
},
{
glyphname = registered;
layers = (
{
layerId = "445A555C-B070-40FB-B385-62320451654E";
paths = (
{
closed = 1;
nodes = (
"437 382 LINE",
"465 382 LINE SMOOTH",
"480 382 OFFCURVE",
"491 372 OFFCURVE",
"497 362 QCURVE SMOOTH",
"514 333 OFFCURVE",
"543 279 OFFCURVE",
"565 234 OFFCURVE",
"582 199 OFFCURVE",
"586 191 QCURVE",
"591 191 OFFCURVE",
"595 191 QCURVE SMOOTH",
"599 191 OFFCURVE",
"604 191 QCURVE SMOOTH",
"623 191 LINE SMOOTH",
"649 191 OFFCURVE",
"705 191 OFFCURVE",
"723 191 QCURVE",
"724 215 LINE",
"707 216 OFFCURVE",
"684 218 OFFCURVE",
"668 227 OFFCURVE",
"653 239 OFFCURVE",
"647 251 QCURVE",
"640 260 OFFCURVE",
"623 288 OFFCURVE",
"601 329 OFFCURVE",
"575 376 OFFCURVE",
"562 403 QCURVE",
"601 416 OFFCURVE",
"651 477 OFFCURVE",
"651 519 QCURVE SMOOTH",
"651 551 OFFCURVE",
"618 591 OFFCURVE",
"570 612 OFFCURVE",
"512 618 OFFCURVE",
"460 618 OFFCURVE",
"414 615 OFFCURVE",
"391 615 QCURVE SMOOTH",
"366 615 OFFCURVE",
"316 616 OFFCURVE",
"301 616 QCURVE",
"300 592 LINE",
"338 591 OFFCURVE",
"359 574 OFFCURVE",
"359 553 QCURVE SMOOTH",
"359 268 LINE SMOOTH",
"359 253 OFFCURVE",
"354 233 OFFCURVE",
"341 221 OFFCURVE",
"319 216 OFFCURVE",
"301 215 QCURVE",
"304 191 LINE",
"316 191 OFFCURVE",
"366 191 OFFCURVE",
"389 191 QCURVE SMOOTH",
"425 191 OFFCURVE",
"473 191 OFFCURVE",
"494 191 QCURVE",
"495 215 LINE",
"474 216 OFFCURVE",
"451 220 OFFCURVE",
"440 230 OFFCURVE",
"437 244 OFFCURVE",
"437 254 QCURVE SMOOTH"
);
},
{
closed = 1;
nodes = (
"437 546 LINE SMOOTH",
"437 566 OFFCURVE",
"453 585 OFFCURVE",
"475 585 QCURVE SMOOTH",
"513 585 OFFCURVE",
"563 549 OFFCURVE",
"563 512 QCURVE SMOOTH",
"563 464 OFFCURVE",
"508 413 OFFCURVE",
"464 413 QCURVE SMOOTH",
"437 413 LINE"
);
},
{
closed = 1;
nodes = (
"137 477 OFFCURVE",
"194 606 OFFCURVE",
"288 702 OFFCURVE",
"417 758 OFFCURVE",
"491 758 QCURVE SMOOTH",
"563 758 OFFCURVE",
"691 702 OFFCURVE",
"787 606 OFFCURVE",
"843 477 OFFCURVE",
"843 403 QCURVE SMOOTH",
"843 328 OFFCURVE",
"787 198 OFFCURVE",
"691 101 OFFCURVE",
"563 46 OFFCURVE",
"491 46 QCURVE SMOOTH",
"417 46 OFFCURVE",
"288 101 OFFCURVE",
"194 198 OFFCURVE",
"137 328 OFFCURVE",
"137 403 QCURVE SMOOTH"
);
},
{
closed = 1;
nodes = (
"84 319 OFFCURVE",
"147 174 OFFCURVE",
"258 66 OFFCURVE",
"407 4 OFFCURVE",
"491 4 QCURVE SMOOTH",
"574 4 OFFCURVE",
"721 66 OFFCURVE",
"832 174 OFFCURVE",
"895 319 OFFCURVE",
"895 403 QCURVE SMOOTH",
"895 486 OFFCURVE",
"832 631 OFFCURVE",
"721 737 OFFCURVE",
"574 800 OFFCURVE",
"491 800 QCURVE SMOOTH",
"407 800 OFFCURVE",
"258 737 OFFCURVE",
"147 631 OFFCURVE",
"84 486 OFFCURVE",
"84 403 QCURVE SMOOTH"
);
}
);
width = 979;
}
);
unicode = 00AE;
},
{
glyphname = uni00B2;
layers = (
{
layerId = "445A555C-B070-40FB-B385-62320451654E";
paths = (
{
closed = 1;
nodes = (
"94 659 LINE",
"97 707 OFFCURVE",
"124 733 QCURVE SMOOTH",
"137 746 OFFCURVE",
"176 757 OFFCURVE",
"217 755 OFFCURVE",
"253 741 OFFCURVE",
"282 716 OFFCURVE",
"294 681 OFFCURVE",
"294 662 QCURVE SMOOTH",
"294 643 OFFCURVE",
"285 605 OFFCURVE",
"277 591 QCURVE",
"261 558 OFFCURVE",
"201 495 OFFCURVE",
"166 462 QCURVE SMOOTH",
"29 332 LINE",
"34 315 LINE",
"42 315 OFFCURVE",
"74 315 OFFCURVE",
"92 315 QCURVE SMOOTH",
"111 315 OFFCURVE",
"147 316 OFFCURVE",
"159 316 QCURVE SMOOTH",
"175 316 OFFCURVE",
"207 315 OFFCURVE",
"231 315 QCURVE SMOOTH",
"255 315 OFFCURVE",
"327 315 OFFCURVE",
"385 315 QCURVE",
"385 324 OFFCURVE",
"389 355 OFFCURVE",
"398 389 OFFCURVE",
"407 422 OFFCURVE",
"410 437 QCURVE",
"385 443 LINE",
"375 424 OFFCURVE",
"359 399 OFFCURVE",
"342 387 OFFCURVE",
"326 383 OFFCURVE",
"315 383 QCURVE",
"136 380 LINE",
"249 480 LINE",
"273 503 OFFCURVE",
"320 546 OFFCURVE",
"359 594 OFFCURVE",
"384 649 OFFCURVE",
"384 684 QCURVE SMOOTH",
"384 717 OFFCURVE",
"351 769 OFFCURVE",
"299 803 OFFCURVE",
"235 821 OFFCURVE",
"206 821 QCURVE SMOOTH",
"165 821 OFFCURVE",
"89 796 OFFCURVE",
"59 774 QCURVE",
"62 748 OFFCURVE",
"63 694 OFFCURVE",
"63 661 QCURVE"
);
}
);
width = 439;
}
);
unicode = 00B2;
},
{
glyphname = uni00B3;
layers = (
{
layerId = "445A555C-B070-40FB-B385-62320451654E";
paths = (
{
closed = 1;
nodes = (
"90 675 LINE",
"92 718 OFFCURVE",
"152 762 OFFCURVE",
"194 762 QCURVE SMOOTH",
"211 762 OFFCURVE",
"244 754 OFFCURVE",
"269 735 OFFCURVE",
"285 706 OFFCURVE",
"285 689 QCURVE SMOOTH",
"285 658 OFFCURVE",
"253 619 OFFCURVE",
"208 596 OFFCURVE",
"152 584 OFFCURVE",
"127 581 QCURVE",
"132 546 LINE",
"161 552 OFFCURVE",
"187 552 QCURVE SMOOTH",
"242 552 OFFCURVE",
"306 501 OFFCURVE",
"306 446 QCURVE SMOOTH",
"306 421 OFFCURVE",
"290 382 OFFCURVE",
"264 353 OFFCURVE",
"226 337 OFFCURVE",
"202 337 QCURVE SMOOTH",
"165 337 OFFCURVE",
"103 381 OFFCURVE",
"90 418 QCURVE",
"87 418 LINE",
"64 415 OFFCURVE",
"33 383 OFFCURVE",
"33 366 QCURVE SMOOTH",
"33 343 OFFCURVE",
"64 313 OFFCURVE",
"110 297 OFFCURVE",
"161 289 OFFCURVE",
"178 289 QCURVE SMOOTH",
"220 289 OFFCURVE",
"301 310 OFFCURVE",
"363 354 OFFCURVE",
"403 420 OFFCURVE",
"403 465 QCURVE SMOOTH",
"403 513 OFFCURVE",
"344 586 OFFCURVE",
"294 601 QCURVE",
"294 603 LINE",
"328 627 OFFCURVE",
"373 680 OFFCURVE",
"373 718 QCURVE SMOOTH",
"373 746 OFFCURVE",
"341 785 OFFCURVE",
"293 810 OFFCURVE",
"235 821 OFFCURVE",
"212 821 QCURVE SMOOTH",
"169 821 OFFCURVE",
"95 800 OFFCURVE",
"58 781 QCURVE",
"59 757 OFFCURVE",
"61 708 OFFCURVE",
"61 676 QCURVE"
);
}
);
width = 439;
}
);
unicode = 00B3;
},
{
glyphname = acute;
layers = (
{
layerId = "445A555C-B070-40FB-B385-62320451654E";
paths = (
{
closed = 1;
nodes = (
"269 543 LINE",
"272 538 LINE",
"301 532 LINE",
"431 737 LINE",
"427 747 LINE",
"339 755 LINE"
);
}
);
width = 586;
}
);
unicode = 00B4;
},
{
glyphname = paragraph;
layers = (
{
layerId = "445A555C-B070-40FB-B385-62320451654E";
paths = (
{
closed = 1;
nodes = (
"299 179 OFFCURVE",
"191 235 OFFCURVE",
"112 319 OFFCURVE",
"67 424 OFFCURVE",
"67 483 QCURVE SMOOTH",
"67 552 OFFCURVE",
"116 671 OFFCURVE",
"220 759 OFFCURVE",
"385 811 OFFCURVE",
"503 811 QCURVE SMOOTH",
"533 811 OFFCURVE",
"597 807 OFFCURVE",
"632 804 QCURVE",
"636 776 LINE",
"609 773 OFFCURVE",
"574 767 OFFCURVE",
"553 756 OFFCURVE",
"543 746 OFFCURVE",
"541 741 QCURVE",
"519 696 OFFCURVE",
"488 581 OFFCURVE",
"469 460 OFFCURVE",
"460 344 OFFCURVE",
"460 298 QCURVE SMOOTH",
"460 244 OFFCURVE",
"469 120 OFFCURVE",
"495 -9 OFFCURVE",
"542 -140 OFFCURVE",
"580 -200 QCURVE",
"580 -202 LINE",
"573 -227 OFFCURVE",
"536 -257 OFFCURVE",
"513 -257 QCURVE SMOOTH",
"486 -257 OFFCURVE",
"464 -223 OFFCURVE",
"459 -201 QCURVE",
"448 -162 OFFCURVE",
"429 -59 OFFCURVE",
"418 56 OFFCURVE",
"411 175 OFFCURVE",
"411 230 QCURVE SMOOTH",
"411 301 OFFCURVE",
"420 439 OFFCURVE",
"442 574 OFFCURVE",
"477 703 OFFCURVE",
"507 768 QCURVE",
"458 768 LINE",
"409 658 OFFCURVE",
"362 402 OFFCURVE",
"362 244 QCURVE SMOOTH",
"362 226 OFFCURVE",
"363 187 OFFCURVE",
"363 167 QCURVE"
);
}
);
width = 736;
}
);
unicode = 00B6;
},
{
glyphname = onequarter;
layers = (
{
layerId = "445A555C-B070-40FB-B385-62320451654E";
paths = (
{
closed = 1;
nodes = (
"77 721 LINE",
"191 737 LINE",
"191 429 LINE SMOOTH",
"191 403 OFFCURVE",
"187 369 OFFCURVE",
"165 350 OFFCURVE",
"123 342 OFFCURVE",
"86 341 QCURVE",
"88 315 LINE",
"105 315 OFFCURVE",
"175 316 OFFCURVE",
"231 316 QCURVE SMOOTH",
"260 316 OFFCURVE",
"302 315 OFFCURVE",
"319 315 QCURVE SMOOTH",
"335 315 OFFCURVE",
"359 315 OFFCURVE",
"367 315 QCURVE",
"369 342 LINE",
"334 343 OFFCURVE",
"297 351 OFFCURVE",
"278 364 OFFCURVE",
"274 385 OFFCURVE",
"274 399 QCURVE SMOOTH",
"274 689 LINE SMOOTH",
"274 697 OFFCURVE",
"275 728 OFFCURVE",
"275 762 OFFCURVE",
"278 796 OFFCURVE",
"279 812 QCURVE",
"274 816 LINE",
"223 799 OFFCURVE",
"123 768 OFFCURVE",
"69 755 QCURVE"
);
},
{
closed = 1;
nodes = (
"772 847 LINE",
"231 -18 LINE",
"271 -45 LINE",
"816 821 LINE"
);
},
{
closed = 1;
nodes = (
"779 58 LINE",
"779 33 LINE SMOOTH",
"779 25 OFFCURVE",
"778 2 OFFCURVE",
"777 -13 QCURVE",
"802 -11 OFFCURVE",
"840 -9 OFFCURVE",
"860 -9 QCURVE",
"860 95 LINE",
"933 95 LINE",
"936 145 LINE",
"928 152 LINE",
"860 152 LINE",
"860 387 LINE SMOOTH",
"860 418 OFFCURVE",
"865 470 OFFCURVE",
"868 495 QCURVE",
"833 504 LINE",
"803 464 OFFCURVE",
"729 369 OFFCURVE",
"651 267 OFFCURVE",
"574 165 OFFCURVE",
"539 122 QCURVE",
"550 95 LINE",
"779 95 LINE"
);
},
{
closed = 1;
nodes = (
"779 151 LINE",
"613 147 LINE",
"656 208 OFFCURVE",
"733 313 OFFCURVE",
"776 366 QCURVE",
"779 365 LINE"
);
}
);
width = 1046;
}
);
unicode = 00BC;
},
{
glyphname = onehalf;
layers = (
{
layerId = "445A555C-B070-40FB-B385-62320451654E";
paths = (
{
closed = 1;
nodes = (
"77 721 LINE",
"191 737 LINE",
"191 429 LINE SMOOTH",
"191 403 OFFCURVE",
"187 369 OFFCURVE",
"165 350 OFFCURVE",
"123 342 OFFCURVE",
"86 341 QCURVE",
"88 315 LINE",
"105 315 OFFCURVE",
"175 316 OFFCURVE",
"231 316 QCURVE SMOOTH",
"260 316 OFFCURVE",
"302 315 OFFCURVE",
"319 315 QCURVE SMOOTH",
"335 315 OFFCURVE",
"359 315 OFFCURVE",
"367 315 QCURVE",
"369 342 LINE",
"334 343 OFFCURVE",
"297 351 OFFCURVE",
"278 364 OFFCURVE",
"274 385 OFFCURVE",
"274 399 QCURVE SMOOTH",
"274 689 LINE SMOOTH",
"274 697 OFFCURVE",
"275 728 OFFCURVE",
"275 762 OFFCURVE",
"278 796 OFFCURVE",
"279 812 QCURVE",
"274 816 LINE",
"223 799 OFFCURVE",
"123 768 OFFCURVE",
"69 755 QCURVE"
);
},
{
closed = 1;
nodes = (
"772 847 LINE",
"231 -18 LINE",
"271 -45 LINE",
"816 821 LINE"
);
},
{
closed = 1;
nodes = (
"701 350 LINE",
"704 398 OFFCURVE",
"732 422 QCURVE",
"745 436 OFFCURVE",
"783 447 OFFCURVE",
"823 446 OFFCURVE",
"860 431 OFFCURVE",
"889 407 OFFCURVE",
"901 372 OFFCURVE",
"901 352 QCURVE SMOOTH",
"901 333 OFFCURVE",
"892 296 OFFCURVE",
"884 280 QCURVE SMOOTH",
"868 249 OFFCURVE",
"809 186 OFFCURVE",
"773 152 QCURVE SMOOTH",
"636 22 LINE",
"641 4 LINE",
"649 4 OFFCURVE",
"681 5 OFFCURVE",
"700 5 QCURVE SMOOTH",
"718 5 OFFCURVE",
"755 7 OFFCURVE",
"767 7 QCURVE SMOOTH",
"782 7 OFFCURVE",
"814 5 OFFCURVE",
"838 5 QCURVE SMOOTH",
"862 5 OFFCURVE",
"934 4 OFFCURVE",
"992 4 QCURVE",
"992 15 OFFCURVE",
"997 46 OFFCURVE",
"1005 79 OFFCURVE",
"1014 112 OFFCURVE",
"1018 127 QCURVE",
"992 134 LINE",
"982 113 OFFCURVE",
"966 90 OFFCURVE",
"949 77 OFFCURVE",
"933 73 OFFCURVE",
"922 73 QCURVE",
"744 69 LINE",
"856 169 LINE",
"880 193 OFFCURVE",
"927 235 OFFCURVE",
"966 284 OFFCURVE",
"991 339 OFFCURVE",
"991 373 QCURVE SMOOTH",
"991 407 OFFCURVE",
"958 460 OFFCURVE",
"906 494 OFFCURVE",
"843 512 OFFCURVE",
"813 512 QCURVE SMOOTH",
"772 512 OFFCURVE",
"696 486 OFFCURVE",
"667 464 QCURVE",
"669 438 OFFCURVE",
"670 385 OFFCURVE",
"670 351 QCURVE"
);
}
);
width = 1046;
}
);
unicode = 00BD;
},
{
glyphname = Eth;
layers = (
{
layerId = "445A555C-B070-40FB-B385-62320451654E";
paths = (
{
closed = 1;
nodes = (
"44 362 LINE",
"141 362 LINE",
"141 123 LINE SMOOTH",
"141 94 OFFCURVE",
"134 58 OFFCURVE",
"113 38 OFFCURVE",
"73 28 OFFCURVE",
"41 26 QCURVE",
"43 0 LINE",
"55 0 OFFCURVE",
"87 1 OFFCURVE",
"105 1 QCURVE SMOOTH",
"122 1 OFFCURVE",
"157 2 OFFCURVE",
"172 2 QCURVE SMOOTH",
"211 2 OFFCURVE",
"299 -8 OFFCURVE",
"338 -8 QCURVE SMOOTH",
"426 -8 OFFCURVE",
"583 46 OFFCURVE",
"702 150 OFFCURVE",
"772 300 OFFCURVE",
"772 398 QCURVE SMOOTH",
"772 492 OFFCURVE",
"701 622 OFFCURVE",
"583 702 OFFCURVE",
"431 738 OFFCURVE",
"349 738 QCURVE SMOOTH",
"310 738 OFFCURVE",
"224 730 OFFCURVE",
"185 730 QCURVE SMOOTH",
"146 730 OFFCURVE",
"68 731 OFFCURVE",
"40 731 QCURVE",
"39 703 LINE",
"74 702 OFFCURVE",
"114 695 OFFCURVE",
"134 679 OFFCURVE",
"141 654 OFFCURVE",
"141 633 QCURVE SMOOTH",
"141 406 LINE",
"41 406 LINE"
);
},
{
closed = 1;
nodes = (
"229 662 LINE SMOOTH",
"229 670 OFFCURVE",
"246 682 OFFCURVE",
"277 692 OFFCURVE",
"318 698 OFFCURVE",
"342 698 QCURVE SMOOTH",
"412 698 OFFCURVE",
"530 657 OFFCURVE",
"618 575 OFFCURVE",
"667 454 OFFCURVE",
"667 374 QCURVE SMOOTH",
"667 294 OFFCURVE",
"619 168 OFFCURVE",
"532 80 OFFCURVE",
"411 34 OFFCURVE",
"338 34 QCURVE SMOOTH",
"297 34 OFFCURVE",
"252 49 OFFCURVE",
"232 76 OFFCURVE",
"229 114 OFFCURVE",
"229 135 QCURVE SMOOTH",
"229 362 LINE",
"450 362 LINE",
"453 406 LINE",
"229 406 LINE"
);
}
);
width = 822;
}
);
unicode = 00D0;
},
{
glyphname = multiply;
layers = (
{
layerId = "445A555C-B070-40FB-B385-62320451654E";
paths = (
{
closed = 1;
nodes = (
"367 578 LINE",
"113 834 LINE",
"197 918 LINE",
"450 663 LINE",
"708 918 LINE",
"791 835 LINE",
"534 578 LINE",
"790 322 LINE",
"708 241 LINE",
"450 494 LINE",
"197 242 LINE",
"114 325 LINE"
);
}
);
width = 922;
}
);
unicode = 00D7;
},
{
glyphname = divide;
layers = (
{
layerId = "445A555C-B070-40FB-B385-62320451654E";
paths = (
{
closed = 1;
nodes = (
"82 518 LINE",
"82 638 LINE",
"821 638 LINE",
"821 518 LINE"
);
},
{
closed = 1;
nodes = (
"359 326 OFFCURVE",
"374 364 OFFCURVE",
"398 388 OFFCURVE",
"431 398 OFFCURVE",
"450 398 QCURVE SMOOTH",
"469 398 OFFCURVE",
"502 388 OFFCURVE",
"528 364 OFFCURVE",
"542 326 OFFCURVE",
"542 298 QCURVE SMOOTH",
"542 272 OFFCURVE",
"528 234 OFFCURVE",
"502 210 OFFCURVE",
"469 198 OFFCURVE",
"450 198 QCURVE SMOOTH",
"431 198 OFFCURVE",
"398 210 OFFCURVE",
"374 234 OFFCURVE",
"359 272 OFFCURVE",
"359 298 QCURVE SMOOTH"
);
},
{
closed = 1;
nodes = (
"359 885 OFFCURVE",
"374 922 OFFCURVE",
"398 946 OFFCURVE",
"431 957 OFFCURVE",
"450 957 QCURVE SMOOTH",
"469 957 OFFCURVE",
"502 946 OFFCURVE",
"528 922 OFFCURVE",
"542 885 OFFCURVE",
"542 857 QCURVE SMOOTH",
"542 830 OFFCURVE",
"528 793 OFFCURVE",
"502 768 OFFCURVE",
"469 757 OFFCURVE",
"450 757 QCURVE SMOOTH",
"431 757 OFFCURVE",
"398 768 OFFCURVE",
"374 793 OFFCURVE",
"359 830 OFFCURVE",
"359 857 QCURVE SMOOTH"
);
}
);
width = 910;
}
);
unicode = 00F7;
},
{
glyphname = tilde;
layers = (
{
layerId = "445A555C-B070-40FB-B385-62320451654E";
paths = (
{
closed = 1;
nodes = (
"729 1312 LINE",
"729 1230 OFFCURVE",
"625 1115 OFFCURVE",
"546 1115 QCURVE SMOOTH",
"484 1115 OFFCURVE",
"348 1197 OFFCURVE",
"302 1197 QCURVE SMOOTH",
"265 1197 OFFCURVE",
"213 1140 OFFCURVE",
"213 1099 QCURVE",
"119 1122 LINE",
"119 1203 OFFCURVE",
"222 1324 OFFCURVE",
"302 1324 QCURVE SMOOTH",
"352 1324 OFFCURVE",
"499 1242 OFFCURVE",
"546 1242 QCURVE SMOOTH",
"583 1242 OFFCURVE",
"635 1299 OFFCURVE",
"635 1340 QCURVE"
);
}
);
width = 861;
}
);
unicode = 02DC;
},
{
glyphname = hungarumlaut;
layers = (
{
layerId = "445A555C-B070-40FB-B385-62320451654E";
paths = (
{
closed = 1;
nodes = (
"226 621 LINE",
"229 616 LINE",
"258 610 LINE",
"401 843 LINE",
"396 854 LINE",
"305 862 LINE"
);
},
{
closed = 1;
nodes = (
"398 617 LINE",
"401 611 LINE",
"429 605 LINE",
"572 838 LINE",
"567 849 LINE",
"477 857 LINE"
);
}
);
width = 666;
}
);
unicode = 02DD;
},
{
glyphname = dotbelowcomb;
layers = (
{
layerId = "445A555C-B070-40FB-B385-62320451654E";
paths = (
{
closed = 1;
nodes = (
"266 -119 OFFCURVE",
"266 -179 OFFCURVE",
"303 -216 OFFCURVE",
"333 -216 QCURVE SMOOTH",
"363 -216 OFFCURVE",
"402 -179 OFFCURVE",
"402 -119 OFFCURVE",
"364 -82 OFFCURVE",
"333 -82 QCURVE SMOOTH",
"303 -82 OFFCURVE",
"284.5 -100.5 QCURVE SMOOTH"
);
}
);
width = 666;
}
);
unicode = 0323;
},
{
glyphname = uni0326;
layers = (
{
layerId = "445A555C-B070-40FB-B385-62320451654E";
paths = (
{
closed = 1;
nodes = (
"281 -335 LINE",
"310 -325 OFFCURVE",
"360 -291 OFFCURVE",
"398 -248 OFFCURVE",
"421 -196 OFFCURVE",
"421 -167 QCURVE SMOOTH",
"421 -150 OFFCURVE",
"407 -112 OFFCURVE",
"382 -82 OFFCURVE",
"345 -63 OFFCURVE",
"324 -63 QCURVE SMOOTH",
"301 -63 OFFCURVE",
"266 -91 OFFCURVE",
"266 -116 QCURVE SMOOTH",
"266 -125 OFFCURVE",
"274 -144 OFFCURVE",
"282 -149 QCURVE",
"315 -152 OFFCURVE",
"347 -186 OFFCURVE",
"347 -207 QCURVE SMOOTH",
"347 -234 OFFCURVE",
"304 -289 OFFCURVE",
"266 -302 QCURVE"
);
}
);
width = 666;
}
);
unicode = 0326;
},
{
glyphname = uni060C;
layers = (
{
layerId = "445A555C-B070-40FB-B385-62320451654E";
paths = (
{
closed = 1;
nodes = (
"430 719 LINE",
"443 719 LINE",
"446 715 LINE",
"447 711 OFFCURVE",
"447 703 QCURVE",
"446 701 LINE",
"446 696 LINE",
"444 691 OFFCURVE",
"443 682 QCURVE",
"442 680 LINE",
"437 664 LINE",
"434 658 OFFCURVE",
"429 651 QCURVE",
"423 638 LINE",
"419 634 OFFCURVE",
"416 626 QCURVE",
"414 625 LINE",
"412 620 OFFCURVE",
"407 615 QCURVE",
"406 613 LINE",
"403 609 OFFCURVE",
"400 601 QCURVE",
"398 601 LINE",
"395 596 OFFCURVE",
"390 588 QCURVE",
"387 585 OFFCURVE",
"384 579 QCURVE",
"382 577 LINE",
"379 572 OFFCURVE",
"373 564 QCURVE SMOOTH",
"364 552 LINE SMOOTH",
"361 548 OFFCURVE",
"358 542 QCURVE",
"356 541 LINE",
"353 536 OFFCURVE",
"348 528 QCURVE",
"344 524 OFFCURVE",
"341 518 QCURVE SMOOTH",
"340 516 LINE",
"337 512 OFFCURVE",
"333 504 QCURVE",
"331 503 LINE",
"329 498 OFFCURVE",
"325 493 QCURVE",
"324 491 LINE",
"320 485 LINE",
"316 479 LINE",
"307 466 LINE SMOOTH",
"305 463 OFFCURVE",
"303 459 QCURVE SMOOTH",
"302 457 LINE",
"300 454 LINE",
"297 449 OFFCURVE",
"293 443 QCURVE",
"292 441 LINE",
"288 436 OFFCURVE",
"284 428 QCURVE",
"281 424 OFFCURVE",
"278 418 QCURVE",
"276 416 LINE",
"273 410 OFFCURVE",
"268 403 QCURVE",
"266 398 OFFCURVE",
"263 392 QCURVE",
"262 389 LINE",
"254 376 LINE",
"252 372 OFFCURVE",
"249 364 QCURVE",
"247 363 LINE",
"244 358 OFFCURVE",
"242 348 QCURVE",
"239 342 OFFCURVE",
"235 334 QCURVE",
"233 328 OFFCURVE",
"229 320 QCURVE",
"226 313 OFFCURVE",
"225 304 QCURVE",
"223 297 OFFCURVE",
"223 288 QCURVE",
"222 286 LINE",
"222 279 LINE",
"221 277 LINE",
"221 256 LINE",
"222 249 LINE",
"222 247 LINE",
"223 242 OFFCURVE",
"223 237 QCURVE",
"225 232 LINE",
"225 229 LINE",
"229 214 LINE",
"231 209 OFFCURVE",
"235 203 QCURVE",
"236 201 LINE SMOOTH",
"239 195 OFFCURVE",
"246 189 QCURVE",
"249 185 OFFCURVE",
"254 181 QCURVE",
"256 179 LINE",
"262 175 OFFCURVE",
"269 172 QCURVE",
"274 168 OFFCURVE",
"284 167 QCURVE",
"292 165 OFFCURVE",
"302 164 QCURVE",
"322 164 LINE SMOOTH",
"330 164 OFFCURVE",
"340 167 QCURVE",
"347 167 OFFCURVE",
"356 170 QCURVE",
"363 171 OFFCURVE",
"372 175 QCURVE SMOOTH",
"386 181 LINE",
"392 183 OFFCURVE",
"398 187 QCURVE",
"401 187 LINE",
"407 189 OFFCURVE",
"414 194 QCURVE",
"419 196 OFFCURVE",
"424 201 QCURVE",
"427 202 LINE",
"432 204 OFFCURVE",
"436 207 QCURVE",
"440 209 LINE SMOOTH",
"444 211 OFFCURVE",
"449 216 QCURVE",
"452 217 LINE",
"458 221 LINE",
"457 214 LINE",
"457 212 LINE",
"456 210 LINE",
"455 202 OFFCURVE",
"451 194 QCURVE",
"450 187 OFFCURVE",
"446 179 QCURVE",
"444 172 OFFCURVE",
"442 164 QCURVE",
"437 151 LINE",
"436 148 LINE SMOOTH",
"434 142 OFFCURVE",
"429 134 QCURVE SMOOTH",
"426 129 OFFCURVE",
"423 120 QCURVE",
"420 116 OFFCURVE",
"419 110 QCURVE",
"417 109 LINE",
"416 108 LINE",
"414 102 OFFCURVE",
"408 94 QCURVE",
"406 89 OFFCURVE",
"402 84 QCURVE",
"401 82 LINE",
"392 69 LINE",
"389 64 OFFCURVE",
"383 58 QCURVE SMOOTH",
"379 54 OFFCURVE",
"375 49 QCURVE",
"373 48 LINE",
"370 45 OFFCURVE",
"366 40 QCURVE",
"364 39 LINE",
"363 37 LINE",
"357 33 OFFCURVE",
"352 28 QCURVE",
"347 26 OFFCURVE",
"342 21 QCURVE",
"340 20 LINE",
"335 17 OFFCURVE",
"326 12 QCURVE",
"321 10 OFFCURVE",
"315 7 QCURVE",
"312 7 LINE",
"300 2 LINE",
"297 2 LINE",
"297 1 LINE",
"293 1 OFFCURVE",
"287 0 QCURVE",
"257 0 LINE SMOOTH",
"249 0 OFFCURVE",
"239 3 QCURVE SMOOTH",
"232 5 OFFCURVE",
"224 9 QCURVE",
"218 11 OFFCURVE",
"211 16 QCURVE",
"205 19 OFFCURVE",
"200 25 QCURVE",
"195 29 OFFCURVE",
"188 34 QCURVE",
"185 38 OFFCURVE",
"182 44 QCURVE",
"180 46 LINE",
"172 56 LINE",
"171 58 LINE",
"169 63 OFFCURVE",
"166 69 QCURVE",
"165 72 LINE",
"162 77 OFFCURVE",
"159 87 QCURVE",
"157 93 OFFCURVE",
"155 100 QCURVE",
"154 103 LINE",
"153 110 OFFCURVE",
"151 120 QCURVE",
"150 126 LINE",
"150 187 LINE",
"151 198 LINE",
"152 200 LINE",
"152 207 OFFCURVE",
"154 215 QCURVE",
"154 218 LINE",
"155 225 OFFCURVE",
"158 234 QCURVE",
"158 242 OFFCURVE",
"162 251 QCURVE",
"163 257 OFFCURVE",
"165 266 QCURVE",
"166 267 LINE",
"169 282 LINE",
"170 284 LINE",
"171 292 OFFCURVE",
"175 300 QCURVE",
"177 307 OFFCURVE",
"180 315 QCURVE",
"182 322 OFFCURVE",
"186 330 QCURVE",
"190 345 LINE",
"193 351 OFFCURVE",
"196 360 QCURVE SMOOTH",
"198 366 OFFCURVE",
"203 374 QCURVE",
"205 380 OFFCURVE",
"208 388 QCURVE SMOOTH",
"210 393 OFFCURVE",
"214 400 QCURVE",
"215 403 LINE",
"217 407 OFFCURVE",
"220 414 QCURVE",
"222 416 LINE",
"224 423 OFFCURVE",
"228 430 QCURVE",
"230 434 OFFCURVE",
"233 442 QCURVE",
"235 443 LINE",
"237 448 OFFCURVE",
"241 455 QCURVE",
"242 458 LINE",
"245 464 OFFCURVE",
"249 471 QCURVE",
"251 476 OFFCURVE",
"255 482 QCURVE",
"256 484 LINE",
"259 488 OFFCURVE",
"262 496 QCURVE",
"264 497 LINE",
"266 503 OFFCURVE",
"271 510 QCURVE",
"274 516 OFFCURVE",
"279 523 QCURVE",
"281 529 OFFCURVE",
"286 536 QCURVE",
"288 542 OFFCURVE",
"294 548 QCURVE",
"297 554 OFFCURVE",
"302 561 QCURVE SMOOTH",
"305 565 OFFCURVE",
"308 573 QCURVE",
"310 574 LINE",
"312 579 OFFCURVE",
"317 584 QCURVE",
"318 586 LINE",
"321 590 OFFCURVE",
"325 598 QCURVE",
"326 599 LINE",
"329 604 OFFCURVE",
"334 611 QCURVE SMOOTH",
"343 623 LINE",
"347 628 OFFCURVE",
"350 636 QCURVE",
"354 640 OFFCURVE",
"360 647 QCURVE",
"363 651 OFFCURVE",
"366 657 QCURVE",
"367 657 OFFCURVE",
"368 659 QCURVE",
"372 663 OFFCURVE",
"376 668 QCURVE",
"378 669 LINE",
"381 673 OFFCURVE",
"385 679 QCURVE",
"387 680 LINE",
"391 684 OFFCURVE",
"395 690 QCURVE",
"397 691 LINE",
"400 694 OFFCURVE",
"404 699 QCURVE",
"405 699 LINE",
"407 701 LINE",
"412 707 OFFCURVE",
"419 711 QCURVE",
"423 715 OFFCURVE",
"428 718 QCURVE"
);
}
);
width = 606;
}
);
unicode = 060C;
},
{
glyphname = uni061F;
layers = (
{
layerId = "445A555C-B070-40FB-B385-62320451654E";
paths = (
{
closed = 1;
nodes = (
"482 1356 LINE",
"541 1356 LINE",
"570 1353 LINE",
"572 1352 LINE",
"575 1352 LINE",
"581 1351 OFFCURVE",
"590 1350 QCURVE",
"592 1349 LINE",
"598 1347 OFFCURVE",
"608 1347 QCURVE",
"615 1345 OFFCURVE",
"623 1343 QCURVE",
"628 1341 OFFCURVE",
"637 1339 QCURVE",
"639 1338 LINE",
"644 1337 OFFCURVE",
"650 1334 QCURVE",
"653 1333 LINE",
"660 1331 OFFCURVE",
"668 1329 QCURVE",
"673 1328 OFFCURVE",
"679 1324 QCURVE",
"682 1324 LINE",
"696 1317 LINE",
"702 1315 OFFCURVE",
"708 1310 QCURVE",
"715 1307 OFFCURVE",
"719 1302 QCURVE",
"724 1298 OFFCURVE",
"727 1291 QCURVE",
"730 1286 OFFCURVE",
"733 1277 QCURVE",
"734 1269 OFFCURVE",
"734 1258 QCURVE",
"733 1253 OFFCURVE",
"733 1248 QCURVE",
"729 1225 LINE",
"727 1219 OFFCURVE",
"726 1211 QCURVE",
"720 1194 LINE",
"718 1189 OFFCURVE",
"715 1180 QCURVE",
"712 1175 OFFCURVE",
"708 1168 QCURVE",
"706 1163 OFFCURVE",
"700 1156 QCURVE",
"697 1151 OFFCURVE",
"693 1144 QCURVE",
"689 1140 OFFCURVE",
"685 1134 QCURVE",
"683 1133 LINE",
"680 1128 OFFCURVE",
"675 1124 QCURVE",
"672 1121 OFFCURVE",
"668 1116 QCURVE",
"666 1115 LINE",
"665 1113 LINE",
"662 1111 OFFCURVE",
"659 1108 QCURVE",
"657 1107 LINE",
"655 1105 LINE",
"650 1101 LINE",
"647 1110 LINE SMOOTH",
"645 1116 OFFCURVE",
"640 1122 QCURVE",
"638 1128 OFFCURVE",
"634 1134 QCURVE",
"631 1137 OFFCURVE",
"626 1143 QCURVE",
"624 1145 LINE SMOOTH",
"621 1148 OFFCURVE",
"617 1152 QCURVE",
"616 1153 LINE",
"614 1154 LINE",
"603 1162 LINE",
"598 1165 OFFCURVE",
"593 1169 QCURVE",
"581 1174 LINE",
"578 1175 LINE",
"573 1177 OFFCURVE",
"566 1180 QCURVE",
"563 1181 LINE",
"556 1183 OFFCURVE",
"548 1185 QCURVE",
"541 1188 OFFCURVE",
"533 1189 QCURVE",
"526 1192 OFFCURVE",
"516 1191 QCURVE",
"509 1193 OFFCURVE",
"501 1193 QCURVE",
"499 1193 LINE",
"482 1195 LINE",
"448 1195 LINE",
"448 1194 LINE",
"433 1194 LINE",
"433 1193 LINE",
"425 1193 LINE",
"418 1192 OFFCURVE",
"408 1191 QCURVE SMOOTH",
"391 1189 LINE SMOOTH",
"384 1188 OFFCURVE",
"375 1186 QCURVE SMOOTH",
"362 1183 LINE",
"359 1182 LINE",
"352 1181 OFFCURVE",
"344 1178 QCURVE",
"338 1177 OFFCURVE",
"331 1174 QCURVE",
"328 1174 LINE",
"322 1173 OFFCURVE",
"316 1170 QCURVE",
"313 1170 LINE",
"309 1169 OFFCURVE",
"305 1166 QCURVE",
"303 1166 LINE",
"303 1165 LINE",
"300 1165 LINE",
"300 1164 LINE",
"294 1163 OFFCURVE",
"286 1159 QCURVE SMOOTH",
"282 1157 OFFCURVE",
"274 1154 QCURVE",
"259 1147 LINE",
"253 1145 OFFCURVE",
"246 1140 QCURVE",
"233 1133 LINE",
"228 1130 OFFCURVE",
"222 1126 QCURVE",
"216 1123 OFFCURVE",
"210 1118 QCURVE",
"205 1116 OFFCURVE",
"201 1111 QCURVE",
"199 1110 LINE",
"189 1101 LINE",
"186 1098 OFFCURVE",
"183 1093 QCURVE",
"181 1093 LINE",
"180 1091 LINE",
"176 1087 OFFCURVE",
"170 1080 QCURVE",
"167 1074 LINE",
"165 1071 OFFCURVE",
"164 1068 QCURVE",
"160 1063 OFFCURVE",
"157 1055 QCURVE",
"153 1049 OFFCURVE",
"152 1041 QCURVE",
"149 1034 OFFCURVE",
"149 1024 QCURVE",
"148 1021 OFFCURVE",
"148 1016 QCURVE SMOOTH",
"148 1006 LINE SMOOTH",
"148 999 OFFCURVE",
"151 990 QCURVE",
"152 983 OFFCURVE",
"155 974 QCURVE",
"156 968 OFFCURVE",
"161 960 QCURVE",
"163 953 OFFCURVE",
"167 947 QCURVE",
"170 942 OFFCURVE",
"173 935 QCURVE",
"176 930 OFFCURVE",
"181 925 QCURVE",
"181 923 LINE",
"182 923 LINE",
"189 912 LINE SMOOTH",
"193 906 OFFCURVE",
"199 901 QCURVE",
"202 896 OFFCURVE",
"207 891 QCURVE",
"210 887 OFFCURVE",
"215 882 QCURVE SMOOTH",
"217 880 LINE SMOOTH",
"221 876 OFFCURVE",
"226 871 QCURVE",
"230 868 OFFCURVE",
"236 863 QCURVE",
"237 861 LINE",
"242 858 OFFCURVE",
"247 853 QCURVE",
"252 849 OFFCURVE",
"259 845 QCURVE",
"263 842 OFFCURVE",
"267 838 QCURVE",
"269 837 LINE",
"274 835 OFFCURVE",
"280 830 QCURVE",
"294 822 LINE",
"298 820 OFFCURVE",
"302 817 QCURVE",
"304 817 LINE",
"306 816 LINE SMOOTH",
"312 813 OFFCURVE",
"321 810 QCURVE",
"331 804 LINE",
"334 803 LINE SMOOTH",
"340 801 OFFCURVE",
"347 798 QCURVE",
"353 796 OFFCURVE",
"363 794 QCURVE",
"369 792 OFFCURVE",
"378 790 QCURVE",
"393 786 LINE",
"400 785 OFFCURVE",
"409 783 QCURVE",
"424 781 LINE",
"427 781 LINE",
"444 779 LINE",
"483 779 LINE",
"502 780 LINE",
"517 782 LINE",
"520 782 LINE",
"527 783 OFFCURVE",
"536 785 QCURVE",
"543 786 OFFCURVE",
"552 788 QCURVE",
"559 789 OFFCURVE",
"568 792 QCURVE",
"575 793 OFFCURVE",
"583 796 QCURVE",
"613 805 LINE",
"619 807 OFFCURVE",
"626 811 QCURVE",
"632 812 OFFCURVE",
"640 816 QCURVE",
"645 819 OFFCURVE",
"652 820 QCURVE",
"654 821 LINE",
"658 824 OFFCURVE",
"665 827 QCURVE",
"667 828 LINE",
"673 830 OFFCURVE",
"679 835 QCURVE",
"685 837 OFFCURVE",
"693 841 QCURVE",
"694 838 OFFCURVE",
"694 834 QCURVE",
"694 832 LINE",
"693 827 LINE",
"693 810 LINE",
"692 808 LINE",
"692 731 LINE",
"693 729 LINE",
"693 712 LINE",
"694 710 LINE",
"694 697 LINE",
"695 697 LINE",
"695 685 LINE",
"696 684 LINE",
"696 677 LINE",
"697 674 LINE",
"697 668 OFFCURVE",
"698 660 QCURVE",
"698 659 LINE",
"699 659 LINE",
"699 657 LINE",
"699 652 OFFCURVE",
"699 646 QCURVE",
"703 623 LINE",
"704 616 OFFCURVE",
"706 606 QCURVE",
"708 600 OFFCURVE",
"709 590 QCURVE",
"711 583 OFFCURVE",
"713 575 QCURVE",
"715 568 OFFCURVE",
"717 559 QCURVE",
"719 552 LINE",
"721 544 LINE",
"721 540 OFFCURVE",
"724 536 QCURVE",
"725 529 LINE",
"726 524 OFFCURVE",
"730 518 QCURVE",
"730 515 LINE",
"731 510 OFFCURVE",
"735 503 QCURVE",
"735 501 LINE",
"736 501 LINE",
"740 486 LINE",
"742 482 OFFCURVE",
"743 478 QCURVE",
"739 473 LINE",
"736 470 OFFCURVE",
"733 463 QCURVE",
"731 462 LINE",
"729 457 OFFCURVE",
"723 450 QCURVE",
"720 445 OFFCURVE",
"716 439 QCURVE SMOOTH",
"708 427 LINE",
"704 422 OFFCURVE",
"700 415 QCURVE",
"696 411 OFFCURVE",
"692 404 QCURVE SMOOTH",
"689 399 OFFCURVE",
"684 392 QCURVE",
"680 387 OFFCURVE",
"677 381 QCURVE",
"674 378 OFFCURVE",
"670 371 QCURVE",
"668 369 LINE",
"665 364 OFFCURVE",
"660 358 QCURVE",
"657 353 OFFCURVE",
"653 346 QCURVE SMOOTH",
"650 341 OFFCURVE",
"645 335 QCURVE SMOOTH",
"641 330 OFFCURVE",
"638 323 QCURVE",
"633 328 OFFCURVE",
"630 335 QCURVE",
"627 340 OFFCURVE",
"624 349 QCURVE",
"622 353 OFFCURVE",
"620 361 QCURVE",
"619 363 LINE",
"614 377 LINE",
"613 383 OFFCURVE",
"609 389 QCURVE",
"609 392 LINE",
"606 399 LINE",
"597 438 LINE",
"595 445 OFFCURVE",
"594 454 QCURVE",
"592 461 OFFCURVE",
"591 470 QCURVE",
"589 476 OFFCURVE",
"588 486 QCURVE",
"585 503 LINE",
"584 519 LINE",
"583 521 LINE",
"582 536 LINE",
"582 539 LINE",
"581 554 LINE",
"580 585 LINE",
"579 592 LINE",
"579 647 LINE",
"576 646 LINE",
"569 643 LINE",
"565 642 OFFCURVE",
"561 640 QCURVE",
"547 636 LINE",
"542 635 OFFCURVE",
"536 631 QCURVE",
"533 631 LINE",
"527 629 OFFCURVE",
"518 626 QCURVE",
"511 624 OFFCURVE",
"502 622 QCURVE",
"496 621 OFFCURVE",
"487 619 QCURVE",
"480 619 OFFCURVE",
"471 616 QCURVE",
"456 614 LINE",
"453 614 LINE",
"446 613 OFFCURVE",
"436 612 QCURVE",
"398 611 LINE",
"381 613 LINE",
"374 613 OFFCURVE",
"364 614 QCURVE",
"363 615 LINE",
"356 615 OFFCURVE",
"347 617 QCURVE",
"345 618 LINE",
"338 618 OFFCURVE",
"330 620 QCURVE SMOOTH",
"314 624 LINE",
"300 629 LINE",
"293 630 OFFCURVE",
"286 635 QCURVE",
"271 640 LINE",
"259 646 LINE",
"253 648 OFFCURVE",
"246 653 QCURVE",
"241 656 OFFCURVE",
"233 660 QCURVE",
"228 664 OFFCURVE",
"222 667 QCURVE",
"219 670 OFFCURVE",
"212 674 QCURVE",
"210 676 LINE",
"205 679 OFFCURVE",
"200 684 QCURVE",
"195 687 OFFCURVE",
"189 693 QCURVE SMOOTH",
"185 697 OFFCURVE",
"180 700 QCURVE",
"179 702 LINE",
"175 706 OFFCURVE",
"169 712 QCURVE",
"164 715 OFFCURVE",
"162 720 QCURVE",
"160 722 LINE",
"155 726 OFFCURVE",
"151 733 QCURVE",
"147 736 OFFCURVE",
"145 741 QCURVE",
"143 743 LINE SMOOTH",
"139 747 OFFCURVE",
"135 755 QCURVE",
"132 758 OFFCURVE",
"129 762 QCURVE",
"128 764 LINE",
"127 766 LINE",
"120 778 LINE",
"117 782 OFFCURVE",
"114 790 QCURVE",
"107 804 LINE",
"105 809 OFFCURVE",
"102 816 QCURVE",
"101 818 LINE",
"100 822 OFFCURVE",
"97 827 QCURVE",
"97 829 LINE",
"96 829 LINE",
"96 832 LINE",
"95 832 LINE",
"94 839 OFFCURVE",
"90 846 QCURVE",
"89 853 OFFCURVE",
"87 862 QCURVE",
"83 877 LINE",
"80 895 LINE SMOOTH",
"79 902 OFFCURVE",
"78 912 QCURVE",
"77 919 OFFCURVE",
"76 929 QCURVE",
"76 981 LINE",
"81 1002 LINE",
"82 1009 OFFCURVE",
"85 1017 QCURVE",
"89 1034 LINE",
"98 1062 LINE",
"100 1067 OFFCURVE",
"102 1073 QCURVE",
"104 1075 LINE",
"106 1081 OFFCURVE",
"108 1088 QCURVE",
"109 1090 LINE",
"112 1095 OFFCURVE",
"115 1103 QCURVE",
"118 1108 OFFCURVE",
"122 1115 QCURVE SMOOTH",
"125 1120 OFFCURVE",
"128 1129 QCURVE",
"131 1134 OFFCURVE",
"136 1140 QCURVE",
"138 1146 OFFCURVE",
"144 1152 QCURVE",
"148 1158 LINE SMOOTH",
"150 1161 OFFCURVE",
"150 1165 QCURVE",
"154 1169 OFFCURVE",
"159 1175 QCURVE",
"162 1179 OFFCURVE",
"167 1185 QCURVE",
"167 1187 LINE",
"170 1191 OFFCURVE",
"174 1195 QCURVE SMOOTH",
"176 1197 LINE SMOOTH",
"180 1201 OFFCURVE",
"184 1207 QCURVE",
"186 1208 LINE",
"189 1213 OFFCURVE",
"194 1218 QCURVE",
"198 1223 OFFCURVE",
"205 1228 QCURVE",
"209 1232 OFFCURVE",
"214 1237 QCURVE SMOOTH",
"224 1247 LINE",
"227 1249 OFFCURVE",
"230 1252 QCURVE",
"232 1253 LINE",
"234 1255 LINE SMOOTH",
"239 1260 OFFCURVE",
"246 1264 QCURVE",
"249 1268 OFFCURVE",
"254 1270 QCURVE",
"256 1272 LINE",
"261 1275 OFFCURVE",
"267 1280 QCURVE",
"271 1284 OFFCURVE",
"279 1288 QCURVE",
"283 1291 OFFCURVE",
"289 1294 QCURVE SMOOTH",
"291 1295 LINE",
"296 1297 OFFCURVE",
"303 1303 QCURVE",
"309 1305 OFFCURVE",
"316 1310 QCURVE",
"320 1311 OFFCURVE",
"325 1313 QCURVE",
"326 1314 LINE",
"329 1315 LINE",
"333 1317 OFFCURVE",
"340 1321 QCURVE",
"343 1322 LINE",
"348 1323 OFFCURVE",
"353 1327 QCURVE",
"356 1327 LINE",
"361 1330 OFFCURVE",
"370 1332 QCURVE",
"376 1333 OFFCURVE",
"383 1337 QCURVE",
"385 1337 LINE",
"392 1340 LINE",
"400 1342 LINE",
"407 1343 OFFCURVE",
"415 1346 QCURVE",
"422 1348 OFFCURVE",
"432 1349 QCURVE",
"439 1351 OFFCURVE",
"448 1351 QCURVE",
"454 1353 OFFCURVE",
"461 1353 QCURVE",
"463 1353 LINE",
"464 1354 LINE",
"480 1355 LINE",
"482 1355 LINE"
);
},
{
closed = 1;
nodes = (
"671 235 OFFCURVE",
"675 230 QCURVE",
"679 228 OFFCURVE",
"683 224 QCURVE",
"686 222 OFFCURVE",
"691 217 QCURVE",
"699 210 LINE",
"702 207 OFFCURVE",
"707 204 QCURVE",
"710 200 OFFCURVE",
"716 197 QCURVE",
"719 194 OFFCURVE",
"723 189 QCURVE",
"727 186 OFFCURVE",
"731 183 QCURVE",
"735 181 OFFCURVE",
"739 176 QCURVE",
"742 174 OFFCURVE",
"747 169 QCURVE",
"756 163 LINE",
"759 160 OFFCURVE",
"763 156 QCURVE",
"766 152 OFFCURVE",
"772 149 QCURVE",
"775 146 OFFCURVE",
"779 142 QCURVE",
"783 139 OFFCURVE",
"787 135 QCURVE",
"791 133 OFFCURVE",
"796 128 QCURVE",
"801 126 OFFCURVE",
"801 121 QCURVE",
"799 117 OFFCURVE",
"795 112 QCURVE",
"792 108 OFFCURVE",
"789 104 QCURVE",
"786 101 OFFCURVE",
"782 96 QCURVE",
"780 93 OFFCURVE",
"777 89 QCURVE",
"776 88 LINE",
"774 85 OFFCURVE",
"770 81 QCURVE",
"769 79 LINE",
"766 75 OFFCURVE",
"763 70 QCURVE",
"759 67 OFFCURVE",
"757 63 QCURVE",
"754 59 OFFCURVE",
"750 54 QCURVE",
"747 50 OFFCURVE",
"743 46 QCURVE",
"740 42 OFFCURVE",
"737 38 QCURVE",
"735 34 OFFCURVE",
"730 30 QCURVE",
"728 26 OFFCURVE",
"723 21 QCURVE",
"718 12 LINE",
"716 9 OFFCURVE",
"711 5 QCURVE",
"708 0 LINE",
"703 3 LINE",
"699 5 OFFCURVE",
"695 10 QCURVE",
"691 12 OFFCURVE",
"686 16 QCURVE",
"682 18 OFFCURVE",
"678 23 QCURVE",
"674 26 OFFCURVE",
"669 29 QCURVE",
"666 33 OFFCURVE",
"661 35 QCURVE",
"657 38 OFFCURVE",
"653 42 QCURVE",
"649 45 OFFCURVE",
"645 49 QCURVE",
"641 51 OFFCURVE",
"637 55 QCURVE",
"633 57 OFFCURVE",
"628 62 QCURVE",
"624 64 OFFCURVE",
"620 69 QCURVE",
"611 74 LINE",
"609 77 OFFCURVE",
"605 79 QCURVE",
"603 81 LINE",
"600 83 OFFCURVE",
"597 87 QCURVE",
"595 88 LINE",
"592 90 OFFCURVE",
"588 93 QCURVE",
"586 94 LINE",
"582 97 OFFCURVE",
"578 100 QCURVE",
"575 104 OFFCURVE",
"570 107 QCURVE",
"567 109 OFFCURVE",
"564 112 QCURVE",
"567 114 LINE",
"569 118 OFFCURVE",
"574 123 QCURVE",
"577 127 OFFCURVE",
"581 130 QCURVE",
"583 134 OFFCURVE",
"587 139 QCURVE",
"590 143 OFFCURVE",
"593 148 QCURVE",
"596 151 OFFCURVE",
"601 155 QCURVE",
"604 159 OFFCURVE",
"606 164 QCURVE",
"614 171 LINE",
"616 175 OFFCURVE",
"620 180 QCURVE",
"623 184 OFFCURVE",
"626 188 QCURVE",
"629 191 OFFCURVE",
"634 196 QCURVE",
"637 200 OFFCURVE",
"640 205 QCURVE",
"647 212 LINE",
"653 221 LINE",
"657 224 OFFCURVE",
"660 228 QCURVE",
"663 231 OFFCURVE",
"666 237 QCURVE"
);
}
);
width = 853;
}
);
unicode = 061F;
},
{
glyphname = uni0621;
layers = (
{
anchors = (
{
name = t.uni064B;
position = "{186, 785}";
},
{
name = b.uni064D_1;
position = "{314, -257}";
}
);
layerId = "445A555C-B070-40FB-B385-62320451654E";
paths = (
{
closed = 1;
nodes = (
"126 351 LINE",
"173 481 OFFCURVE",
"320 509 QCURVE",
"339 509 LINE",
"342 509 LINE",
"345 509 LINE",
"348 509 LINE",
"353 509 LINE",
"356 509 LINE",
"360 508 OFFCURVE",
"365 508 QCURVE",
"368 507 LINE",
"372 507 LINE",
"479 477 OFFCURVE",
"443 362 QCURVE",
"435 366 OFFCURVE",
"423 369 QCURVE",
"421 370 LINE",
"416 371 OFFCURVE",
"410 373 QCURVE",
"402 375 OFFCURVE",
"390 376 QCURVE",
"388 377 LINE",
"384 377 LINE",
"382 378 LINE",
"292 382 OFFCURVE",
"201 333 QCURVE",
"196 332 OFFCURVE",
"191 328 QCURVE",
"185 325 LINE",
"182 325 LINE",
"181 323 LINE",
"172 321 OFFCURVE",
"164 313 QCURVE",
"160 312 OFFCURVE",
"156 309 QCURVE",
"151 307 LINE",
"155 297 OFFCURVE",
"165 288 QCURVE",
"168 282 LINE",
"170 280 LINE",
"175 275 LINE",
"177 272 OFFCURVE",
"180 268 QCURVE",
"182 266 LINE",
"189 256 OFFCURVE",
"202 246 QCURVE",
"207 239 LINE",
"210 236 LINE SMOOTH",
"213 233 OFFCURVE",
"218 230 QCURVE",
"220 227 LINE",
"223 226 LINE",
"226 224 LINE",
"233 215 OFFCURVE",
"244 208 QCURVE",
"249 202 OFFCURVE",
"257 198 QCURVE",
"262 192 OFFCURVE",
"271 187 QCURVE",
"276 181 OFFCURVE",
"285 178 QCURVE",
"289 174 LINE",
"292 172 LINE",
"295 171 LINE",
"297 169 LINE",
"300 168 LINE",
"306 163 OFFCURVE",
"314 159 QCURVE",
"318 156 OFFCURVE",
"324 154 QCURVE",
"326 152 LINE",
"331 148 LINE",
"333 148 LINE",
"340 144 OFFCURVE",
"348 141 QCURVE",
"376 158 LINE",
"379 160 LINE",
"382 161 LINE",
"384 163 LINE",
"387 165 OFFCURVE",
"392 167 QCURVE",
"394 168 LINE",
"401 172 LINE",
"402 172 OFFCURVE",
"403 174 QCURVE",
"415 180 LINE",
"420 183 LINE",
"425 185 OFFCURVE",
"428 188 QCURVE",
"429 188 OFFCURVE",
"430 189 QCURVE",
"431 189 OFFCURVE",
"432 190 QCURVE",
"439 193 LINE",
"441 194 LINE",
"443 196 LINE",
"447 198 LINE",
"452 200 OFFCURVE",
"458 205 QCURVE",
"461 206 LINE",
"463 207 LINE",
"483 217 LINE",
"485 219 LINE",
"489 220 OFFCURVE",
"492 222 QCURVE",
"496 223 OFFCURVE",
"500 226 QCURVE",
"505 227 LINE",
"510 230 LINE",
"515 232 LINE",
"520 235 LINE",
"529 237 OFFCURVE",
"538 244 QCURVE",
"542 244 OFFCURVE",
"546 247 QCURVE",
"547 247 OFFCURVE",
"549 248 QCURVE",
"552 249 LINE",
"558 251 LINE",
"560 252 LINE",
"562 253 LINE",
"565 255 LINE",
"569 257 LINE",
"571 257 OFFCURVE",
"574 259 QCURVE",
"580 261 LINE",
"583 263 LINE",
"593 265 OFFCURVE",
"605 270 QCURVE",
"607 270 OFFCURVE",
"608 269 QCURVE",
"600 254 LINE",
"599 251 LINE",
"595 246 LINE",
"594 243 LINE",
"592 240 LINE",
"591 237 LINE",
"589 235 LINE",
"588 231 LINE",
"582 225 OFFCURVE",
"580 216 QCURVE",
"578 215 LINE",
"577 213 LINE",
"574 207 LINE",
"570 203 OFFCURVE",
"568 197 QCURVE",
"567 197 OFFCURVE",
"566 195 QCURVE",
"564 192 LINE",
"563 189 LINE",
"560 186 OFFCURVE",
"559 183 QCURVE",
"555 178 OFFCURVE",
"551 170 QCURVE",
"547 166 LINE",
"545 164 LINE",
"544 161 LINE",
"542 159 LINE",
"539 153 LINE",
"535 148 OFFCURVE",
"530 141 QCURVE SMOOTH",
"527 137 LINE",
"523 133 OFFCURVE",
"520 127 QCURVE SMOOTH",
"519 125 LINE",
"497 116 LINE",
"495 114 LINE",
"494 114 OFFCURVE",
"492 113 QCURVE",
"488 112 LINE",
"485 110 LINE",
"482 109 LINE",
"471 104 LINE",
"467 103 LINE",
"464 101 LINE",
"460 99 LINE",
"457 97 LINE",
"454 95 LINE",
"448 94 OFFCURVE",
"442 89 QCURVE",
"435 87 OFFCURVE",
"428 83 QCURVE",
"422 80 LINE",
"420 79 LINE",
"416 76 LINE",
"407 73 OFFCURVE",
"398 67 QCURVE",
"395 66 LINE",
"392 65 LINE",
"388 62 OFFCURVE",
"383 59 QCURVE",
"381 57 LINE",
"375 55 OFFCURVE",
"367 50 QCURVE",
"364 48 LINE",
"359 46 LINE",
"355 43 LINE",
"348 41 OFFCURVE",
"343 35 QCURVE",
"336 32 LINE",
"334 31 LINE",
"332 30 LINE",
"329 29 LINE",
"327 27 LINE",
"326 27 OFFCURVE",
"325 25 QCURVE",
"322 24 LINE",
"319 21 LINE",
"317 21 OFFCURVE",
"316 19 QCURVE",
"312 17 LINE",
"308 15 LINE",
"305 12 LINE",
"295 8 OFFCURVE",
"290 3 QCURVE",
"287 2 LINE",
"285 0 LINE",
"282 -2 OFFCURVE",
"279 -5 QCURVE",
"272 -7 OFFCURVE",
"266 -13 QCURVE",
"259 -16 OFFCURVE",
"250 -23 QCURVE",
"247 -26 LINE",
"227 -38 LINE",
"226 -40 LINE",
"225 -40 OFFCURVE",
"224 -42 QCURVE",
"221 -43 LINE",
"218 -46 OFFCURVE",
"213 -49 QCURVE",
"211 -49 LINE",
"209 -52 LINE",
"207 -52 OFFCURVE",
"207 -54 QCURVE",
"203 -56 OFFCURVE",
"197 -60 QCURVE SMOOTH",
"194 -62 LINE",
"190 -65 LINE",
"187 -68 LINE",
"185 -70 LINE",
"181 -72 LINE",
"178 -75 LINE",
"172 -77 OFFCURVE",
"167 -84 QCURVE",
"161 -88 LINE",
"159 -89 LINE",
"158 -90 LINE",
"157 -90 OFFCURVE",
"156 -91 QCURVE",
"153 -93 OFFCURVE",
"150 -96 QCURVE",
"148 -96 OFFCURVE",
"148 -98 QCURVE",
"144 -100 LINE",
"142 -102 LINE",
"139 -105 LINE",
"134 -107 OFFCURVE",
"130 -111 QCURVE",
"127 -113 LINE",
"124 -116 LINE",
"120 -119 LINE",
"118 -120 OFFCURVE",
"116 -123 QCURVE",
"106 -128 OFFCURVE",
"96 -139 QCURVE",
"93 -140 LINE",
"91 -142 LINE",
"89 -144 LINE",
"88 -145 LINE",
"86 -148 LINE",
"83 -148 LINE",
"81 -150 LINE",
"78 -153 LINE",
"75 -156 LINE",
"71 -158 LINE",
"69 -161 LINE",
"66 -164 LINE",
"62 -167 LINE",
"47 -180 LINE",
"44 -182 LINE",
"43 -184 LINE",
"31 -194 OFFCURVE",
"13 -196 QCURVE",
"11 -191 OFFCURVE",
"11 -184 QCURVE",
"13 -180 OFFCURVE",
"16 -172 QCURVE",
"17 -170 LINE",
"19 -169 LINE",
"21 -165 OFFCURVE",
"24 -160 QCURVE",
"26 -157 LINE",
"27 -153 LINE",
"29 -151 LINE",
"30 -148 LINE",
"33 -142 OFFCURVE",
"38 -135 QCURVE",
"40 -132 LINE",
"41 -129 LINE",
"53 -111 LINE",
"55 -108 LINE",
"56 -107 LINE",
"59 -103 OFFCURVE",
"62 -97 QCURVE",
"64 -96 LINE",
"65 -93 LINE",
"67 -90 LINE",
"69 -89 LINE",
"71 -85 LINE",
"73 -83 LINE",
"75 -80 LINE",
"78 -76 LINE",
"81 -73 OFFCURVE",
"84 -69 QCURVE",
"86 -68 LINE",
"89 -63 LINE",
"94 -59 OFFCURVE",
"97 -53 QCURVE",
"109 -41 LINE",
"111 -37 LINE",
"118 -32 OFFCURVE",
"125 -24 QCURVE",
"129 -22 OFFCURVE",
"132 -18 QCURVE",
"134 -16 LINE",
"137 -12 LINE",
"140 -10 LINE",
"143 -9 LINE",
"145 -6 LINE",
"148 -4 LINE",
"150 -1 LINE",
"153 1 LINE",
"156 4 LINE",
"165 8 OFFCURVE",
"173 17 QCURVE",
"176 18 LINE",
"178 20 LINE",
"180 21 LINE SMOOTH",
"184 23 OFFCURVE",
"188 28 QCURVE",
"190 28 OFFCURVE",
"191 30 QCURVE",
"196 32 OFFCURVE",
"203 36 QCURVE",
"38 130 OFFCURVE",
"103 304 QCURVE",
"104 310 OFFCURVE",
"108 316 QCURVE",
"108 318 LINE",
"109 321 LINE",
"110 323 LINE",
"111 325 LINE",
"113 327 LINE",
"116 335 LINE",
"121 343 LINE",
"122 346 LINE",
"124 348 LINE"
);
}
);
width = 541;
}
);
unicode = 0621;
},
{
glyphname = uni0622;
layers = (
{
anchors = (
{
name = t.uni064B;
position = "{43, 1470}";
},
{
name = b.uni064D_1;
position = "{114, -228}";
}
);
layerId = "445A555C-B070-40FB-B385-62320451654E";
paths = (
{
closed = 1;
nodes = (
"423 1757 LINE",
"342 1668 OFFCURVE",
"223 1668 QCURVE SMOOTH",
"192 1668 OFFCURVE",
"69 1703 OFFCURVE",
"36 1703 QCURVE SMOOTH",
"7 1703 OFFCURVE",
"-30 1683 QCURVE",
"-44 1693 LINE",
"7 1781 OFFCURVE",
"58 1781 QCURVE SMOOTH",
"98 1781 OFFCURVE",
"254 1739 OFFCURVE",
"294 1739 QCURVE SMOOTH",
"335 1739 OFFCURVE",
"412 1768 QCURVE"
);
},
{
closed = 1;
nodes = (
"168 1464 LINE",
"167 1462 LINE",
"157 1448 LINE",
"153 1444 LINE",
"151 1442 LINE",
"150 1440 OFFCURVE",
"149 1440 QCURVE",
"148 1437 LINE",
"147 1434 LINE",
"145 1433 LINE",
"144 1430 LINE",
"137 1423 OFFCURVE",
"134 1418 QCURVE",
"130 1414 LINE",
"128 1409 LINE",
"125 1406 LINE",
"122 1402 LINE",
"119 1398 LINE",
"116 1395 LINE",
"113 1388 OFFCURVE",
"109 1386 QCURVE",
"108 1382 LINE",
"100 1373 LINE",
"98 1369 LINE",
"96 1367 LINE",
"93 1365 LINE",
"90 1359 OFFCURVE",
"88 1355 QCURVE",
"83 1350 LINE",
"82 1348 LINE",
"80 1347 LINE",
"79 1344 LINE",
"70 1335 OFFCURVE",
"67 1326 QCURVE",
"107 805 LINE",
"107 802 LINE",
"110 764 LINE",
"113 733 LINE",
"114 726 LINE",
"114 723 LINE SMOOTH",
"114 713 OFFCURVE",
"116 705 QCURVE",
"117 690 LINE",
"118 684 OFFCURVE",
"118 677 QCURVE",
"119 675 LINE",
"119 665 LINE",
"120 664 OFFCURVE",
"120 663 QCURVE",
"121 649 LINE",
"125 612 LINE",
"125 606 LINE",
"126 596 LINE",
"127 592 LINE",
"127 585 LINE",
"128 581 LINE",
"128 570 LINE SMOOTH",
"128 562 OFFCURVE",
"129 557 QCURVE",
"130 548 LINE",
"130 540 LINE",
"131 536 LINE",
"131 529 LINE",
"132 527 LINE",
"133 505 LINE",
"134 502 LINE",
"135 483 LINE",
"136 481 LINE",
"136 475 OFFCURVE",
"137 470 QCURVE",
"139 436 LINE",
"141 423 OFFCURVE",
"141 414 QCURVE",
"146 348 LINE SMOOTH",
"147 338 OFFCURVE",
"147 331 QCURVE",
"150 270 LINE",
"151 268 OFFCURVE",
"151 267 QCURVE",
"153 231 LINE",
"153 225 OFFCURVE",
"154 221 QCURVE",
"154 207 LINE",
"156 196 OFFCURVE",
"155 187 QCURVE",
"156 186 LINE",
"156 183 LINE",
"155 173 OFFCURVE",
"157 166 QCURVE",
"157 160 LINE SMOOTH",
"157 151 OFFCURVE",
"158 145 QCURVE",
"158 126 LINE",
"159 122 OFFCURVE",
"159 119 QCURVE",
"160 79 LINE",
"162 66 OFFCURVE",
"161 57 QCURVE",
"161 51 LINE",
"162 45 OFFCURVE",
"162 41 QCURVE SMOOTH",
"162 17 LINE",
"164 4 OFFCURVE",
"163 -5 QCURVE",
"170 -2 OFFCURVE",
"172 3 QCURVE",
"173 6 LINE",
"176 9 LINE",
"177 11 LINE",
"180 13 LINE",
"181 16 LINE",
"183 18 LINE",
"189 28 OFFCURVE",
"193 34 QCURVE",
"194 38 LINE",
"197 41 LINE",
"198 43 LINE SMOOTH",
"204 55 OFFCURVE",
"208 63 QCURVE",
"211 73 OFFCURVE",
"216 80 QCURVE",
"216 83 OFFCURVE",
"217 84 QCURVE",
"219 88 LINE",
"223 101 OFFCURVE",
"226 108 QCURVE",
"226 111 OFFCURVE",
"227 112 QCURVE",
"229 119 OFFCURVE",
"231 124 QCURVE",
"231 127 OFFCURVE",
"232 128 QCURVE",
"233 132 LINE",
"234 137 LINE",
"235 140 LINE",
"236 143 LINE",
"237 146 LINE",
"237 148 LINE",
"239 153 LINE",
"240 161 LINE",
"244 176 LINE",
"247 206 LINE",
"248 208 LINE",
"250 227 LINE",
"250 234 LINE",
"252 240 OFFCURVE",
"251 244 QCURVE",
"252 248 LINE",
"252 256 OFFCURVE",
"253 262 QCURVE",
"253 266 LINE",
"253 270 LINE",
"253 287 LINE",
"253 291 LINE",
"253 295 LINE",
"253 299 LINE",
"253 315 LINE",
"253 318 LINE",
"253 329 LINE SMOOTH",
"253 337 OFFCURVE",
"252 342 QCURVE",
"252 345 LINE",
"252 352 LINE",
"251 355 OFFCURVE",
"251 358 QCURVE SMOOTH",
"251 362 LINE",
"249 384 LINE",
"248 394 LINE",
"247 404 LINE",
"247 409 LINE",
"247 412 LINE",
"246 416 OFFCURVE",
"246 420 QCURVE",
"245 439 LINE",
"243 463 LINE",
"242 481 LINE",
"240 497 LINE",
"240 502 LINE",
"240 504 LINE",
"240 508 LINE",
"239 512 OFFCURVE",
"239 515 QCURVE",
"238 525 OFFCURVE",
"238 532 QCURVE",
"237 533 OFFCURVE",
"237 534 QCURVE",
"236 551 LINE",
"236 554 LINE",
"234 562 OFFCURVE",
"235 566 QCURVE",
"234 573 LINE",
"234 583 OFFCURVE",
"232 591 QCURVE",
"232 598 LINE",
"231 603 LINE",
"231 614 LINE",
"229 630 LINE",
"229 634 LINE",
"229 638 LINE",
"228 641 LINE",
"228 644 LINE",
"226 665 LINE",
"226 673 LINE",
"226 677 LINE",
"226 679 LINE",
"226 683 LINE",
"225 688 LINE",
"225 692 LINE",
"225 697 LINE",
"224 700 LINE",
"224 704 LINE",
"222 725 LINE",
"222 733 LINE",
"221 740 LINE",
"221 745 OFFCURVE",
"220 748 QCURVE",
"220 751 LINE",
"220 758 LINE",
"219 763 LINE",
"219 770 LINE",
"217 780 OFFCURVE",
"217 787 QCURVE SMOOTH",
"217 792 OFFCURVE",
"216 795 QCURVE",
"216 798 LINE SMOOTH",
"216 804 OFFCURVE",
"215 809 QCURVE",
"215 813 LINE",
"215 816 LINE",
"214 818 LINE",
"186 1300 LINE",
"186 1303 LINE",
"185 1304 OFFCURVE",
"185 1306 QCURVE",
"185 1309 LINE",
"183 1328 LINE",
"182 1344 LINE",
"182 1348 LINE",
"180 1364 LINE",
"180 1372 OFFCURVE",
"179 1376 QCURVE",
"179 1384 LINE",
"178 1388 LINE",
"178 1392 LINE",
"177 1408 LINE",
"176 1412 LINE",
"176 1422 LINE",
"175 1425 LINE",
"175 1431 OFFCURVE",
"174 1435 QCURVE",
"174 1439 LINE",
"174 1446 LINE",
"172 1456 OFFCURVE",
"172 1463 QCURVE",
"171 1466 OFFCURVE",
"169 1466 QCURVE"
);
}
);
width = 339;
}
);
unicode = 0622;
},
{
glyphname = uni0623;
layers = (
{
anchors = (
{
name = t.uni064B;
position = "{14, 1899}";
},
{
name = b.uni064D_1;
position = "{114, -143}";
}
);
layerId = "445A555C-B070-40FB-B385-62320451654E";
paths = (
{
closed = 1;
nodes = (
"86 1866 OFFCURVE",
"154 1884 QCURVE",
"164 1885 OFFCURVE",
"180 1883 QCURVE",
"185 1883 LINE",
"227 1866 OFFCURVE",
"212 1820 QCURVE",
"147 1839 OFFCURVE",
"87 1794 QCURVE",
"92 1787 OFFCURVE",
"109 1764 OFFCURVE",
"139 1741 OFFCURVE",
"167 1726 QCURVE",
"168 1725 LINE",
"171 1724 LINE",
"186 1735 OFFCURVE",
"286 1791 OFFCURVE",
"285 1779 QCURVE",
"247 1721 LINE",
"246 1716 LINE",
"236 1714 OFFCURVE",
"147 1655 OFFCURVE",
"93 1623 OFFCURVE",
"32 1579 OFFCURVE",
"25 1577 QCURVE",
"25 1587 LINE",
"27 1605 OFFCURVE",
"59 1644 OFFCURVE",
"100 1674 OFFCURVE",
"106 1678 QCURVE",
"34 1721 OFFCURVE",
"67 1801 QCURVE"
);
},
{
closed = 1;
nodes = (
"156 1466 LINE",
"158 1466 OFFCURVE",
"159 1463 QCURVE",
"159 1456 OFFCURVE",
"161 1446 QCURVE",
"161 1439 LINE",
"161 1435 LINE",
"162 1430 OFFCURVE",
"162 1425 QCURVE",
"163 1422 LINE",
"163 1412 LINE",
"164 1408 LINE",
"165 1392 LINE",
"165 1388 LINE",
"166 1384 LINE",
"166 1376 LINE",
"167 1371 OFFCURVE",
"167 1364 QCURVE",
"168 1348 LINE",
"168 1344 LINE",
"169 1328 LINE",
"171 1309 LINE",
"171 1306 LINE",
"171 1304 OFFCURVE",
"172 1303 QCURVE",
"172 1300 LINE",
"201 818 LINE",
"202 816 LINE",
"202 813 LINE",
"202 809 LINE",
"203 804 OFFCURVE",
"203 798 QCURVE SMOOTH",
"203 795 LINE",
"204 792 OFFCURVE",
"204 787 QCURVE SMOOTH",
"204 780 OFFCURVE",
"206 770 QCURVE",
"206 763 LINE",
"207 758 LINE",
"207 751 LINE",
"207 748 LINE",
"208 745 OFFCURVE",
"207 740 QCURVE",
"208 733 LINE",
"208 725 LINE",
"210 704 LINE",
"210 700 LINE",
"211 697 LINE",
"211 692 LINE",
"211 688 LINE",
"212 683 LINE",
"212 679 LINE",
"212 677 LINE",
"213 673 LINE",
"213 665 LINE",
"215 644 LINE",
"215 641 LINE",
"216 638 LINE",
"216 634 LINE",
"216 630 LINE",
"218 614 LINE",
"218 603 LINE",
"219 598 LINE",
"219 591 LINE",
"221 583 OFFCURVE",
"221 573 QCURVE",
"222 566 LINE",
"221 561 OFFCURVE",
"223 554 QCURVE",
"223 551 LINE",
"224 534 LINE",
"224 533 OFFCURVE",
"225 532 QCURVE",
"225 525 OFFCURVE",
"226 515 QCURVE",
"226 512 OFFCURVE",
"226 508 QCURVE SMOOTH",
"226 504 LINE",
"226 502 LINE",
"226 497 LINE",
"228 481 LINE",
"229 463 LINE",
"231 439 LINE",
"233 420 LINE",
"233 416 OFFCURVE",
"234 412 QCURVE",
"234 409 LINE",
"234 404 LINE",
"235 394 LINE",
"236 384 LINE",
"238 362 LINE",
"238 358 LINE SMOOTH",
"238 355 OFFCURVE",
"239 352 QCURVE",
"239 345 LINE",
"239 342 LINE",
"240 337 OFFCURVE",
"240 329 QCURVE SMOOTH",
"240 318 LINE",
"240 315 LINE",
"240 299 LINE",
"240 295 LINE",
"240 291 LINE",
"240 287 LINE",
"240 270 LINE",
"240 266 LINE",
"240 262 LINE",
"239 256 OFFCURVE",
"239 248 QCURVE",
"238 244 LINE",
"239 240 OFFCURVE",
"237 234 QCURVE",
"237 227 LINE",
"235 208 LINE",
"234 206 LINE",
"230 176 LINE",
"226 161 LINE",
"226 153 LINE",
"224 148 LINE",
"224 146 LINE",
"223 143 LINE",
"222 140 LINE",
"221 137 LINE",
"220 132 LINE",
"219 128 LINE",
"218 127 OFFCURVE",
"218 124 QCURVE",
"216 119 OFFCURVE",
"214 112 QCURVE",
"213 111 OFFCURVE",
"213 108 QCURVE",
"209 100 OFFCURVE",
"206 88 QCURVE",
"204 84 LINE",
"203 83 OFFCURVE",
"203 80 QCURVE",
"198 73 OFFCURVE",
"195 63 QCURVE",
"190 55 OFFCURVE",
"185 43 QCURVE",
"184 41 LINE",
"181 38 LINE",
"180 34 LINE",
"175 28 OFFCURVE",
"169 18 QCURVE",
"167 16 LINE",
"167 13 LINE",
"164 11 LINE",
"163 9 LINE",
"160 6 LINE",
"159 3 LINE",
"156 -2 OFFCURVE",
"149 -5 QCURVE",
"150 4 OFFCURVE",
"148 17 QCURVE",
"148 41 LINE SMOOTH",
"148 46 OFFCURVE",
"148 51 QCURVE SMOOTH",
"148 57 LINE",
"149 66 OFFCURVE",
"147 79 QCURVE",
"146 119 LINE",
"146 122 OFFCURVE",
"145 126 QCURVE",
"145 145 LINE",
"144 152 OFFCURVE",
"144 160 QCURVE SMOOTH",
"144 166 LINE",
"142 173 OFFCURVE",
"143 183 QCURVE",
"143 186 LINE",
"142 187 LINE",
"143 195 OFFCURVE",
"141 207 QCURVE",
"141 221 LINE",
"140 226 OFFCURVE",
"140 231 QCURVE",
"138 267 LINE",
"138 268 OFFCURVE",
"137 270 QCURVE",
"133 331 LINE",
"133 338 OFFCURVE",
"132 348 QCURVE",
"128 414 LINE",
"128 423 OFFCURVE",
"126 436 QCURVE",
"124 470 LINE",
"123 475 OFFCURVE",
"123 481 QCURVE",
"122 483 LINE",
"121 502 LINE",
"120 505 LINE",
"119 527 LINE",
"118 529 LINE",
"118 536 LINE",
"117 540 LINE",
"117 548 LINE",
"116 557 LINE",
"115 563 OFFCURVE",
"115 570 QCURVE",
"114 581 LINE",
"113 585 LINE",
"113 592 LINE",
"112 596 LINE",
"111 606 LINE",
"111 612 LINE",
"108 649 LINE",
"107 663 LINE",
"107 664 OFFCURVE",
"106 665 QCURVE",
"106 675 LINE",
"105 677 LINE",
"105 685 OFFCURVE",
"104 690 QCURVE",
"103 705 LINE",
"101 713 OFFCURVE",
"101 723 QCURVE SMOOTH",
"101 726 LINE",
"100 733 LINE",
"97 764 LINE",
"93 802 LINE",
"93 805 LINE",
"53 1326 LINE",
"57 1336 OFFCURVE",
"66 1344 QCURVE",
"67 1347 LINE",
"69 1348 LINE",
"69 1350 LINE",
"74 1355 LINE",
"77 1359 OFFCURVE",
"80 1365 QCURVE",
"83 1367 LINE",
"85 1369 LINE",
"87 1373 LINE",
"94 1382 LINE",
"96 1386 LINE",
"100 1389 OFFCURVE",
"103 1395 QCURVE",
"106 1398 LINE",
"108 1402 LINE",
"111 1406 LINE",
"114 1409 LINE",
"117 1414 LINE",
"121 1418 LINE",
"124 1424 OFFCURVE",
"130 1430 QCURVE",
"131 1433 LINE",
"133 1434 LINE",
"135 1437 LINE",
"136 1440 LINE",
"137 1440 OFFCURVE",
"138 1442 QCURVE",
"140 1444 LINE",
"144 1448 LINE",
"153 1462 LINE",
"155 1464 LINE"
);
}
);
width = 332;
}
);
unicode = 0623;
},
{
glyphname = uni0624;
layers = (
{
anchors = (
{
name = t.uni064B;
position = "{171, 1442}";
},
{
name = b.uni064D_1;
position = "{114, -628}";
}
);
layerId = "445A555C-B070-40FB-B385-62320451654E";
paths = (
{
closed = 1;
nodes = (
"411 530 LINE",
"444 533 OFFCURVE",
"475 512 QCURVE",
"479 507 OFFCURVE",
"485 502 QCURVE",
"487 498 OFFCURVE",
"492 496 QCURVE",
"494 493 LINE",
"497 491 LINE",
"499 488 LINE",
"501 485 LINE",
"503 480 OFFCURVE",
"507 477 QCURVE",
"509 470 OFFCURVE",
"516 463 QCURVE",
"520 457 LINE",
"521 454 LINE",
"522 452 LINE",
"523 449 LINE",
"525 447 LINE",
"527 443 LINE",
"529 438 OFFCURVE",
"533 433 QCURVE",
"534 429 OFFCURVE",
"537 425 QCURVE",
"539 422 LINE",
"540 418 LINE",
"542 413 OFFCURVE",
"545 407 QCURVE",
"548 397 OFFCURVE",
"556 380 QCURVE",
"556 379 OFFCURVE",
"557 377 QCURVE",
"558 371 OFFCURVE",
"561 365 QCURVE",
"567 338 LINE",
"567 337 OFFCURVE",
"568 335 QCURVE",
"569 331 LINE",
"569 323 OFFCURVE",
"572 315 QCURVE",
"572 312 LINE",
"572 309 LINE",
"573 306 LINE",
"573 304 LINE",
"574 301 LINE",
"574 297 LINE",
"575 293 LINE",
"574 288 OFFCURVE",
"576 282 QCURVE",
"576 279 LINE",
"576 263 LINE",
"576 260 LINE",
"576 257 LINE",
"576 253 LINE",
"576 248 LINE",
"576 238 LINE",
"576 234 LINE",
"576 221 LINE",
"574 206 LINE",
"574 202 OFFCURVE",
"573 198 QCURVE",
"573 195 LINE",
"573 189 LINE",
"571 182 OFFCURVE",
"570 172 QCURVE",
"569 170 LINE",
"569 167 LINE",
"568 165 LINE",
"568 161 LINE",
"565 150 LINE",
"565 147 LINE",
"564 144 LINE",
"561 128 LINE",
"560 125 LINE",
"559 120 OFFCURVE",
"557 114 QCURVE",
"555 107 LINE",
"555 104 LINE",
"552 97 OFFCURVE",
"549 87 QCURVE SMOOTH",
"547 80 LINE",
"545 76 LINE",
"544 73 LINE",
"543 69 LINE",
"540 63 OFFCURVE",
"540 57 QCURVE",
"528 30 LINE",
"527 28 LINE",
"525 21 LINE",
"523 18 LINE",
"522 14 LINE",
"521 11 LINE",
"520 8 LINE",
"515 -1 LINE",
"506 -22 LINE",
"497 -39 LINE",
"496 -42 LINE",
"494 -45 OFFCURVE",
"492 -49 QCURVE",
"491 -52 LINE",
"489 -55 OFFCURVE",
"487 -60 QCURVE",
"483 -64 OFFCURVE",
"482 -70 QCURVE",
"479 -73 OFFCURVE",
"477 -77 QCURVE",
"475 -79 LINE",
"474 -82 LINE",
"473 -84 LINE",
"467 -91 OFFCURVE",
"460 -102 QCURVE",
"458 -106 OFFCURVE",
"453 -110 QCURVE",
"452 -113 LINE",
"449 -115 LINE",
"446 -119 LINE",
"445 -122 LINE",
"443 -124 LINE",
"361 -235 OFFCURVE",
"219 -288 QCURVE",
"213 -289 OFFCURVE",
"206 -292 QCURVE",
"200 -293 OFFCURVE",
"192 -296 QCURVE",
"189 -296 LINE",
"185 -297 LINE",
"176 -299 LINE",
"174 -300 LINE",
"172 -300 OFFCURVE",
"171 -301 QCURVE",
"167 -301 LINE",
"163 -302 LINE",
"142 -305 LINE",
"124 -306 LINE",
"122 -307 LINE",
"117 -307 LINE",
"106 -307 LINE",
"102 -307 LINE",
"91 -307 LINE",
"-90 -306 OFFCURVE",
"-236 -168 QCURVE",
"-240 -162 OFFCURVE",
"-241 -156 QCURVE",
"-229 -156 OFFCURVE",
"-214 -162 QCURVE",
"-207 -164 LINE",
"-197 -166 LINE",
"-191 -167 LINE",
"-181 -168 LINE",
"-174 -168 LINE",
"-172 -169 LINE",
"-169 -169 LINE",
"-167 -170 LINE",
"-150 -172 LINE",
"-140 -173 LINE",
"-133 -174 LINE",
"-130 -174 LINE",
"-128 -175 LINE",
"-125 -175 LINE",
"-119 -176 LINE",
"-115 -175 OFFCURVE",
"-110 -177 QCURVE",
"-101 -177 LINE",
"-99 -178 LINE",
"-92 -178 OFFCURVE",
"-83 -179 QCURVE",
"-79 -179 LINE",
"-76 -179 LINE",
"-72 -179 LINE",
"-68 -180 LINE",
"-50 -180 LINE",
"-48 -180 LINE",
"270 -198 OFFCURVE",
"485 56 QCURVE",
"488 71 LINE",
"489 73 LINE",
"490 80 LINE",
"491 84 LINE",
"492 94 LINE",
"493 97 LINE",
"494 109 LINE",
"495 125 LINE",
"495 155 LINE",
"494 161 LINE",
"494 167 OFFCURVE",
"493 174 QCURVE",
"476 172 LINE",
"474 171 LINE",
"471 171 LINE",
"469 171 OFFCURVE",
"468 170 QCURVE",
"465 170 LINE",
"462 170 LINE",
"445 168 LINE",
"438 168 OFFCURVE",
"429 167 QCURVE",
"422 168 OFFCURVE",
"413 166 QCURVE",
"406 166 LINE",
"393 166 LINE",
"388 166 LINE",
"384 166 LINE",
"380 165 OFFCURVE",
"375 167 QCURVE",
"365 167 LINE",
"362 167 LINE",
"345 169 LINE",
"341 170 LINE",
"338 170 LINE",
"334 171 LINE",
"331 171 LINE",
"323 173 OFFCURVE",
"310 179 QCURVE",
"305 180 LINE",
"304 182 LINE",
"300 183 LINE",
"297 186 OFFCURVE",
"291 187 QCURVE",
"287 191 OFFCURVE",
"280 197 QCURVE",
"275 203 LINE",
"271 206 LINE",
"269 212 OFFCURVE",
"264 217 QCURVE",
"254 241 OFFCURVE",
"253 271 QCURVE",
"253 278 OFFCURVE",
"254 286 QCURVE SMOOTH",
"256 303 LINE",
"257 305 LINE",
"257 309 OFFCURVE",
"259 314 QCURVE",
"259 318 LINE",
"261 323 OFFCURVE",
"262 329 QCURVE",
"264 335 LINE",
"265 337 LINE",
"266 344 LINE",
"266 346 LINE",
"267 349 LINE",
"268 352 LINE",
"273 365 LINE",
"276 373 LINE",
"285 397 LINE",
"286 399 LINE",
"288 402 OFFCURVE",
"288 406 QCURVE",
"293 412 OFFCURVE",
"299 423 QCURVE",
"301 425 LINE",
"302 428 LINE",
"304 430 LINE",
"305 433 LINE",
"308 436 OFFCURVE",
"311 443 QCURVE",
"313 445 LINE",
"316 450 LINE",
"319 453 LINE",
"320 456 OFFCURVE",
"324 460 QCURVE",
"325 463 LINE",
"327 465 LINE",
"329 469 LINE",
"335 474 OFFCURVE",
"341 482 QCURVE",
"343 483 LINE",
"345 487 LINE",
"350 490 OFFCURVE",
"354 497 QCURVE",
"356 498 LINE",
"357 500 LINE",
"363 503 LINE",
"364 505 LINE",
"369 509 LINE",
"370 511 LINE",
"375 513 OFFCURVE",
"382 518 QCURVE",
"386 520 OFFCURVE",
"389 522 QCURVE",
"392 523 LINE",
"401 527 LINE",
"404 527 LINE"
);
},
{
closed = 1;
nodes = (
"257 1227 OFFCURVE",
"359 1256 QCURVE",
"373 1258 OFFCURVE",
"397 1254 QCURVE",
"404 1254 LINE",
"466 1229 OFFCURVE",
"444 1160 QCURVE",
"347 1189 OFFCURVE",
"258 1123 QCURVE",
"265 1113 OFFCURVE",
"292 1079 OFFCURVE",
"336 1044 OFFCURVE",
"376 1023 QCURVE SMOOTH",
"380 1021 LINE",
"383 1020 LINE",
"406 1037 OFFCURVE",
"552 1118 OFFCURVE",
"551 1100 QCURVE",
"496 1014 LINE",
"493 1008 LINE",
"478 1004 OFFCURVE",
"346 917 OFFCURVE",
"267 870 OFFCURVE",
"178 804 OFFCURVE",
"167 802 QCURVE",
"167 817 LINE",
"170 844 OFFCURVE",
"217 901 OFFCURVE",
"278 945 OFFCURVE",
"286 952 QCURVE",
"179 1014 OFFCURVE",
"228 1133 QCURVE"
);
}
);
width = 610;
}
);
unicode = 0624;
},
{
glyphname = uni0625;
layers = (
{
anchors = (
{
name = t.uni064B;
position = "{100, 1599}";
},
{
name = b.uni064D_1;
position = "{57, -457}";
}
);
layerId = "445A555C-B070-40FB-B385-62320451654E";
paths = (
{
closed = 1;
nodes = (
"116 -149 OFFCURVE",
"186 -130 QCURVE",
"196 -129 OFFCURVE",
"210 -131 QCURVE",
"215 -131 LINE",
"257 -148 OFFCURVE",
"243 -195 QCURVE",
"178 -176 OFFCURVE",
"117 -221 QCURVE",
"122 -228 OFFCURVE",
"140 -250 OFFCURVE",
"169 -274 OFFCURVE",
"197 -288 QCURVE SMOOTH",
"199 -289 LINE",
"202 -290 LINE",
"217 -279 OFFCURVE",
"316 -224 OFFCURVE",
"315 -236 QCURVE",
"278 -294 LINE",
"276 -299 LINE",
"266 -301 OFFCURVE",
"177 -360 OFFCURVE",
"124 -392 OFFCURVE",
"63 -436 OFFCURVE",
"55 -438 QCURVE",
"55 -427 LINE",
"57 -409 OFFCURVE",
"89 -371 OFFCURVE",
"130 -341 OFFCURVE",
"136 -337 QCURVE",
"64 -294 OFFCURVE",
"97 -214 QCURVE"
);
},
{
closed = 1;
nodes = (
"158 1466 LINE",
"160 1466 OFFCURVE",
"161 1463 QCURVE",
"161 1456 OFFCURVE",
"163 1446 QCURVE",
"163 1439 LINE",
"163 1435 LINE",
"164 1430 OFFCURVE",
"164 1425 QCURVE",
"165 1422 LINE",
"165 1412 LINE",
"166 1408 LINE",
"167 1392 LINE",
"167 1388 LINE",
"167 1384 LINE",
"167 1376 LINE",
"168 1371 OFFCURVE",
"168 1364 QCURVE",
"170 1348 LINE",
"170 1344 LINE",
"171 1328 LINE",
"173 1309 LINE",
"173 1306 LINE",
"173 1304 OFFCURVE",
"174 1303 QCURVE",
"174 1300 LINE",
"203 818 LINE",
"204 816 LINE",
"204 813 LINE",
"204 809 LINE",
"205 804 OFFCURVE",
"205 798 QCURVE SMOOTH",
"205 795 LINE",
"206 792 OFFCURVE",
"206 787 QCURVE SMOOTH",
"206 780 OFFCURVE",
"207 770 QCURVE",
"207 763 LINE",
"208 758 LINE",
"208 751 LINE",
"208 748 LINE",
"209 745 OFFCURVE",
"209 740 QCURVE",
"210 733 LINE",
"210 725 LINE",
"212 704 LINE",
"212 700 LINE",
"213 697 LINE",
"213 692 LINE",
"213 688 LINE",
"214 683 LINE",
"214 679 LINE",
"214 677 LINE",
"215 673 LINE",
"215 665 LINE",
"217 644 LINE",
"217 641 LINE",
"218 638 LINE",
"218 634 LINE",
"218 630 LINE",
"220 614 LINE",
"220 603 LINE",
"221 598 LINE",
"221 591 LINE",
"223 583 OFFCURVE",
"223 573 QCURVE",
"224 566 LINE",
"223 561 OFFCURVE",
"225 554 QCURVE",
"225 551 LINE",
"226 534 LINE",
"226 533 OFFCURVE",
"226 532 QCURVE",
"226 525 OFFCURVE",
"227 515 QCURVE",
"227 512 OFFCURVE",
"228 508 QCURVE",
"228 504 LINE",
"228 502 LINE",
"228 497 LINE",
"230 481 LINE",
"231 463 LINE",
"233 439 LINE",
"235 420 LINE",
"235 416 OFFCURVE",
"236 412 QCURVE",
"236 409 LINE",
"236 404 LINE",
"237 394 LINE",
"238 384 LINE",
"240 362 LINE",
"240 358 LINE SMOOTH",
"240 355 OFFCURVE",
"241 352 QCURVE",
"241 345 LINE",
"241 342 LINE",
"242 337 OFFCURVE",
"242 329 QCURVE SMOOTH",
"242 318 LINE",
"242 315 LINE",
"242 299 LINE",
"242 295 LINE",
"242 291 LINE",
"242 287 LINE",
"242 270 LINE",
"242 266 LINE",
"242 262 LINE",
"241 256 OFFCURVE",
"241 248 QCURVE",
"240 244 LINE",
"241 240 OFFCURVE",
"239 234 QCURVE",
"239 227 LINE",
"237 208 LINE",
"236 206 LINE",
"232 176 LINE",
"228 161 LINE",
"227 153 LINE",
"226 148 LINE",
"226 146 LINE",
"225 143 LINE",
"224 140 LINE",
"223 137 LINE",
"222 132 LINE",
"221 128 LINE",
"220 127 OFFCURVE",
"220 124 QCURVE",
"218 119 OFFCURVE",
"216 112 QCURVE",
"215 111 OFFCURVE",
"215 108 QCURVE",
"211 100 OFFCURVE",
"207 88 QCURVE",
"206 84 LINE",
"205 83 OFFCURVE",
"205 80 QCURVE",
"200 73 OFFCURVE",
"197 63 QCURVE",
"192 55 OFFCURVE",
"187 43 QCURVE",
"186 41 LINE",
"183 38 LINE",
"182 34 LINE",
"177 28 OFFCURVE",
"171 18 QCURVE",
"169 16 LINE",
"168 13 LINE",
"166 11 LINE",
"165 9 LINE",
"162 6 LINE",
"161 3 LINE",
"158 -2 OFFCURVE",
"151 -5 QCURVE",
"152 4 OFFCURVE",
"150 17 QCURVE",
"150 41 LINE SMOOTH",
"150 46 OFFCURVE",
"149 51 QCURVE",
"149 57 LINE",
"150 66 OFFCURVE",
"148 79 QCURVE",
"148 119 LINE SMOOTH",
"148 122 OFFCURVE",
"147 126 QCURVE",
"147 145 LINE",
"146 152 OFFCURVE",
"146 160 QCURVE SMOOTH",
"146 166 LINE",
"144 173 OFFCURVE",
"145 183 QCURVE",
"145 186 LINE",
"144 187 LINE",
"145 195 OFFCURVE",
"143 207 QCURVE",
"143 221 LINE",
"142 226 OFFCURVE",
"142 231 QCURVE",
"140 267 LINE",
"140 268 OFFCURVE",
"139 270 QCURVE",
"135 331 LINE",
"135 338 OFFCURVE",
"134 348 QCURVE SMOOTH",
"129 414 LINE",
"129 423 OFFCURVE",
"128 436 QCURVE SMOOTH",
"126 470 LINE",
"125 475 OFFCURVE",
"125 481 QCURVE",
"124 483 LINE",
"123 502 LINE",
"122 505 LINE",
"121 527 LINE",
"120 529 LINE",
"120 536 LINE",
"119 540 LINE",
"119 548 LINE",
"118 557 LINE",
"117 563 OFFCURVE",
"117 570 QCURVE",
"116 581 LINE",
"115 585 LINE",
"115 592 LINE",
"114 596 LINE",
"113 606 LINE",
"113 612 LINE",
"109 649 LINE",
"108 663 LINE",
"108 664 OFFCURVE",
"108 665 QCURVE",
"108 675 LINE",
"107 677 LINE",
"107 685 OFFCURVE",
"106 690 QCURVE",
"105 705 LINE",
"103 713 OFFCURVE",
"103 723 QCURVE SMOOTH",
"103 726 LINE",
"102 733 LINE",
"99 764 LINE",
"95 802 LINE",
"95 805 LINE",
"55 1326 LINE",
"59 1336 OFFCURVE",
"68 1344 QCURVE",
"69 1347 LINE",
"70 1348 LINE",
"71 1350 LINE",
"76 1355 LINE",
"79 1359 OFFCURVE",
"82 1365 QCURVE",
"85 1367 LINE",
"87 1369 LINE",
"89 1373 LINE",
"96 1382 LINE",
"98 1386 LINE",
"102 1389 OFFCURVE",
"105 1395 QCURVE",
"108 1398 LINE",
"110 1402 LINE",
"113 1406 LINE",
"116 1409 LINE",
"119 1414 LINE",
"123 1418 LINE",
"126 1424 OFFCURVE",
"132 1430 QCURVE",
"133 1433 LINE",
"135 1434 LINE",
"137 1437 LINE",
"138 1440 LINE",
"139 1440 OFFCURVE",
"140 1442 QCURVE",
"142 1444 LINE",
"146 1448 LINE",
"155 1462 LINE",
"157 1464 LINE"
);
}
);
width = 337;
}
);
unicode = 0625;
},
{
glyphname = uni0627;
layers = (
{
anchors = (
{
name = t.uni064B;
position = "{14, 1542}";
},
{
name = b.uni064D_1;
position = "{157, -186}";
}
);
layerId = "445A555C-B070-40FB-B385-62320451654E";
paths = (
{
closed = 1;
nodes = (
"189 1466 LINE",
"191 1466 OFFCURVE",
"192 1463 QCURVE",
"192 1456 OFFCURVE",
"194 1446 QCURVE",
"194 1439 LINE",
"194 1435 LINE",
"195 1430 OFFCURVE",
"195 1425 QCURVE",
"196 1422 LINE",
"196 1412 LINE",
"197 1408 LINE",
"198 1392 LINE",
"198 1388 LINE",
"199 1384 LINE",
"199 1376 LINE",
"200 1371 OFFCURVE",
"200 1364 QCURVE",
"202 1348 LINE",
"202 1344 LINE",
"203 1328 LINE",
"205 1309 LINE",
"205 1306 LINE",
"205 1304 OFFCURVE",
"206 1303 QCURVE",
"206 1300 LINE",
"234 818 LINE",
"235 816 LINE",
"235 813 LINE",
"235 809 LINE",
"236 804 OFFCURVE",
"236 798 QCURVE SMOOTH",
"236 795 LINE",
"237 792 OFFCURVE",
"237 787 QCURVE SMOOTH",
"237 780 OFFCURVE",
"239 770 QCURVE",
"239 763 LINE",
"240 758 LINE",
"240 751 LINE",
"240 748 LINE",
"241 745 OFFCURVE",
"241 740 QCURVE",
"242 733 LINE",
"242 725 LINE",
"244 704 LINE",
"244 700 LINE",
"245 697 LINE",
"245 692 LINE",
"245 688 LINE",
"246 683 LINE",
"246 679 LINE",
"246 677 LINE",
"246 673 LINE",
"246 665 LINE",
"248 644 LINE",
"248 641 LINE",
"249 638 LINE",
"249 634 LINE",
"249 630 LINE",
"251 614 LINE",
"251 603 LINE",
"252 598 LINE",
"252 591 LINE",
"254 583 OFFCURVE",
"254 573 QCURVE",
"255 566 LINE",
"254 561 OFFCURVE",
"256 554 QCURVE",
"256 551 LINE",
"257 534 LINE",
"257 533 OFFCURVE",
"258 532 QCURVE",
"258 525 OFFCURVE",
"259 515 QCURVE",
"259 512 OFFCURVE",
"260 508 QCURVE",
"260 504 LINE",
"260 502 LINE",
"260 497 LINE",
"262 481 LINE",
"263 463 LINE",
"265 439 LINE",
"266 420 LINE",
"266 416 OFFCURVE",
"267 412 QCURVE",
"267 409 LINE",
"267 404 LINE",
"268 394 LINE",
"269 384 LINE",
"271 362 LINE",
"271 358 LINE SMOOTH",
"271 355 OFFCURVE",
"272 352 QCURVE",
"272 345 LINE",
"272 342 LINE",
"273 337 OFFCURVE",
"273 329 QCURVE SMOOTH",
"273 318 LINE",
"273 315 LINE",
"273 299 LINE",
"273 295 LINE",
"273 291 LINE",
"273 287 LINE",
"273 270 LINE",
"273 266 LINE",
"273 262 LINE",
"272 256 OFFCURVE",
"272 248 QCURVE",
"271 244 LINE",
"272 240 OFFCURVE",
"270 234 QCURVE",
"270 227 LINE",
"268 208 LINE",
"267 206 LINE",
"264 176 LINE",
"260 161 LINE",
"259 153 LINE",
"257 148 LINE",
"257 146 LINE",
"256 143 LINE",
"255 140 LINE",
"254 137 LINE",
"253 132 LINE",
"252 128 LINE",
"251 127 OFFCURVE",
"251 124 QCURVE",
"249 119 OFFCURVE",
"247 112 QCURVE",
"246 111 OFFCURVE",
"246 108 QCURVE",
"242 100 OFFCURVE",
"239 88 QCURVE",
"237 84 LINE",
"236 83 OFFCURVE",
"236 80 QCURVE",
"231 73 OFFCURVE",
"228 63 QCURVE",
"223 55 OFFCURVE",
"218 43 QCURVE",
"217 41 LINE",
"214 38 LINE",
"213 34 LINE",
"208 28 OFFCURVE",
"203 18 QCURVE",
"201 16 LINE",
"200 13 LINE",
"197 11 LINE",
"196 9 LINE",
"193 6 LINE",
"192 3 LINE",
"189 -2 OFFCURVE",
"183 -5 QCURVE",
"184 4 OFFCURVE",
"182 17 QCURVE",
"182 41 LINE SMOOTH",
"182 46 OFFCURVE",
"181 51 QCURVE",
"181 57 LINE",
"182 66 OFFCURVE",
"180 79 QCURVE",
"179 119 LINE",
"179 122 OFFCURVE",
"178 126 QCURVE",
"178 145 LINE",
"177 152 OFFCURVE",
"177 160 QCURVE SMOOTH",
"177 166 LINE",
"175 173 OFFCURVE",
"176 183 QCURVE",
"176 186 LINE",
"175 187 LINE",
"176 195 OFFCURVE",
"174 207 QCURVE",
"174 221 LINE",
"173 226 OFFCURVE",
"173 231 QCURVE",
"171 267 LINE",
"171 268 OFFCURVE",
"170 270 QCURVE",
"167 331 LINE",
"167 338 OFFCURVE",
"166 348 QCURVE SMOOTH",
"161 414 LINE",
"161 423 OFFCURVE",
"159 436 QCURVE",
"157 470 LINE",
"156 475 OFFCURVE",
"156 481 QCURVE",
"155 483 LINE",
"154 502 LINE",
"153 505 LINE",
"152 527 LINE",
"151 529 LINE",
"151 536 LINE",
"150 540 LINE",
"150 548 LINE",
"149 557 LINE",
"148 563 OFFCURVE",
"148 570 QCURVE SMOOTH",
"148 581 LINE",
"147 585 LINE",
"147 592 LINE",
"146 596 LINE",
"145 606 LINE",
"145 612 LINE",
"141 649 LINE",
"140 663 LINE",
"140 664 OFFCURVE",
"139 665 QCURVE",
"139 675 LINE",
"138 677 LINE",
"138 685 OFFCURVE",
"137 690 QCURVE",
"136 705 LINE",
"134 713 OFFCURVE",
"134 723 QCURVE SMOOTH",
"134 726 LINE",
"133 733 LINE",
"130 764 LINE",
"127 802 LINE",
"127 805 LINE",
"87 1326 LINE",
"91 1336 OFFCURVE",
"99 1344 QCURVE",
"100 1347 LINE",
"102 1348 LINE",
"103 1350 LINE",
"108 1355 LINE",
"111 1359 OFFCURVE",
"113 1365 QCURVE",
"116 1367 LINE",
"118 1369 LINE",
"120 1373 LINE",
"128 1382 LINE",
"129 1386 LINE",
"133 1389 OFFCURVE",
"136 1395 QCURVE",
"139 1398 LINE",
"142 1402 LINE",
"145 1406 LINE",
"148 1409 LINE",
"150 1414 LINE",
"154 1418 LINE",
"157 1424 OFFCURVE",
"164 1430 QCURVE",
"165 1433 LINE",
"167 1434 LINE",
"168 1437 LINE",
"169 1440 LINE",
"170 1440 OFFCURVE",
"171 1442 QCURVE",
"173 1444 LINE",
"177 1448 LINE",
"187 1462 LINE",
"188 1464 LINE"
);
}
);
width = 339;
}
);
unicode = 0627;
},
{
glyphname = uni0628;
layers = (
{
anchors = (
{
name = t.uni064B;
position = "{571, 761}";
},
{
name = b.uni064D_1;
position = "{585, -557}";
}
);
layerId = "445A555C-B070-40FB-B385-62320451654E";
paths = (
{
closed = 1;
nodes = (
"1265 578 OFFCURVE",
"1265 482 QCURVE SMOOTH",
"1265 422 LINE SMOOTH",
"1265 290 OFFCURVE",
"1150 170 QCURVE",
"897 -5 OFFCURVE",
"598 -5 QCURVE SMOOTH",
"567 -5 LINE SMOOTH",
"161 -5 OFFCURVE",
"86 261 QCURVE",
"76 325 OFFCURVE",
"75 337 QCURVE",
"75 523 OFFCURVE",
"181 638 QCURVE",
"190 638 LINE",
"190 628 LINE",
"160 524 OFFCURVE",
"161 467 QCURVE",
"161 457 LINE SMOOTH",
"161 245 OFFCURVE",
"466 170 QCURVE",
"531 160 OFFCURVE",
"587 161 QCURVE",
"658 161 LINE SMOOTH",
"894 161 OFFCURVE",
"1194 306 QCURVE",
"1194 311 LINE SMOOTH",
"1194 426 OFFCURVE",
"1109 558 QCURVE",
"1128 615 OFFCURVE",
"1185 708 QCURVE"
);
},
{
closed = 1;
nodes = (
"627 -276 LINE",
"632 -276 LINE SMOOTH",
"635 -276 OFFCURVE",
"742 -382 QCURVE",
"742 -389 OFFCURVE",
"632 -492 QCURVE",
"627 -492 LINE",
"521 -408 OFFCURVE",
"522 -377 QCURVE"
);
}
);
width = 1331;
}
);
unicode = 0628;
},
{
glyphname = uni0629;
layers = (
{
anchors = (
{
name = t.uni064B;
position = "{214, 1318}";
},
{
name = b.uni064D_1;
position = "{200, -271}";
}
);
layerId = "445A555C-B070-40FB-B385-62320451654E";
paths = (
{
closed = 1;
nodes = (
"442 1117 OFFCURVE",
"489 1065 OFFCURVE",
"545 1018 QCURVE",
"437 905 LINE",
"377 942 OFFCURVE",
"325 1016 QCURVE",
"418 1108 OFFCURVE",
"428 1120 QCURVE"
);
},
{
closed = 1;
nodes = (
"221 1117 OFFCURVE",
"267 1064 OFFCURVE",
"324 1018 QCURVE",
"325 1015 LINE",
"215 905 LINE",
"155 942 OFFCURVE",
"104 1016 QCURVE",
"197 1108 OFFCURVE",
"207 1120 QCURVE"
);
},
{
closed = 1;
nodes = (
"293 722 LINE",
"317 722 LINE",
"421 646 OFFCURVE",
"486 550 QCURVE",
"537 482 OFFCURVE",
"572 352 QCURVE",
"572 326 OFFCURVE",
"572 298 OFFCURVE",
"561 230 QCURVE",
"513 98 OFFCURVE",
"403 40 QCURVE",
"358 19 OFFCURVE",
"306 7 QCURVE",
"254 7 LINE SMOOTH",
"128 7 OFFCURVE",
"83 126 QCURVE",
"73 159 OFFCURVE",
"72 175 QCURVE",
"72 225 LINE",
"82 347 OFFCURVE",
"221 561 QCURVE",
"221 647 OFFCURVE",
"288 719 QCURVE"
);
},
{
closed = 1;
nodes = (
"188 387 OFFCURVE",
"174 281 QCURVE",
"174 275 LINE SMOOTH",
"174 206 OFFCURVE",
"256 173 QCURVE",
"284 164 OFFCURVE",
"307 165 QCURVE",
"391 165 OFFCURVE",
"477 234 QCURVE",
"457 327 OFFCURVE",
"382 419 QCURVE",
"308 503 OFFCURVE",
"289 503 QCURVE"
);
}
);
width = 635;
}
);
unicode = 0629;
},
{
glyphname = uni062A;
layers = (
{
anchors = (
{
name = t.uni064B;
position = "{571, 1156}";
},
{
name = b.uni064D_1;
position = "{542, -343}";
}
);
layerId = "445A555C-B070-40FB-B385-62320451654E";
paths = (
{
closed = 1;
nodes = (
"690 951 LINE",
"690 962 OFFCURVE",
"791 1055 QCURVE",
"803 1055 OFFCURVE",
"880 975 QCURVE",
"896 960 OFFCURVE",
"905 960 QCURVE",
"905 951 LINE",
"807 841 OFFCURVE",
"800 840 QCURVE",
"791 840 LINE SMOOTH",
"781 840 OFFCURVE",
"685 940 QCURVE",
"581 840 LINE",
"570 840 LINE SMOOTH",
"554 840 OFFCURVE",
"465 945 QCURVE",
"480 971 OFFCURVE",
"570 1055 QCURVE"
);
},
{
closed = 1;
nodes = (
"1286 581 OFFCURVE",
"1286 485 QCURVE SMOOTH",
"1286 425 LINE SMOOTH",
"1286 274 OFFCURVE",
"1151 160 QCURVE",
"904 0 OFFCURVE",
"620 0 QCURVE SMOOTH",
"590 0 LINE SMOOTH",
"207 0 OFFCURVE",
"120 235 QCURVE",
"105 279 OFFCURVE",
"100 340 QCURVE",
"100 526 OFFCURVE",
"205 640 QCURVE",
"215 638 OFFCURVE",
"215 630 QCURVE",
"185 527 OFFCURVE",
"185 470 QCURVE SMOOTH",
"185 461 LINE SMOOTH",
"185 223 OFFCURVE",
"555 165 QCURVE",
"609 165 OFFCURVE",
"645 160 QCURVE",
"924 160 OFFCURVE",
"1215 315 QCURVE",
"1215 428 OFFCURVE",
"1131 561 QCURVE",
"1150 618 OFFCURVE",
"1206 710 QCURVE"
);
}
);
width = 1371;
}
);
unicode = 062A;
},
{
glyphname = uni062B;
layers = (
{
anchors = (
{
name = t.uni064B;
position = "{628, 1385}";
},
{
name = b.uni064D_1;
position = "{585, -300}";
}
);
layerId = "445A555C-B070-40FB-B385-62320451654E";
paths = (
{
closed = 1;
nodes = (
"798 1013 OFFCURVE",
"845 961 OFFCURVE",
"901 915 QCURVE",
"793 801 LINE",
"733 838 OFFCURVE",
"681 913 QCURVE",
"774 1004 OFFCURVE",
"784 1016 QCURVE"
);
},
{
closed = 1;
nodes = (
"576 1013 OFFCURVE",
"623 960 OFFCURVE",
"679 915 QCURVE",
"681 912 LINE",
"571 801 LINE",
"511 838 OFFCURVE",
"460 913 QCURVE",
"552 1004 OFFCURVE",
"562 1016 QCURVE"
);
},
{
closed = 1;
nodes = (
"694 1240 OFFCURVE",
"741 1187 OFFCURVE",
"798 1141 QCURVE",
"799 1138 LINE",
"794 1135 OFFCURVE",
"689 1028 QCURVE",
"629 1065 OFFCURVE",
"578 1139 QCURVE",
"670 1231 OFFCURVE",
"680 1243 QCURVE"
);
},
{
closed = 1;
nodes = (
"1286 581 OFFCURVE",
"1286 485 QCURVE SMOOTH",
"1286 425 LINE SMOOTH",
"1286 274 OFFCURVE",
"1151 160 QCURVE",
"904 0 OFFCURVE",
"620 0 QCURVE SMOOTH",
"590 0 LINE SMOOTH",
"207 0 OFFCURVE",
"120 235 QCURVE",
"105 279 OFFCURVE",
"100 340 QCURVE",
"100 526 OFFCURVE",
"205 640 QCURVE",
"215 638 OFFCURVE",
"215 630 QCURVE",
"185 527 OFFCURVE",
"185 470 QCURVE SMOOTH",
"185 461 LINE SMOOTH",
"185 223 OFFCURVE",
"555 165 QCURVE",
"609 165 OFFCURVE",
"645 160 QCURVE",
"924 160 OFFCURVE",
"1215 315 QCURVE",
"1215 428 OFFCURVE",
"1131 561 QCURVE",
"1150 618 OFFCURVE",
"1206 710 QCURVE"
);
}
);
width = 1388;
}
);
unicode = 062B;
},
{
glyphname = uni062C;
layers = (
{
anchors = (
{
name = t.uni064B;
position = "{528, 918}";
},
{
name = b.uni064D_1;
position = "{561, -1042}";
}
);
layerId = "445A555C-B070-40FB-B385-62320451654E";
paths = (
{
closed = 1;
nodes = (
"145 706 OFFCURVE",
"359 742 QCURVE",
"382 742 LINE",
"387 742 LINE",
"420 742 LINE",
"427 740 LINE",
"435 740 OFFCURVE",
"443 738 QCURVE",
"448 738 LINE",
"458 738 LINE",
"465 737 LINE",
"471 737 OFFCURVE",
"481 735 QCURVE",
"486 735 LINE",
"492 735 LINE",
"522 729 LINE",
"530 729 LINE",
"545 725 LINE",
"551 725 LINE",
"559 723 LINE",
"564 723 LINE",
"572 721 LINE",
"581 719 LINE",
"589 719 LINE",
"597 718 LINE",
"609 717 OFFCURVE",
"627 712 QCURVE",
"637 712 LINE",
"667 706 LINE",
"675 706 LINE",
"690 702 LINE",
"696 702 LINE",
"726 699 LINE",
"732 699 LINE",
"738 697 LINE",
"745 697 LINE",
"751 697 LINE",
"757 695 LINE",
"764 695 LINE",
"772 695 LINE",
"778 693 LINE",
"785 693 LINE",
"798 691 LINE",
"871 687 LINE",
"897 687 LINE",
"907 688 OFFCURVE",
"918 685 QCURVE",
"924 685 LINE",
"934 685 LINE",
"968 685 LINE",
"975 685 LINE",
"991 684 OFFCURVE",
"1014 687 QCURVE",
"1029 687 LINE",
"1034 687 LINE",
"1044 687 LINE",
"1052 687 LINE",
"1059 687 LINE",
"1101 689 LINE",
"1126 689 LINE",
"1132 689 LINE",
"1137 689 LINE",
"1137 687 LINE",
"1137 689 LINE",
"1135 687 LINE",
"1137 687 LINE",
"1135 687 LINE",
"1125 673 OFFCURVE",
"1114 647 QCURVE",
"1112 646 OFFCURVE",
"1111 643 QCURVE",
"1107 638 LINE",
"1105 632 LINE",
"1101 626 LINE",
"1097 620 LINE",
"1084 596 LINE",
"1080 590 LINE",
"1076 584 LINE",
"1073 575 LINE",
"1069 567 LINE",
"1062 560 OFFCURVE",
"1057 548 QCURVE",
"1052 541 LINE",
"1048 533 LINE",
"1042 522 LINE",
"538 492 OFFCURVE",
"260 17 QCURVE",
"260 11 LINE",
"254 2 OFFCURVE",
"248 -11 QCURVE",
"246 -17 LINE",
"245 -21 LINE",
"244 -27 OFFCURVE",
"239 -36 QCURVE",
"237 -42 LINE",
"235 -48 LINE",
"234 -54 OFFCURVE",
"229 -63 QCURVE",
"226 -76 LINE",
"226 -82 LINE",
"220 -97 LINE",
"208 -156 LINE",
"205 -175 LINE",
"170 -515 OFFCURVE",
"500 -668 QCURVE",
"513 -678 OFFCURVE",
"534 -683 QCURVE",
"538 -685 LINE",
"542 -687 LINE",
"547 -689 LINE",
"553 -690 OFFCURVE",
"562 -695 QCURVE",
"595 -704 LINE",
"601 -704 LINE",
"606 -708 LINE",
"956 -790 OFFCURVE",
"1328 -640 QCURVE",
"1309 -657 LINE",
"1305 -659 LINE",
"1303 -662 LINE",
"1297 -664 LINE",
"1293 -668 LINE",
"1291 -672 LINE",
"1286 -674 LINE",
"1279 -681 OFFCURVE",
"1267 -689 QCURVE",
"1265 -693 LINE",
"1257 -697 LINE",
"1251 -702 LINE",
"1244 -706 LINE",
"1238 -712 LINE",
"1231 -716 LINE",
"1225 -719 LINE",
"1217 -725 LINE",
"1208 -733 LINE",
"1195 -738 OFFCURVE",
"1181 -750 QCURVE",
"1168 -755 OFFCURVE",
"1149 -767 QCURVE SMOOTH",
"1137 -775 LINE",
"1128 -777 OFFCURVE",
"1116 -784 QCURVE",
"1111 -786 LINE",
"1107 -790 LINE",
"1097 -794 LINE",
"1092 -798 LINE",
"1083 -799 OFFCURVE",
"1074 -805 QCURVE",
"1069 -807 LINE",
"1038 -818 LINE",
"1034 -820 LINE",
"1019 -824 OFFCURVE",
"998 -834 QCURVE",
"995 -834 OFFCURVE",
"993 -836 QCURVE",
"975 -839 LINE",
"972 -841 LINE",
"964 -843 OFFCURVE",
"953 -847 QCURVE",
"946 -848 OFFCURVE",
"939 -851 QCURVE",
"932 -853 LINE",
"924 -853 LINE",
"916 -855 LINE",
"909 -857 LINE",
"901 -858 LINE",
"871 -864 LINE",
"863 -866 LINE",
"857 -866 LINE",
"852 -868 LINE",
"839 -867 OFFCURVE",
"823 -872 QCURVE",
"808 -872 LINE",
"804 -874 LINE",
"797 -874 LINE",
"778 -876 LINE",
"772 -876 LINE",
"766 -876 LINE",
"760 -876 LINE",
"755 -877 LINE",
"749 -877 LINE",
"743 -877 LINE",
"720 -877 LINE",
"715 -877 LINE",
"682 -877 LINE",
"675 -877 LINE",
"667 -877 LINE",
"660 -877 LINE",
"635 -877 LINE",
"623 -874 OFFCURVE",
"604 -874 QCURVE",
"599 -872 OFFCURVE",
"589 -872 QCURVE",
"583 -870 LINE",
"578 -870 LINE",
"572 -868 LINE",
"540 -862 LINE",
"528 -860 LINE",
"521 -857 LINE",
"511 -855 LINE",
"502 -853 LINE",
"492 -851 LINE",
"450 -836 LINE",
"444 -834 LINE",
"441 -832 OFFCURVE",
"437 -832 QCURVE",
"403 -815 LINE",
"399 -813 LINE",
"389 -809 LINE",
"372 -799 LINE",
"364 -798 LINE",
"359 -792 LINE",
"351 -790 LINE",
"341 -780 OFFCURVE",
"325 -773 QCURVE",
"318 -766 OFFCURVE",
"307 -759 QCURVE",
"302 -754 LINE",
"296 -752 LINE",
"292 -746 LINE",
"285 -740 LINE",
"277 -737 LINE",
"276 -735 OFFCURVE",
"273 -733 QCURVE",
"269 -727 LINE",
"264 -725 LINE",
"254 -712 OFFCURVE",
"235 -697 QCURVE",
"234 -695 OFFCURVE",
"231 -693 QCURVE",
"231 -691 OFFCURVE",
"229 -689 QCURVE",
"226 -683 LINE",
"222 -679 LINE",
"212 -668 LINE",
"208 -662 LINE",
"203 -659 LINE",
"201 -654 OFFCURVE",
"197 -651 QCURVE",
"191 -637 OFFCURVE",
"176 -620 QCURVE",
"159 -586 LINE",
"151 -573 LINE",
"146 -564 OFFCURVE",
"144 -554 QCURVE",
"138 -546 LINE",
"135 -532 OFFCURVE",
"127 -514 QCURVE",
"125 -506 LINE",
"123 -502 LINE",
"123 -500 OFFCURVE",
"121 -499 QCURVE",
"119 -485 LINE",
"115 -480 LINE",
"115 -472 LINE",
"108 -456 OFFCURVE",
"106 -430 QCURVE",
"104 -426 LINE",
"104 -421 OFFCURVE",
"102 -417 QCURVE",
"100 -390 LINE SMOOTH",
"99 -380 OFFCURVE",
"96 -369 QCURVE",
"80 12 OFFCURVE",
"349 335 QCURVE",
"362 345 OFFCURVE",
"376 362 QCURVE",
"387 371 LINE",
"391 375 LINE",
"396 382 OFFCURVE",
"406 390 QCURVE",
"410 396 LINE",
"418 400 OFFCURVE",
"427 409 QCURVE",
"431 415 LINE",
"434 416 OFFCURVE",
"437 419 QCURVE",
"445 424 OFFCURVE",
"454 432 QCURVE",
"465 439 OFFCURVE",
"481 455 QCURVE",
"491 459 OFFCURVE",
"498 466 QCURVE",
"507 470 OFFCURVE",
"517 480 QCURVE",
"522 482 LINE",
"538 493 LINE",
"545 497 LINE",
"551 502 LINE",
"559 505 OFFCURVE",
"568 512 QCURVE SMOOTH",
"576 518 LINE",
"590 523 OFFCURVE",
"606 535 QCURVE",
"618 539 LINE",
"625 544 LINE",
"613 543 OFFCURVE",
"595 548 QCURVE",
"589 548 OFFCURVE",
"580 550 QCURVE",
"572 550 LINE",
"568 552 LINE",
"562 554 LINE",
"551 555 OFFCURVE",
"536 560 QCURVE",
"526 560 LINE",
"496 567 LINE",
"481 569 LINE",
"475 571 LINE",
"469 571 LINE",
"460 574 OFFCURVE",
"446 575 QCURVE",
"271 615 OFFCURVE",
"130 485 QCURVE"
);
},
{
closed = 1;
nodes = (
"757 -55 OFFCURVE",
"804 -108 OFFCURVE",
"860 -154 QCURVE",
"862 -157 LINE",
"857 -160 OFFCURVE",
"752 -267 QCURVE",
"692 -230 OFFCURVE",
"640 -156 QCURVE",
"733 -64 OFFCURVE",
"743 -52 QCURVE"
);
}
);
width = 1119;
}
);
unicode = 062C;
},
{
glyphname = uni062D;
layers = (
{
anchors = (
{
name = t.uni064B;
position = "{500, 961}";
},
{
name = b.uni064D_1;
position = "{533, -1085}";
}
);
layerId = "445A555C-B070-40FB-B385-62320451654E";
paths = (
{
closed = 1;
nodes = (
"153 706 OFFCURVE",
"366 742 QCURVE",
"389 742 LINE",
"395 742 LINE",
"427 742 LINE",
"435 740 LINE",
"443 740 OFFCURVE",
"450 738 QCURVE",
"456 738 LINE",
"465 738 LINE",
"473 737 LINE",
"479 737 OFFCURVE",
"488 735 QCURVE",
"494 735 LINE",
"500 735 LINE",
"530 729 LINE",
"538 729 LINE",
"553 725 LINE",
"559 725 LINE",
"566 723 LINE",
"572 723 LINE",
"580 721 LINE",
"589 719 LINE",
"597 719 LINE",
"604 718 LINE",
"616 717 OFFCURVE",
"635 712 QCURVE",
"644 712 LINE",
"675 706 LINE",
"682 706 LINE",
"698 702 LINE",
"703 702 LINE",
"734 699 LINE",
"739 699 LINE",
"745 697 LINE",
"753 697 LINE",
"758 697 LINE",
"764 695 LINE",
"772 695 LINE",
"779 695 LINE",
"785 693 LINE",
"793 693 LINE",
"806 691 LINE",
"878 687 LINE",
"905 687 LINE",
"915 688 OFFCURVE",
"926 685 QCURVE",
"932 685 LINE",
"941 685 LINE",
"975 685 LINE",
"983 685 LINE",
"999 684 OFFCURVE",
"1021 687 QCURVE",
"1036 687 LINE",
"1042 687 LINE",
"1052 687 LINE",
"1059 687 LINE",
"1067 687 LINE",
"1109 689 LINE",
"1133 689 LINE",
"1139 689 LINE",
"1145 689 LINE",
"1145 687 LINE",
"1145 689 LINE",
"1143 687 LINE",
"1145 687 LINE",
"1143 687 LINE",
"1133 673 OFFCURVE",
"1122 647 QCURVE",
"1120 646 OFFCURVE",
"1118 643 QCURVE",
"1114 638 LINE",
"1113 632 LINE",
"1109 626 LINE",
"1105 620 LINE",
"1092 596 LINE",
"1088 590 LINE",
"1084 584 LINE",
"1080 575 LINE",
"1076 567 LINE",
"1069 560 OFFCURVE",
"1065 548 QCURVE",
"1059 541 LINE",
"1055 533 LINE",
"1050 522 LINE",
"546 492 OFFCURVE",
"267 17 QCURVE",
"267 11 LINE",
"261 2 OFFCURVE",
"256 -11 QCURVE",
"254 -17 LINE",
"252 -21 LINE",
"251 -27 OFFCURVE",
"246 -36 QCURVE",
"245 -42 LINE",
"243 -48 LINE",
"242 -54 OFFCURVE",
"237 -63 QCURVE",
"233 -76 LINE",
"233 -82 LINE",
"227 -97 LINE",
"216 -156 LINE",
"212 -175 LINE",
"177 -515 OFFCURVE",
"507 -668 QCURVE",
"520 -678 OFFCURVE",
"542 -683 QCURVE",
"545 -685 LINE",
"549 -687 LINE",
"555 -689 LINE",
"561 -690 OFFCURVE",
"570 -695 QCURVE",
"602 -704 LINE",
"608 -704 LINE",
"614 -708 LINE",
"964 -790 OFFCURVE",
"1335 -640 QCURVE",
"1316 -657 LINE",
"1312 -659 LINE",
"1310 -662 LINE",
"1305 -664 LINE",
"1301 -668 LINE",
"1299 -672 LINE",
"1293 -674 LINE",
"1286 -681 OFFCURVE",
"1274 -689 QCURVE",
"1272 -693 LINE",
"1265 -697 LINE",
"1259 -702 LINE",
"1251 -706 LINE",
"1246 -712 LINE",
"1238 -716 LINE",
"1232 -719 LINE",
"1225 -725 LINE",
"1215 -733 LINE",
"1202 -738 OFFCURVE",
"1189 -750 QCURVE",
"1176 -755 OFFCURVE",
"1156 -767 QCURVE",
"1145 -775 LINE",
"1136 -777 OFFCURVE",
"1124 -784 QCURVE",
"1118 -786 LINE",
"1114 -790 LINE",
"1105 -794 LINE",
"1099 -798 LINE",
"1090 -799 OFFCURVE",
"1082 -805 QCURVE",
"1076 -807 LINE",
"1046 -818 LINE",
"1042 -820 LINE",
"1027 -824 OFFCURVE",
"1006 -834 QCURVE",
"1003 -834 OFFCURVE",
"1000 -836 QCURVE",
"983 -839 LINE",
"979 -841 LINE",
"971 -843 OFFCURVE",
"960 -847 QCURVE",
"953 -848 OFFCURVE",
"947 -851 QCURVE",
"939 -853 LINE",
"932 -853 LINE",
"924 -855 LINE",
"916 -857 LINE",
"909 -858 LINE",
"878 -864 LINE",
"871 -866 LINE",
"865 -866 LINE",
"859 -868 LINE",
"846 -867 OFFCURVE",
"831 -872 QCURVE",
"816 -872 LINE",
"812 -874 LINE",
"804 -874 LINE",
"785 -876 LINE",
"779 -876 LINE",
"774 -876 LINE",
"768 -876 LINE",
"762 -877 LINE",
"757 -877 LINE",
"751 -877 LINE",
"728 -877 LINE",
"722 -877 LINE",
"690 -877 LINE",
"682 -877 LINE",
"675 -877 LINE",
"667 -877 LINE",
"642 -877 LINE",
"630 -874 OFFCURVE",
"612 -874 QCURVE",
"607 -872 OFFCURVE",
"597 -872 QCURVE",
"591 -870 LINE",
"585 -870 LINE",
"580 -868 LINE",
"547 -862 LINE",
"536 -860 LINE",
"528 -857 LINE",
"519 -855 LINE",
"509 -853 LINE",
"500 -851 LINE",
"458 -836 LINE",
"452 -834 LINE",
"449 -832 OFFCURVE",
"444 -832 QCURVE",
"410 -815 LINE",
"406 -813 LINE",
"397 -809 LINE",
"380 -799 LINE",
"372 -798 LINE",
"366 -792 LINE",
"359 -790 LINE",
"349 -780 OFFCURVE",
"332 -773 QCURVE",
"325 -766 OFFCURVE",
"315 -759 QCURVE",
"309 -754 LINE",
"304 -752 LINE",
"300 -746 LINE",
"292 -740 LINE",
"285 -737 LINE",
"284 -735 OFFCURVE",
"281 -733 QCURVE",
"277 -727 LINE",
"271 -725 LINE",
"261 -712 OFFCURVE",
"243 -697 QCURVE",
"242 -695 OFFCURVE",
"239 -693 QCURVE",
"239 -691 OFFCURVE",
"237 -689 QCURVE",
"233 -683 LINE",
"229 -679 LINE",
"220 -668 LINE",
"216 -662 LINE",
"210 -659 LINE",
"208 -654 OFFCURVE",
"205 -651 QCURVE",
"199 -637 OFFCURVE",
"184 -620 QCURVE",
"167 -586 LINE",
"159 -573 LINE",
"154 -564 OFFCURVE",
"151 -554 QCURVE",
"146 -546 LINE",
"143 -532 OFFCURVE",
"134 -514 QCURVE",
"132 -506 LINE",
"130 -502 LINE",
"130 -500 OFFCURVE",
"128 -499 QCURVE",
"127 -485 LINE",
"123 -480 LINE",
"123 -472 LINE",
"116 -456 OFFCURVE",
"113 -430 QCURVE",
"111 -426 LINE",
"111 -421 OFFCURVE",
"109 -417 QCURVE",
"108 -390 LINE",
"107 -380 OFFCURVE",
"104 -369 QCURVE",
"88 12 OFFCURVE",
"357 335 QCURVE",
"370 345 OFFCURVE",
"384 362 QCURVE",
"395 371 LINE",
"399 375 LINE",
"404 382 OFFCURVE",
"414 390 QCURVE",
"418 396 LINE",
"426 400 OFFCURVE",
"435 409 QCURVE",
"439 415 LINE",
"442 416 OFFCURVE",
"444 419 QCURVE",
"452 424 OFFCURVE",
"462 432 QCURVE",
"473 439 OFFCURVE",
"488 455 QCURVE",
"498 459 OFFCURVE",
"505 466 QCURVE",
"514 470 OFFCURVE",
"524 480 QCURVE",
"530 482 LINE",
"545 493 LINE",
"553 497 LINE",
"559 502 LINE",
"567 505 OFFCURVE",
"576 512 QCURVE",
"583 518 LINE",
"597 523 OFFCURVE",
"614 535 QCURVE",
"625 539 LINE",
"633 544 LINE",
"621 543 OFFCURVE",
"602 548 QCURVE",
"596 548 OFFCURVE",
"587 550 QCURVE",
"580 550 LINE",
"576 552 LINE",
"570 554 LINE",
"559 555 OFFCURVE",
"543 560 QCURVE",
"534 560 LINE",
"503 567 LINE",
"488 569 LINE",
"482 571 LINE",
"477 571 LINE",
"468 574 OFFCURVE",
"454 575 QCURVE",
"279 615 OFFCURVE",
"138 485 QCURVE"
);
}
);
width = 1122;
}
);
unicode = 062D;
},
{
glyphname = uni062E;
layers = (
{
anchors = (
{
name = t.uni064B;
position = "{514, 1561}";
},
{
name = b.uni064D_1;
position = "{490, -1028}";
}
);
layerId = "445A555C-B070-40FB-B385-62320451654E";
paths = (
{
closed = 1;
nodes = (
"145 706 OFFCURVE",
"359 742 QCURVE",
"382 742 LINE",
"387 742 LINE",
"420 742 LINE",
"427 740 LINE",
"435 740 OFFCURVE",
"443 738 QCURVE",
"448 738 LINE",
"458 738 LINE",
"465 737 LINE",
"471 737 OFFCURVE",
"481 735 QCURVE",
"486 735 LINE",
"492 735 LINE",
"522 729 LINE",
"530 729 LINE",
"545 725 LINE",
"551 725 LINE",
"559 723 LINE",
"564 723 LINE",
"572 721 LINE",
"581 719 LINE",
"589 719 LINE",
"597 718 LINE",
"609 717 OFFCURVE",
"627 712 QCURVE",
"637 712 LINE",
"667 706 LINE",
"675 706 LINE",
"690 702 LINE",
"696 702 LINE",
"726 699 LINE",
"732 699 LINE",
"738 697 LINE",
"745 697 LINE",
"751 697 LINE",
"757 695 LINE",
"764 695 LINE",
"772 695 LINE",
"778 693 LINE",
"785 693 LINE",
"798 691 LINE",
"871 687 LINE",
"897 687 LINE",
"907 688 OFFCURVE",
"918 685 QCURVE",
"924 685 LINE",
"934 685 LINE",
"968 685 LINE",
"975 685 LINE",
"991 684 OFFCURVE",
"1014 687 QCURVE",
"1029 687 LINE",
"1034 687 LINE",
"1044 687 LINE",
"1052 687 LINE",
"1059 687 LINE",
"1101 689 LINE",
"1126 689 LINE",
"1132 689 LINE",
"1137 689 LINE",
"1137 687 LINE",
"1137 689 LINE",
"1135 687 LINE",
"1137 687 LINE",
"1135 687 LINE",
"1125 673 OFFCURVE",
"1114 647 QCURVE",
"1112 646 OFFCURVE",
"1111 643 QCURVE",
"1107 638 LINE",
"1105 632 LINE",
"1101 626 LINE",
"1097 620 LINE",
"1084 596 LINE",
"1080 590 LINE",
"1076 584 LINE",
"1073 575 LINE",
"1069 567 LINE",
"1062 560 OFFCURVE",
"1057 548 QCURVE",
"1052 541 LINE",
"1048 533 LINE",
"1042 522 LINE",
"538 492 OFFCURVE",
"260 17 QCURVE",
"260 11 LINE",
"254 2 OFFCURVE",
"248 -11 QCURVE",
"246 -17 LINE",
"245 -21 LINE",
"244 -27 OFFCURVE",
"239 -36 QCURVE",
"237 -42 LINE",
"235 -48 LINE",
"234 -54 OFFCURVE",
"229 -63 QCURVE",
"226 -76 LINE",
"226 -82 LINE",
"220 -97 LINE",
"208 -156 LINE",
"205 -175 LINE",
"170 -515 OFFCURVE",
"500 -668 QCURVE",
"513 -678 OFFCURVE",
"534 -683 QCURVE",
"538 -685 LINE",
"542 -687 LINE",
"547 -689 LINE",
"553 -690 OFFCURVE",
"562 -695 QCURVE",
"595 -704 LINE",
"601 -704 LINE",
"606 -708 LINE",
"956 -790 OFFCURVE",
"1328 -640 QCURVE",
"1309 -657 LINE",
"1305 -659 LINE",
"1303 -662 LINE",
"1297 -664 LINE",
"1293 -668 LINE",
"1291 -672 LINE",
"1286 -674 LINE",
"1279 -681 OFFCURVE",
"1267 -689 QCURVE",
"1265 -693 LINE",
"1257 -697 LINE",
"1251 -702 LINE",
"1244 -706 LINE",
"1238 -712 LINE",
"1231 -716 LINE",
"1225 -719 LINE",
"1217 -725 LINE",
"1208 -733 LINE",
"1195 -738 OFFCURVE",
"1181 -750 QCURVE",
"1168 -755 OFFCURVE",
"1149 -767 QCURVE SMOOTH",
"1137 -775 LINE",
"1128 -777 OFFCURVE",
"1116 -784 QCURVE",
"1111 -786 LINE",
"1107 -790 LINE",
"1097 -794 LINE",
"1092 -798 LINE",
"1083 -799 OFFCURVE",
"1074 -805 QCURVE",
"1069 -807 LINE",
"1038 -818 LINE",
"1034 -820 LINE",
"1019 -824 OFFCURVE",
"998 -834 QCURVE",
"995 -834 OFFCURVE",
"993 -836 QCURVE",
"975 -839 LINE",
"972 -841 LINE",
"964 -843 OFFCURVE",
"953 -847 QCURVE",
"946 -848 OFFCURVE",
"939 -851 QCURVE",
"932 -853 LINE",
"924 -853 LINE",
"916 -855 LINE",
"909 -857 LINE",
"901 -858 LINE",
"871 -864 LINE",
"863 -866 LINE",
"857 -866 LINE",
"852 -868 LINE",
"839 -867 OFFCURVE",
"823 -872 QCURVE",
"808 -872 LINE",
"804 -874 LINE",
"797 -874 LINE",
"778 -876 LINE",
"772 -876 LINE",
"766 -876 LINE",
"760 -876 LINE",
"755 -877 LINE",
"749 -877 LINE",
"743 -877 LINE",
"720 -877 LINE",
"715 -877 LINE",
"682 -877 LINE",
"675 -877 LINE",
"667 -877 LINE",
"660 -877 LINE",
"635 -877 LINE",
"623 -874 OFFCURVE",
"604 -874 QCURVE",
"599 -872 OFFCURVE",
"589 -872 QCURVE",
"583 -870 LINE",
"578 -870 LINE",
"572 -868 LINE",
"540 -862 LINE",
"528 -860 LINE",
"521 -857 LINE",
"511 -855 LINE",
"502 -853 LINE",
"492 -851 LINE",
"450 -836 LINE",
"444 -834 LINE",
"441 -832 OFFCURVE",
"437 -832 QCURVE",
"403 -815 LINE",
"399 -813 LINE",
"389 -809 LINE",
"372 -799 LINE",
"364 -798 LINE",
"359 -792 LINE",
"351 -790 LINE",
"341 -780 OFFCURVE",
"325 -773 QCURVE",
"318 -766 OFFCURVE",
"307 -759 QCURVE",
"302 -754 LINE",
"296 -752 LINE",
"292 -746 LINE",
"285 -740 LINE",
"277 -737 LINE",
"276 -735 OFFCURVE",
"273 -733 QCURVE",
"269 -727 LINE",
"264 -725 LINE",
"254 -712 OFFCURVE",
"235 -697 QCURVE",
"234 -695 OFFCURVE",
"231 -693 QCURVE",
"231 -691 OFFCURVE",
"229 -689 QCURVE",
"226 -683 LINE",
"222 -679 LINE",
"212 -668 LINE",
"208 -662 LINE",
"203 -659 LINE",
"201 -654 OFFCURVE",
"197 -651 QCURVE",
"191 -637 OFFCURVE",
"176 -620 QCURVE",
"159 -586 LINE",
"151 -573 LINE",
"146 -564 OFFCURVE",
"144 -554 QCURVE",
"138 -546 LINE",
"135 -532 OFFCURVE",
"127 -514 QCURVE",
"125 -506 LINE",
"123 -502 LINE",
"123 -500 OFFCURVE",
"121 -499 QCURVE",
"119 -485 LINE",
"115 -480 LINE",
"115 -472 LINE",
"108 -456 OFFCURVE",
"106 -430 QCURVE",
"104 -426 LINE",
"104 -421 OFFCURVE",
"102 -417 QCURVE",
"100 -390 LINE SMOOTH",
"99 -380 OFFCURVE",
"96 -369 QCURVE",
"80 12 OFFCURVE",
"349 335 QCURVE",
"362 345 OFFCURVE",
"376 362 QCURVE",
"387 371 LINE",
"391 375 LINE",
"396 382 OFFCURVE",
"406 390 QCURVE",
"410 396 LINE",
"418 400 OFFCURVE",
"427 409 QCURVE",
"431 415 LINE",
"434 416 OFFCURVE",
"437 419 QCURVE",
"445 424 OFFCURVE",
"454 432 QCURVE",
"465 439 OFFCURVE",
"481 455 QCURVE",
"491 459 OFFCURVE",
"498 466 QCURVE",
"507 470 OFFCURVE",
"517 480 QCURVE",
"522 482 LINE",
"538 493 LINE",
"545 497 LINE",
"551 502 LINE",
"559 505 OFFCURVE",
"568 512 QCURVE SMOOTH",
"576 518 LINE",
"590 523 OFFCURVE",
"606 535 QCURVE",
"618 539 LINE",
"625 544 LINE",
"613 543 OFFCURVE",
"595 548 QCURVE",
"589 548 OFFCURVE",
"580 550 QCURVE",
"572 550 LINE",
"568 552 LINE",
"562 554 LINE",
"551 555 OFFCURVE",
"536 560 QCURVE",
"526 560 LINE",
"496 567 LINE",
"481 569 LINE",
"475 571 LINE",
"469 571 LINE",
"460 574 OFFCURVE",
"446 575 QCURVE",
"271 615 OFFCURVE",
"130 485 QCURVE"
);
},
{
closed = 1;
nodes = (
"656 1366 OFFCURVE",
"703 1313 OFFCURVE",
"759 1268 QCURVE",
"761 1265 LINE",
"756 1262 OFFCURVE",
"651 1154 QCURVE",
"591 1191 OFFCURVE",
"540 1266 QCURVE",
"632 1357 OFFCURVE",
"642 1369 QCURVE"
);
}
);
width = 1115;
}
);
unicode = 062E;
},
{
glyphname = uni062F;
layers = (
{
anchors = (
{
name = t.uni064B;
position = "{257, 799}";
},
{
name = b.uni064D_1;
position = "{271, -200}";
}
);
layerId = "445A555C-B070-40FB-B385-62320451654E";
paths = (
{
closed = 1;
nodes = (
"331 699 LINE",
"335 699 LINE",
"368 674 OFFCURVE",
"474 544 QCURVE",
"585 378 OFFCURVE",
"585 298 QCURVE SMOOTH",
"585 282 LINE SMOOTH",
"585 180 OFFCURVE",
"502 95 QCURVE",
"342 4 OFFCURVE",
"156 4 QCURVE SMOOTH",
"72 4 LINE",
"65 8 LINE",
"71 68 OFFCURVE",
"128 167 QCURVE",
"156 163 LINE",
"192 163 LINE SMOOTH",
"325 163 OFFCURVE",
"494 238 QCURVE",
"494 246 LINE",
"461 354 OFFCURVE",
"307 517 QCURVE",
"267 549 OFFCURVE",
"267 552 QCURVE"
);
}
);
width = 653;
}
);
unicode = 062F;
},
{
glyphname = uni0631;
layers = (
{
anchors = (
{
name = t.uni064B;
position = "{300, 642}";
},
{
name = b.uni064D_1;
position = "{29, -657}";
}
);
layerId = "445A555C-B070-40FB-B385-62320451654E";
paths = (
{
closed = 1;
nodes = (
"364 573 LINE",
"417 494 LINE",
"460 392 LINE",
"475 321 LINE",
"475 196 LINE",
"456 99 LINE",
"417 -7 LINE",
"362 -96 LINE",
"300 -165 LINE",
"218 -227 LINE",
"140 -266 LINE",
"62 -288 LINE",
"10 -295 LINE",
"-83 -286 LINE",
"-183 -257 LINE",
"-212 -243 LINE",
"-221 -237 LINE",
"-226 -234 OFFCURVE",
"-230 -231 QCURVE",
"-248 -221 LINE",
"-294 -180 LINE",
"-321 -148 LINE",
"-338 -122 LINE",
"-339 -119 OFFCURVE",
"-341 -115 QCURVE",
"-336 -116 LINE",
"-212 -151 LINE",
"-69 -167 LINE",
"32 -154 LINE",
"120 -126 LINE",
"149 -112 LINE",
"159 -107 LINE",
"164 -105 OFFCURVE",
"168 -102 QCURVE",
"283 -28 LINE",
"342 29 LINE",
"409 120 LINE",
"418 141 LINE",
"421 167 LINE",
"420 194 LINE",
"412 230 LINE",
"386 291 LINE",
"342 363 LINE",
"335 370 LINE",
"311 404 LINE",
"308 408 OFFCURVE",
"307 414 QCURVE"
);
}
);
width = 560;
}
);
unicode = 0631;
},
{
glyphname = uni0632;
layers = (
{
anchors = (
{
name = t.uni064B;
position = "{200, 1228}";
},
{
name = b.uni064D_1;
position = "{14, -757}";
}
);
layerId = "445A555C-B070-40FB-B385-62320451654E";
paths = (
{
closed = 1;
nodes = (
"285 1073 OFFCURVE",
"332 1020 OFFCURVE",
"388 975 QCURVE",
"390 972 LINE",
"385 969 OFFCURVE",
"280 861 QCURVE",
"220 898 OFFCURVE",
"168 973 QCURVE",
"261 1064 OFFCURVE",
"271 1076 QCURVE"
);
},
{
closed = 1;
nodes = (
"293 573 LINE",
"345 494 LINE",
"388 392 LINE",
"404 321 LINE",
"404 196 LINE",
"384 99 LINE",
"345 -7 LINE",
"290 -96 LINE",
"228 -165 LINE",
"147 -227 LINE",
"69 -266 LINE",
"-10 -288 LINE",
"-61 -295 LINE",
"-154 -286 LINE",
"-254 -257 LINE",
"-284 -243 LINE",
"-292 -237 LINE",
"-297 -234 OFFCURVE",
"-302 -231 QCURVE",
"-320 -221 LINE",
"-365 -180 LINE",
"-392 -148 LINE",
"-409 -122 LINE",
"-410 -119 OFFCURVE",
"-412 -115 QCURVE",
"-407 -116 LINE",
"-284 -151 LINE",
"-141 -167 LINE",
"-39 -154 LINE",
"49 -126 LINE",
"78 -112 LINE",
"88 -107 LINE",
"93 -105 OFFCURVE",
"97 -102 QCURVE",
"211 -28 LINE",
"270 29 LINE",
"338 120 LINE",
"346 141 LINE",
"349 167 LINE",
"348 194 LINE",
"341 230 LINE",
"315 291 LINE",
"270 363 LINE",
"264 370 LINE",
"240 404 LINE",
"237 408 OFFCURVE",
"236 414 QCURVE"
);
}
);
width = 473;
}
);
unicode = 0632;
},
{
glyphname = uni0633;
layers = (
{
anchors = (
{
name = t.uni064B;
position = "{914, 714}";
},
{
name = b.uni064D_1;
position = "{757, -671}";
}
);
layerId = "445A555C-B070-40FB-B385-62320451654E";
paths = (
{
closed = 1;
nodes = (
"1628 389 OFFCURVE",
"1644 288 QCURVE",
"1648 250 OFFCURVE",
"1647 216 QCURVE",
"1647 83 OFFCURVE",
"1555 28 QCURVE",
"1555 15 OFFCURVE",
"1483 -1 QCURVE",
"1459 -1 LINE SMOOTH",
"1378 -1 OFFCURVE",
"1274 100 QCURVE",
"1191 -57 OFFCURVE",
"1098 -57 QCURVE SMOOTH",
"1078 -57 LINE",
"1050 -53 LINE",
"1031 -183 OFFCURVE",
"978 -253 QCURVE",
"760 -494 OFFCURVE",
"505 -494 QCURVE SMOOTH",
"449 -494 LINE SMOOTH",
"316 -494 OFFCURVE",
"181 -405 QCURVE",
"56 -302 OFFCURVE",
"56 -117 QCURVE SMOOTH",
"56 -77 LINE",
"64 114 OFFCURVE",
"148 284 QCURVE",
"181 316 LINE",
"188 316 LINE",
"196 315 OFFCURVE",
"196 308 QCURVE SMOOTH",
"196 304 LINE SMOOTH",
"196 274 OFFCURVE",
"140 131 QCURVE",
"129 40 OFFCURVE",
"128 23 QCURVE",
"128 -205 OFFCURVE",
"361 -302 QCURVE SMOOTH",
"436 -333 OFFCURVE",
"537 -333 QCURVE SMOOTH",
"777 -333 OFFCURVE",
"958 -149 QCURVE",
"958 -45 OFFCURVE",
"857 196 QCURVE",
"934 322 OFFCURVE",
"942 340 QCURVE",
"954 340 LINE",
"954 336 LINE SMOOTH",
"954 224 OFFCURVE",
"1062 131 QCURVE",
"1106 115 OFFCURVE",
"1138 115 QCURVE SMOOTH",
"1247 115 OFFCURVE",
"1323 304 QCURVE",
"1327 304 LINE",
"1395 168 OFFCURVE",
"1519 167 QCURVE",
"1555 171 LINE",
"1523 276 OFFCURVE",
"1523 288 QCURVE",
"1574 390 OFFCURVE",
"1604 428 QCURVE"
);
}
);
width = 1702;
}
);
unicode = 0633;
},
{
glyphname = uni0634;
layers = (
{
anchors = (
{
name = t.uni064B;
position = "{1028, 1213}";
},
{
name = b.uni064D_1;
position = "{757, -642}";
}
);
layerId = "445A555C-B070-40FB-B385-62320451654E";
paths = (
{
closed = 1;
nodes = (
"1476 377 LINE",
"1484 377 LINE",
"1476 377 LINE",
"1484 377 LINE",
"1486 355 OFFCURVE",
"1499 331 QCURVE",
"1506 301 LINE",
"1506 289 LINE",
"1510 282 LINE",
"1514 266 LINE",
"1514 251 LINE",
"1518 236 LINE",
"1518 190 LINE",
"1518 179 LINE",
"1514 114 LINE",
"1503 98 OFFCURVE",
"1495 72 QCURVE",
"1483 62 OFFCURVE",
"1476 46 QCURVE",
"1333 -83 OFFCURVE",
"1179 80 QCURVE",
"1123 -65 OFFCURVE",
"966 -65 QCURVE",
"955 -264 OFFCURVE",
"776 -392 QCURVE",
"568 -544 OFFCURVE",
"296 -445 QCURVE",
"267 -436 OFFCURVE",
"227 -411 QCURVE",
"220 -407 LINE",
"211 -398 OFFCURVE",
"197 -392 QCURVE",
"-44 -125 OFFCURVE",
"227 225 QCURVE",
"243 220 OFFCURVE",
"239 198 QCURVE",
"101 -33 OFFCURVE",
"246 -217 QCURVE",
"382 -357 OFFCURVE",
"604 -327 QCURVE",
"757 -302 OFFCURVE",
"894 -194 QCURVE",
"892 -169 OFFCURVE",
"882 -133 QCURVE",
"877 -84 OFFCURVE",
"852 -19 QCURVE",
"853 -15 OFFCURVE",
"848 -11 QCURVE",
"847 5 OFFCURVE",
"837 19 QCURVE",
"821 65 LINE",
"817 72 LINE",
"810 80 LINE",
"809 95 OFFCURVE",
"798 110 QCURVE",
"840 206 LINE",
"852 232 LINE",
"856 244 LINE",
"863 251 LINE",
"871 266 LINE",
"878 282 LINE",
"902 141 OFFCURVE",
"1031 95 QCURVE",
"1176 96 OFFCURVE",
"1225 263 QCURVE",
"1284 132 OFFCURVE",
"1434 145 QCURVE",
"1430 175 OFFCURVE",
"1415 217 QCURVE",
"1404 244 LINE",
"1446 324 LINE",
"1453 335 LINE",
"1457 346 LINE",
"1461 347 OFFCURVE",
"1465 354 QCURVE",
"1472 365 LINE"
);
},
{
closed = 1;
nodes = (
"1288 877 OFFCURVE",
"1335 825 OFFCURVE",
"1391 778 QCURVE",
"1283 665 LINE",
"1223 702 OFFCURVE",
"1172 777 QCURVE",
"1264 868 OFFCURVE",
"1274 880 QCURVE"
);
},
{
closed = 1;
nodes = (
"1067 877 OFFCURVE",
"1113 824 OFFCURVE",
"1170 778 QCURVE",
"1172 776 LINE",
"1061 665 LINE",
"1001 702 OFFCURVE",
"950 777 QCURVE",
"1043 868 OFFCURVE",
"1053 880 QCURVE"
);
},
{
closed = 1;
nodes = (
"1185 1104 OFFCURVE",
"1231 1051 OFFCURVE",
"1288 1005 QCURVE",
"1290 1002 LINE",
"1285 999 OFFCURVE",
"1179 892 QCURVE",
"1119 929 OFFCURVE",
"1068 1003 QCURVE",
"1161 1095 OFFCURVE",
"1171 1107 QCURVE"
);
}
);
width = 1562;
}
);
unicode = 0634;
},
{
glyphname = uni0635;
layers = (
{
anchors = (
{
name = t.uni064B;
position = "{1213, 1075}";
},
{
name = b.uni064D_1;
position = "{585, -714}";
}
);
layerId = "445A555C-B070-40FB-B385-62320451654E";
paths = (
{
closed = 1;
nodes = (
"1935 592 OFFCURVE",
"1936 406 QCURVE",
"1936 321 OFFCURVE",
"1876 219 QCURVE",
"1857 168 OFFCURVE",
"1743 110 QCURVE SMOOTH",
"1523 -2 OFFCURVE",
"1315 -2 QCURVE SMOOTH",
"1283 -2 LINE SMOOTH",
"1177 -2 OFFCURVE",
"1094 30 QCURVE",
"1094 18 LINE SMOOTH",
"1094 -226 OFFCURVE",
"918 -346 QCURVE",
"741 -486 OFFCURVE",
"529 -486 QCURVE SMOOTH",
"228 -486 OFFCURVE",
"128 -262 QCURVE",
"100 -184 OFFCURVE",
"101 -114 QCURVE",
"101 -86 LINE SMOOTH",
"101 78 OFFCURVE",
"181 266 QCURVE",
"208 311 OFFCURVE",
"229 326 QCURVE",
"235 326 OFFCURVE",
"241 315 QCURVE",
"241 306 LINE SMOOTH",
"241 284 OFFCURVE",
"193 154 QCURVE SMOOTH",
"177 109 OFFCURVE",
"177 38 QCURVE SMOOTH",
"177 -13 LINE",
"188 -106 OFFCURVE",
"257 -198 QCURVE",
"333 -258 LINE",
"448 -327 OFFCURVE",
"585 -326 QCURVE",
"816 -326 OFFCURVE",
"1002 -142 QCURVE",
"1006 -134 LINE",
"1006 -29 OFFCURVE",
"902 234 QCURVE",
"894 266 OFFCURVE",
"895 274 QCURVE",
"960 387 OFFCURVE",
"978 406 QCURVE",
"984 406 OFFCURVE",
"1006 335 QCURVE",
"1072 223 OFFCURVE",
"1198 174 QCURVE",
"1214 174 LINE",
"1294 298 OFFCURVE",
"1495 507 QCURVE",
"1628 631 OFFCURVE",
"1743 631 QCURVE"
);
},
{
closed = 1;
nodes = (
"1301 158 OFFCURVE",
"1350 154 QCURVE",
"1562 154 OFFCURVE",
"1820 263 QCURVE",
"1820 274 LINE SMOOTH",
"1820 404 OFFCURVE",
"1731 455 QCURVE",
"1695 463 OFFCURVE",
"1680 463 QCURVE SMOOTH",
"1671 463 LINE SMOOTH",
"1508 463 OFFCURVE",
"1299 158 QCURVE"
);
}
);
width = 1996;
}
);
unicode = 0635;
},
{
glyphname = uni0637;
layers = (
{
anchors = (
{
name = t.uni064B;
position = "{542, 1485}";
},
{
name = b.uni064D_1;
position = "{443, -233}";
}
);
layerId = "445A555C-B070-40FB-B385-62320451654E";
paths = (
{
closed = 1;
nodes = (
"502 1470 LINE",
"538 1277 OFFCURVE",
"539 1226 QCURVE",
"518 1201 LINE",
"567 541 OFFCURVE",
"566 506 QCURVE",
"566 415 OFFCURVE",
"518 305 QCURVE",
"522 305 LINE",
"754 610 OFFCURVE",
"928 611 QCURVE",
"944 611 LINE SMOOTH",
"1069 611 OFFCURVE",
"1145 486 QCURVE",
"1165 445 OFFCURVE",
"1165 410 QCURVE SMOOTH",
"1165 378 LINE SMOOTH",
"1165 262 OFFCURVE",
"1049 165 QCURVE",
"960 106 OFFCURVE",
"827 65 QCURVE",
"595 0 OFFCURVE",
"405 0 QCURVE SMOOTH",
"333 0 LINE SMOOTH",
"158 0 OFFCURVE",
"65 60 QCURVE",
"0 80 OFFCURVE",
"0 89 QCURVE SMOOTH",
"0 92 LINE",
"405 118 OFFCURVE",
"405 168 QCURVE",
"477 242 OFFCURVE",
"478 362 QCURVE",
"406 1310 OFFCURVE",
"405 1354 QCURVE",
"490 1460 OFFCURVE",
"490 1470 QCURVE"
);
},
{
closed = 1;
nodes = (
"750 177 OFFCURVE",
"935 233 QCURVE",
"967 249 OFFCURVE",
"1053 273 QCURVE",
"1013 454 OFFCURVE",
"872 454 QCURVE SMOOTH",
"863 454 LINE SMOOTH",
"755 454 OFFCURVE",
"675 374 QCURVE",
"569 275 OFFCURVE",
"470 137 QCURVE"
);
}
);
width = 1235;
}
);
unicode = 0637;
},
{
glyphname = uni0638;
layers = (
{
anchors = (
{
name = t.uni064B;
position = "{557, 1527}";
},
{
name = b.uni064D_1;
position = "{528, -390}";
}
);
layerId = "445A555C-B070-40FB-B385-62320451654E";
paths = (
{
closed = 1;
nodes = (
"793 1074 OFFCURVE",
"700 982 QCURVE",
"751 908 OFFCURVE",
"812 871 QCURVE",
"918 979 OFFCURVE",
"922 981 QCURVE",
"920 984 LINE",
"864 1030 OFFCURVE",
"817 1083 OFFCURVE",
"803 1086 QCURVE"
);
},
{
closed = 1;
nodes = (
"502 1470 LINE",
"538 1277 OFFCURVE",
"539 1226 QCURVE",
"518 1201 LINE",
"567 541 OFFCURVE",
"566 506 QCURVE",
"566 415 OFFCURVE",
"518 305 QCURVE",
"522 305 LINE",
"754 610 OFFCURVE",
"928 611 QCURVE",
"944 611 LINE SMOOTH",
"1069 611 OFFCURVE",
"1145 486 QCURVE",
"1165 445 OFFCURVE",
"1165 410 QCURVE SMOOTH",
"1165 378 LINE SMOOTH",
"1165 262 OFFCURVE",
"1049 165 QCURVE",
"960 106 OFFCURVE",
"827 65 QCURVE",
"595 0 OFFCURVE",
"405 0 QCURVE SMOOTH",
"333 0 LINE SMOOTH",
"158 0 OFFCURVE",
"65 60 QCURVE",
"0 80 OFFCURVE",
"0 89 QCURVE SMOOTH",
"0 92 LINE",
"405 118 OFFCURVE",
"405 168 QCURVE",
"477 242 OFFCURVE",
"478 362 QCURVE",
"406 1310 OFFCURVE",
"405 1354 QCURVE",
"490 1460 OFFCURVE",
"490 1470 QCURVE"
);
},
{
closed = 1;
nodes = (
"750 177 OFFCURVE",
"935 233 QCURVE",
"967 249 OFFCURVE",
"1053 273 QCURVE",
"1013 454 OFFCURVE",
"872 454 QCURVE SMOOTH",
"863 454 LINE SMOOTH",
"755 454 OFFCURVE",
"675 374 QCURVE",
"569 275 OFFCURVE",
"470 137 QCURVE"
);
}
);
width = 1248;
}
);
unicode = 0638;
},
{
glyphname = uni0639;
layers = (
{
anchors = (
{
name = t.uni064B;
position = "{271, 1461}";
},
{
name = b.uni064D_1;
position = "{457, -928}";
}
);
layerId = "445A555C-B070-40FB-B385-62320451654E";
paths = (
{
closed = 1;
nodes = (
"692 1119 OFFCURVE",
"795 1014 QCURVE",
"795 1004 OFFCURVE",
"785 1004 QCURVE SMOOTH",
"765 1004 LINE",
"680 1014 OFFCURVE",
"670 1014 QCURVE SMOOTH",
"645 1014 LINE SMOOTH",
"480 1014 OFFCURVE",
"309 904 QCURVE",
"340 781 OFFCURVE",
"460 694 QCURVE",
"574 624 OFFCURVE",
"600 623 QCURVE",
"917 769 OFFCURVE",
"980 769 QCURVE",
"925 631 OFFCURVE",
"910 608 QCURVE",
"853 608 OFFCURVE",
"504 413 QCURVE",
"245 253 OFFCURVE",
"159 8 QCURVE",
"144 -85 OFFCURVE",
"144 -137 QCURVE SMOOTH",
"144 -426 OFFCURVE",
"420 -542 QCURVE",
"542 -582 OFFCURVE",
"690 -582 QCURVE SMOOTH",
"978 -582 OFFCURVE",
"1281 -467 QCURVE",
"1286 -478 LINE",
"1204 -565 OFFCURVE",
"1015 -668 QCURVE",
"798 -768 OFFCURVE",
"610 -768 QCURVE SMOOTH",
"600 -768 LINE SMOOTH",
"214 -768 OFFCURVE",
"69 -413 QCURVE",
"39 -330 OFFCURVE",
"39 -177 QCURVE SMOOTH",
"39 204 OFFCURVE",
"409 508 QCURVE",
"229 628 OFFCURVE",
"229 794 QCURVE SMOOTH",
"229 798 LINE SMOOTH",
"229 1003 OFFCURVE",
"424 1099 QCURVE",
"493 1119 OFFCURVE",
"520 1119 QCURVE SMOOTH"
);
}
);
width = 1024;
}
);
unicode = 0639;
},
{
glyphname = uni063A;
layers = (
{
anchors = (
{
name = t.uni064B;
position = "{471, 1642}";
},
{
name = b.uni064D_1;
position = "{471, -942}";
}
);
layerId = "445A555C-B070-40FB-B385-62320451654E";
paths = (
{
closed = 1;
nodes = (
"552 1631 LINE",
"654 1533 LINE",
"651 1530 OFFCURVE",
"559 1436 QCURVE",
"558 1436 OFFCURVE",
"557 1434 QCURVE",
"556 1434 OFFCURVE",
"554 1432 QCURVE",
"454 1533 LINE",
"548 1626 LINE"
);
},
{
closed = 1;
nodes = (
"692 1119 OFFCURVE",
"795 1014 QCURVE",
"795 1004 OFFCURVE",
"785 1004 QCURVE SMOOTH",
"765 1004 LINE",
"680 1014 OFFCURVE",
"670 1014 QCURVE SMOOTH",
"645 1014 LINE SMOOTH",
"480 1014 OFFCURVE",
"309 904 QCURVE",
"340 781 OFFCURVE",
"460 694 QCURVE",
"574 624 OFFCURVE",
"600 623 QCURVE",
"917 769 OFFCURVE",
"980 769 QCURVE",
"925 631 OFFCURVE",
"910 608 QCURVE",
"853 608 OFFCURVE",
"504 413 QCURVE",
"245 253 OFFCURVE",
"159 8 QCURVE",
"144 -85 OFFCURVE",
"144 -137 QCURVE SMOOTH",
"144 -426 OFFCURVE",
"420 -542 QCURVE",
"542 -582 OFFCURVE",
"690 -582 QCURVE SMOOTH",
"978 -582 OFFCURVE",
"1281 -467 QCURVE",
"1286 -478 LINE",
"1204 -565 OFFCURVE",
"1015 -668 QCURVE",
"798 -768 OFFCURVE",
"610 -768 QCURVE SMOOTH",
"600 -768 LINE SMOOTH",
"214 -768 OFFCURVE",
"69 -413 QCURVE",
"39 -330 OFFCURVE",
"39 -177 QCURVE SMOOTH",
"39 204 OFFCURVE",
"409 508 QCURVE",
"229 628 OFFCURVE",
"229 794 QCURVE SMOOTH",
"229 798 LINE SMOOTH",
"229 1003 OFFCURVE",
"424 1099 QCURVE",
"493 1119 OFFCURVE",
"520 1119 QCURVE SMOOTH"
);
}
);
width = 1032;
}
);
unicode = 063A;
},
{
glyphname = uni0640;
layers = (
{
anchors = (
{
name = t.uni064B;
position = "{128, 666}";
},
{
name = b.uni064D_1;
position = "{128, -200}";
}
);
layerId = "445A555C-B070-40FB-B385-62320451654E";
paths = (
{
closed = 1;
nodes = (
"-1 6 LINE",
"-30 25 OFFCURVE",
"-64 106 OFFCURVE",
"-66 162 QCURVE",
"-54 160 LINE",
"5 162 LINE",
"12 162 LINE",
"15 162 LINE",
"18 162 LINE",
"26 162 LINE",
"28 162 LINE",
"38 162 LINE",
"41 162 LINE",
"49 162 LINE",
"23 162 LINE",
"26 162 LINE",
"29 162 LINE",
"31 162 LINE",
"44 162 LINE",
"46 162 LINE",
"50 162 LINE",
"58 162 LINE",
"60 162 LINE",
"70 162 LINE",
"72 162 LINE",
"75 162 LINE",
"78 162 LINE",
"80 162 LINE",
"87 162 LINE",
"98 162 LINE",
"101 162 LINE",
"105 162 LINE",
"108 162 LINE",
"110 162 LINE",
"118 162 LINE",
"120 162 LINE",
"130 162 LINE",
"133 162 LINE",
"141 162 LINE",
"152 162 LINE",
"154 162 LINE",
"156 162 LINE",
"168 162 LINE",
"170 162 LINE",
"173 162 LINE",
"176 162 LINE",
"180 162 LINE",
"183 162 LINE",
"195 162 LINE",
"200 162 LINE",
"200 150 LINE",
"200 148 LINE",
"200 131 LINE",
"200 128 LINE",
"200 115 LINE",
"200 98 LINE",
"200 95 LINE",
"200 82 LINE",
"200 75 LINE",
"200 63 LINE",
"200 44 LINE",
"200 41 LINE",
"200 37 LINE",
"200 34 LINE",
"200 30 LINE",
"200 27 LINE",
"200 13 LINE",
"200 7 LINE",
"195 7 LINE",
"190 7 LINE",
"180 7 LINE",
"178 7 LINE",
"169 7 LINE",
"167 7 LINE",
"160 7 LINE",
"155 7 LINE",
"150 7 LINE",
"140 7 LINE",
"137 7 LINE",
"129 7 LINE",
"122 7 LINE",
"120 7 LINE",
"109 7 LINE",
"97 7 LINE",
"95 7 LINE",
"92 7 LINE",
"90 7 LINE",
"88 7 LINE",
"86 7 LINE",
"77 7 LINE",
"66 7 LINE",
"64 7 LINE",
"62 7 LINE",
"57 7 LINE",
"49 7 LINE",
"44 7 LINE"
);
}
);
width = 197;
}
);
unicode = 0640;
},
{
glyphname = uni0641;
layers = (
{
anchors = (
{
name = t.uni064B;
position = "{523, 942}";
},
{
name = b.uni064D_1;
position = "{557, -200}";
}
);
layerId = "445A555C-B070-40FB-B385-62320451654E";
paths = (
{
closed = 1;
nodes = (
"1026 1369 OFFCURVE",
"1073 1316 OFFCURVE",
"1129 1270 QCURVE",
"1131 1268 LINE",
"1126 1265 OFFCURVE",
"1020 1157 QCURVE",
"960 1194 OFFCURVE",
"909 1269 QCURVE",
"1002 1360 OFFCURVE",
"1012 1372 QCURVE"
);
},
{
closed = 1;
nodes = (
"1093 859 LINE SMOOTH",
"1196 859 OFFCURVE",
"1317 624 QCURVE SMOOTH",
"1352 555 OFFCURVE",
"1352 460 QCURVE SMOOTH",
"1352 435 LINE",
"1325 175 OFFCURVE",
"1208 140 QCURVE",
"924 0 OFFCURVE",
"613 0 QCURVE SMOOTH",
"568 0 LINE SMOOTH",
"192 0 OFFCURVE",
"69 200 QCURVE",
"39 245 OFFCURVE",
"38 300 QCURVE",
"38 355 LINE SMOOTH",
"38 483 OFFCURVE",
"153 630 QCURVE",
"163 628 OFFCURVE",
"163 620 QCURVE",
"123 511 OFFCURVE",
"123 444 QCURVE SMOOTH",
"123 248 OFFCURVE",
"393 190 QCURVE",
"493 175 OFFCURVE",
"582 175 QCURVE SMOOTH",
"633 175 LINE SMOOTH",
"824 175 OFFCURVE",
"1122 245 QCURVE",
"1264 289 OFFCURVE",
"1268 300 QCURVE",
"1268 335 LINE SMOOTH",
"1268 459 OFFCURVE",
"1202 564 QCURVE",
"1088 519 OFFCURVE",
"1028 520 QCURVE",
"948 520 OFFCURVE",
"937 615 QCURVE",
"981 859 OFFCURVE",
"1073 859 QCURVE SMOOTH"
);
}
);
width = 1393;
}
);
unicode = 0641;
},
{
glyphname = uni0642;
layers = (
{
anchors = (
{
name = t.uni064B;
position = "{428, 1042}";
},
{
name = b.uni064D_1;
position = "{371, -500}";
}
);
layerId = "445A555C-B070-40FB-B385-62320451654E";
paths = (
{
closed = 1;
nodes = (
"836 1014 OFFCURVE",
"883 962 OFFCURVE",
"939 916 QCURVE",
"831 802 LINE",
"771 839 OFFCURVE",
"719 914 QCURVE",
"812 1005 OFFCURVE",
"822 1017 QCURVE"
);
},
{
closed = 1;
nodes = (
"615 1014 OFFCURVE",
"661 961 OFFCURVE",
"718 916 QCURVE",
"719 913 LINE",
"609 802 LINE",
"549 839 OFFCURVE",
"498 914 QCURVE",
"591 1005 OFFCURVE",
"601 1017 QCURVE"
);
},
{
closed = 1;
nodes = (
"755 533 LINE SMOOTH",
"835 533 OFFCURVE",
"926 329 QCURVE",
"958 242 OFFCURVE",
"958 166 QCURVE SMOOTH",
"958 -160 OFFCURVE",
"647 -273 QCURVE",
"541 -317 OFFCURVE",
"391 -317 QCURVE SMOOTH",
"165 -317 OFFCURVE",
"56 -106 QCURVE",
"32 -12 OFFCURVE",
"32 54 QCURVE SMOOTH",
"32 235 OFFCURVE",
"140 413 QCURVE",
"172 445 OFFCURVE",
"188 445 QCURVE",
"196 429 LINE",
"196 413 OFFCURVE",
"132 298 QCURVE",
"103 236 OFFCURVE",
"104 158 QCURVE",
"104 142 LINE SMOOTH",
"104 -64 OFFCURVE",
"336 -153 QCURVE",
"387 -169 OFFCURVE",
"443 -169 QCURVE SMOOTH",
"483 -169 LINE",
"628 -159 OFFCURVE",
"798 -57 QCURVE",
"890 5 OFFCURVE",
"891 14 QCURVE",
"891 135 OFFCURVE",
"838 222 QCURVE",
"744 190 OFFCURVE",
"703 189 QCURVE",
"614 199 OFFCURVE",
"615 266 QCURVE",
"615 286 LINE SMOOTH",
"615 442 OFFCURVE",
"743 533 QCURVE"
);
}
);
width = 997;
}
);
unicode = 0642;
},
{
glyphname = uni0643;
layers = (
{
anchors = (
{
name = t.uni064B;
position = "{471, 1199}";
},
{
name = b.uni064D_1;
position = "{457, -200}";
}
);
layerId = "445A555C-B070-40FB-B385-62320451654E";
paths = (
{
closed = 1;
nodes = (
"1211 1520 LINE",
"1242 1081 OFFCURVE",
"1291 522 QCURVE",
"1291 489 LINE SMOOTH",
"1291 268 OFFCURVE",
"1131 148 QCURVE",
"867 0 OFFCURVE",
"457 0 QCURVE SMOOTH",
"143 0 OFFCURVE",
"80 148 QCURVE",
"36 207 OFFCURVE",
"36 321 QCURVE SMOOTH",
"36 329 LINE SMOOTH",
"36 500 OFFCURVE",
"125 641 QCURVE",
"128 641 LINE",
"132 634 LINE",
"132 625 LINE",
"96 491 OFFCURVE",
"96 457 QCURVE SMOOTH",
"96 272 OFFCURVE",
"325 196 QCURVE",
"432 172 OFFCURVE",
"529 172 QCURVE SMOOTH",
"565 172 LINE SMOOTH",
"823 172 OFFCURVE",
"1123 317 QCURVE",
"1183 360 OFFCURVE",
"1183 373 QCURVE SMOOTH",
"1183 383 OFFCURVE",
"1187 405 QCURVE",
"1127 992 OFFCURVE",
"1103 1375 QCURVE",
"1203 1512 OFFCURVE",
"1203 1520 QCURVE"
);
},
{
closed = 1;
nodes = (
"762 1094 LINE",
"766 1094 LINE",
"774 1093 OFFCURVE",
"774 1087 QCURVE SMOOTH",
"774 1063 LINE",
"766 946 OFFCURVE",
"722 946 QCURVE",
"673 931 OFFCURVE",
"650 918 QCURVE",
"651 909 OFFCURVE",
"726 875 QCURVE",
"754 839 OFFCURVE",
"754 806 QCURVE SMOOTH",
"754 690 OFFCURVE",
"630 638 QCURVE",
"576 626 OFFCURVE",
"549 625 QCURVE",
"549 634 LINE",
"654 675 OFFCURVE",
"654 718 QCURVE",
"637 733 OFFCURVE",
"574 758 QCURVE",
"558 783 OFFCURVE",
"558 802 QCURVE SMOOTH",
"558 810 LINE",
"607 992 OFFCURVE",
"722 1071 QCURVE"
);
}
);
width = 1328;
}
);
unicode = 0643;
},
{
glyphname = uni0644;
layers = (
{
anchors = (
{
name = t.uni064B;
position = "{314, 1285}";
},
{
name = b.uni064D_1;
position = "{385, -343}";
}
);
layerId = "445A555C-B070-40FB-B385-62320451654E";
paths = (
{
closed = 1;
nodes = (
"808 1447 LINE",
"812 1447 LINE",
"884 466 OFFCURVE",
"912 219 QCURVE",
"912 171 LINE SMOOTH",
"912 -91 OFFCURVE",
"660 -245 QCURVE",
"528 -317 OFFCURVE",
"400 -317 QCURVE SMOOTH",
"396 -317 LINE SMOOTH",
"161 -317 OFFCURVE",
"60 -73 QCURVE",
"44 12 OFFCURVE",
"44 43 QCURVE SMOOTH",
"44 195 OFFCURVE",
"148 351 QCURVE",
"156 351 LINE",
"164 349 OFFCURVE",
"164 343 QCURVE",
"120 211 LINE",
"120 174 OFFCURVE",
"116 155 QCURVE",
"116 -20 OFFCURVE",
"327 -121 QCURVE",
"409 -145 OFFCURVE",
"447 -145 QCURVE SMOOTH",
"500 -145 LINE SMOOTH",
"656 -145 OFFCURVE",
"816 -1 QCURVE",
"736 886 OFFCURVE",
"703 1307 QCURVE",
"709 1307 OFFCURVE",
"792 1430 QCURVE"
);
}
);
width = 950;
}
);
unicode = 0644;
},
{
glyphname = uni0645;
layers = (
{
anchors = (
{
name = t.uni064B;
position = "{228, 666}";
},
{
name = b.uni064D_1;
position = "{171, -1014}";
}
);
layerId = "445A555C-B070-40FB-B385-62320451654E";
paths = (
{
closed = 1;
nodes = (
"462 494 OFFCURVE",
"532 368 QCURVE",
"537 344 LINE",
"525 277 OFFCURVE",
"462 183 QCURVE",
"348 209 OFFCURVE",
"246 208 QCURVE",
"131 205 OFFCURVE",
"130 188 QCURVE",
"196 -764 LINE",
"196 -774 LINE SMOOTH",
"196 -935 OFFCURVE",
"116 -1010 QCURVE",
"106 -1010 LINE",
"106 -1005 LINE SMOOTH",
"106 -940 OFFCURVE",
"30 3 QCURVE",
"30 78 LINE SMOOTH",
"30 268 OFFCURVE",
"211 344 QCURVE",
"238 434 OFFCURVE",
"326 494 QCURVE"
);
}
);
width = 586;
}
);
unicode = 0645;
},
{
glyphname = uni0646;
layers = (
{
anchors = (
{
name = t.uni064B;
position = "{385, 1413}";
},
{
name = b.uni064D_1;
position = "{385, -500}";
}
);
layerId = "445A555C-B070-40FB-B385-62320451654E";
paths = (
{
closed = 1;
nodes = (
"521 1020 OFFCURVE",
"568 967 OFFCURVE",
"624 921 QCURVE",
"626 918 LINE",
"621 915 OFFCURVE",
"516 808 QCURVE",
"456 845 OFFCURVE",
"404 919 QCURVE",
"497 1011 OFFCURVE",
"507 1023 QCURVE"
);
},
{
closed = 1;
nodes = (
"966 542 LINE",
"1056 358 OFFCURVE",
"1056 233 QCURVE SMOOTH",
"1056 143 LINE SMOOTH",
"1056 9 OFFCURVE",
"951 -133 QCURVE",
"749 -342 OFFCURVE",
"487 -343 QCURVE",
"481 -343 LINE SMOOTH",
"274 -343 OFFCURVE",
"137 -210 QCURVE",
"34 -103 OFFCURVE",
"34 75 QCURVE SMOOTH",
"34 110 LINE SMOOTH",
"34 317 OFFCURVE",
"150 467 QCURVE",
"163 477 LINE",
"169 477 LINE SMOOTH",
"179 477 OFFCURVE",
"179 464 QCURVE SMOOTH",
"179 439 OFFCURVE",
"130 317 QCURVE",
"111 248 OFFCURVE",
"111 191 QCURVE SMOOTH",
"111 -57 OFFCURVE",
"375 -149 QCURVE",
"449 -172 OFFCURVE",
"506 -172 QCURVE SMOOTH",
"548 -172 LINE SMOOTH",
"775 -172 OFFCURVE",
"960 8 QCURVE",
"966 22 OFFCURVE",
"966 59 QCURVE SMOOTH",
"966 82 LINE SMOOTH",
"966 246 OFFCURVE",
"876 406 QCURVE",
"945 526 OFFCURVE",
"960 542 QCURVE"
);
}
);
width = 1101;
}
);
unicode = 0646;
},
{
glyphname = uni0647;
layers = (
{
anchors = (
{
name = t.uni064B;
position = "{228, 1009}";
},
{
name = b.uni064D_1;
position = "{228, -300}";
}
);
layerId = "445A555C-B070-40FB-B385-62320451654E";
paths = (
{
closed = 1;
nodes = (
"293 722 LINE",
"317 722 LINE",
"421 646 OFFCURVE",
"486 550 QCURVE",
"537 482 OFFCURVE",
"572 352 QCURVE",
"572 326 OFFCURVE",
"572 298 OFFCURVE",
"561 230 QCURVE",
"513 98 OFFCURVE",
"403 40 QCURVE",
"358 19 OFFCURVE",
"306 7 QCURVE",
"254 7 LINE SMOOTH",
"128 7 OFFCURVE",
"83 126 QCURVE",
"73 159 OFFCURVE",
"72 175 QCURVE",
"72 225 LINE",
"82 347 OFFCURVE",
"221 561 QCURVE",
"221 647 OFFCURVE",
"288 719 QCURVE"
);
},
{
closed = 1;
nodes = (
"188 387 OFFCURVE",
"174 281 QCURVE",
"174 275 LINE SMOOTH",
"174 206 OFFCURVE",
"256 173 QCURVE",
"284 164 OFFCURVE",
"307 165 QCURVE",
"391 165 OFFCURVE",
"477 234 QCURVE",
"457 327 OFFCURVE",
"382 419 QCURVE",
"308 503 OFFCURVE",
"289 503 QCURVE"
);
}
);
width = 632;
}
);
unicode = 0647;
},
{
glyphname = uni0648;
layers = (
{
anchors = (
{
name = t.uni064B;
position = "{257, 780}";
},
{
name = b.uni064D_1;
position = "{43, -642}";
}
);
layerId = "445A555C-B070-40FB-B385-62320451654E";
paths = (
{
closed = 1;
nodes = (
"375 530 LINE",
"408 533 OFFCURVE",
"439 512 QCURVE",
"443 507 OFFCURVE",
"449 502 QCURVE",
"451 498 OFFCURVE",
"456 496 QCURVE",
"458 493 LINE",
"461 491 LINE",
"463 488 LINE",
"464 485 LINE",
"466 480 OFFCURVE",
"471 477 QCURVE",
"473 470 OFFCURVE",
"480 463 QCURVE",
"483 457 LINE",
"484 454 LINE",
"486 452 LINE",
"487 449 LINE",
"489 447 LINE",
"491 443 LINE",
"493 438 OFFCURVE",
"497 433 QCURVE",
"498 429 OFFCURVE",
"501 425 QCURVE",
"502 422 LINE",
"503 418 LINE",
"505 413 OFFCURVE",
"509 407 QCURVE",
"512 397 OFFCURVE",
"520 380 QCURVE",
"520 379 OFFCURVE",
"521 377 QCURVE",
"522 371 OFFCURVE",
"524 365 QCURVE",
"531 338 LINE",
"531 337 OFFCURVE",
"532 335 QCURVE",
"533 331 LINE",
"533 323 OFFCURVE",
"536 315 QCURVE",
"536 312 LINE",
"536 309 LINE",
"537 306 LINE",
"537 304 LINE",
"538 301 LINE",
"538 297 LINE",
"539 293 LINE",
"538 288 OFFCURVE",
"540 282 QCURVE",
"540 279 LINE",
"540 263 LINE",
"540 260 LINE",
"540 257 LINE",
"540 253 LINE",
"540 248 LINE",
"540 238 LINE",
"540 234 LINE",
"540 221 LINE",
"538 206 LINE",
"538 202 OFFCURVE",
"537 198 QCURVE",
"537 195 LINE",
"537 189 LINE",
"535 182 OFFCURVE",
"534 172 QCURVE",
"533 170 LINE",
"533 167 LINE",
"532 165 LINE",
"532 161 LINE",
"529 150 LINE",
"529 147 LINE",
"528 144 LINE",
"524 128 LINE",
"523 125 LINE",
"522 120 OFFCURVE",
"521 114 QCURVE",
"519 107 LINE",
"519 104 LINE",
"516 97 OFFCURVE",
"513 87 QCURVE SMOOTH",
"511 80 LINE",
"509 76 LINE",
"508 73 LINE",
"507 69 LINE",
"504 63 OFFCURVE",
"503 57 QCURVE",
"492 30 LINE",
"491 28 LINE",
"489 21 LINE",
"487 18 LINE",
"485 14 LINE",
"484 11 LINE",
"483 8 LINE",
"479 -1 LINE",
"470 -22 LINE",
"461 -39 LINE",
"460 -42 LINE",
"458 -45 OFFCURVE",
"456 -49 QCURVE",
"455 -52 LINE",
"453 -55 OFFCURVE",
"451 -60 QCURVE",
"447 -64 OFFCURVE",
"445 -70 QCURVE",
"442 -73 OFFCURVE",
"441 -77 QCURVE",
"439 -79 LINE",
"438 -82 LINE",
"437 -84 LINE",
"431 -91 OFFCURVE",
"423 -102 QCURVE",
"421 -106 OFFCURVE",
"417 -110 QCURVE",
"416 -113 LINE",
"413 -115 LINE",
"410 -119 LINE",
"409 -122 LINE",
"406 -124 LINE",
"324 -235 OFFCURVE",
"183 -288 QCURVE",
"177 -289 OFFCURVE",
"169 -292 QCURVE",
"163 -293 OFFCURVE",
"156 -296 QCURVE",
"153 -296 LINE",
"148 -297 LINE",
"140 -299 LINE",
"138 -300 LINE",
"136 -300 OFFCURVE",
"135 -301 QCURVE",
"130 -301 LINE",
"127 -302 LINE",
"106 -305 LINE",
"88 -306 LINE",
"86 -307 LINE",
"81 -307 LINE",
"69 -307 LINE",
"66 -307 LINE",
"55 -307 LINE",
"-126 -306 OFFCURVE",
"-272 -168 QCURVE",
"-276 -162 OFFCURVE",
"-277 -156 QCURVE",
"-265 -156 OFFCURVE",
"-250 -162 QCURVE",
"-244 -164 LINE",
"-233 -166 LINE",
"-227 -167 LINE",
"-217 -168 LINE",
"-210 -168 LINE",
"-208 -169 LINE",
"-206 -169 LINE",
"-203 -170 LINE",
"-187 -172 LINE",
"-176 -173 LINE",
"-169 -174 LINE",
"-167 -174 LINE",
"-165 -175 LINE",
"-161 -175 LINE",
"-155 -176 LINE",
"-151 -175 OFFCURVE",
"-147 -177 QCURVE",
"-137 -177 LINE",
"-135 -178 LINE",
"-128 -178 OFFCURVE",
"-119 -179 QCURVE",
"-115 -179 LINE",
"-112 -179 LINE",
"-108 -179 LINE",
"-104 -180 LINE",
"-87 -180 LINE",
"-84 -180 LINE",
"234 -198 OFFCURVE",
"449 56 QCURVE",
"452 71 LINE",
"453 73 LINE",
"454 80 LINE",
"455 84 LINE",
"456 94 LINE",
"457 97 LINE",
"458 109 LINE",
"459 125 LINE",
"459 155 LINE",
"458 161 LINE",
"458 167 OFFCURVE",
"457 174 QCURVE",
"440 172 LINE",
"438 171 LINE",
"435 171 LINE",
"433 171 OFFCURVE",
"432 170 QCURVE",
"429 170 LINE",
"425 170 LINE",
"409 168 LINE",
"402 168 OFFCURVE",
"393 167 QCURVE",
"386 168 OFFCURVE",
"377 166 QCURVE",
"370 166 LINE",
"357 166 LINE",
"352 166 LINE",
"347 166 LINE",
"343 165 OFFCURVE",
"339 167 QCURVE",
"329 167 LINE",
"325 167 LINE",
"308 169 LINE",
"305 170 LINE",
"302 170 LINE",
"298 171 LINE",
"295 171 LINE",
"287 173 OFFCURVE",
"274 179 QCURVE",
"269 180 LINE",
"267 182 LINE",
"264 183 LINE",
"261 186 OFFCURVE",
"255 187 QCURVE",
"251 191 OFFCURVE",
"244 197 QCURVE",
"239 203 LINE",
"235 206 LINE",
"233 212 OFFCURVE",
"227 217 QCURVE",
"217 241 OFFCURVE",
"217 271 QCURVE SMOOTH",
"217 278 OFFCURVE",
"218 286 QCURVE SMOOTH",
"220 303 LINE",
"221 305 LINE",
"221 309 OFFCURVE",
"223 314 QCURVE",
"223 318 LINE",
"225 323 OFFCURVE",
"226 329 QCURVE SMOOTH",
"227 335 LINE",
"228 337 LINE",
"230 344 LINE",
"230 346 LINE",
"231 349 LINE",
"232 352 LINE",
"237 365 LINE",
"240 373 LINE",
"248 397 LINE",
"249 399 LINE",
"251 402 OFFCURVE",
"252 406 QCURVE",
"257 412 OFFCURVE",
"263 423 QCURVE",
"265 425 LINE",
"266 428 LINE",
"267 430 LINE",
"268 433 LINE",
"271 436 OFFCURVE",
"275 443 QCURVE",
"277 445 LINE",
"280 450 LINE",
"283 453 LINE",
"284 456 OFFCURVE",
"287 460 QCURVE",
"288 463 LINE",
"291 465 LINE",
"293 469 LINE",
"299 474 OFFCURVE",
"305 482 QCURVE",
"306 483 LINE",
"308 487 LINE",
"313 490 OFFCURVE",
"318 497 QCURVE",
"320 498 LINE",
"321 500 LINE",
"326 503 LINE",
"327 505 LINE",
"333 509 LINE",
"334 511 LINE",
"339 513 OFFCURVE",
"345 518 QCURVE",
"349 520 OFFCURVE",
"353 522 QCURVE",
"356 523 LINE",
"364 527 LINE",
"367 527 LINE"
);
}
);
width = 583;
}
);
unicode = 0648;
},
{
glyphname = uni0649;
layers = (
{
anchors = (
{
name = t.uni064B;
position = "{443, 799}";
},
{
name = b.uni064D_1;
position = "{414, -400}";
}
);
layerId = "445A555C-B070-40FB-B385-62320451654E";
paths = (
{
closed = 1;
nodes = (
"1339 833 LINE",
"1408 819 OFFCURVE",
"1408 773 QCURVE SMOOTH",
"1408 764 LINE SMOOTH",
"1408 669 OFFCURVE",
"1348 604 QCURVE",
"1337 604 OFFCURVE",
"1331 644 QCURVE",
"1314 664 OFFCURVE",
"1288 664 QCURVE SMOOTH",
"1243 664 LINE",
"1059 632 OFFCURVE",
"837 467 QCURVE",
"807 436 OFFCURVE",
"794 436 QCURVE",
"833 397 OFFCURVE",
"962 367 QCURVE",
"1163 325 OFFCURVE",
"1163 210 QCURVE SMOOTH",
"1163 199 LINE SMOOTH",
"1163 104 OFFCURVE",
"1087 22 QCURVE",
"756 -203 OFFCURVE",
"513 -203 QCURVE SMOOTH",
"473 -203 LINE SMOOTH",
"191 -203 OFFCURVE",
"79 42 QCURVE",
"55 121 OFFCURVE",
"55 183 QCURVE SMOOTH",
"55 360 OFFCURVE",
"167 536 QCURVE",
"187 548 LINE",
"203 539 OFFCURVE",
"204 528 QCURVE",
"128 374 OFFCURVE",
"128 283 QCURVE SMOOTH",
"128 37 OFFCURVE",
"452 -18 QCURVE SMOOTH",
"478 -22 OFFCURVE",
"521 -22 QCURVE SMOOTH",
"541 -22 LINE SMOOTH",
"765 -22 OFFCURVE",
"1058 130 QCURVE",
"1058 138 LINE",
"986 180 OFFCURVE",
"810 226 QCURVE",
"709 274 OFFCURVE",
"709 359 QCURVE SMOOTH",
"709 379 LINE SMOOTH",
"709 508 OFFCURVE",
"955 692 QCURVE",
"1170 833 OFFCURVE",
"1323 833 QCURVE SMOOTH"
);
}
);
width = 1436;
}
);
unicode = 0649;
},
{
glyphname = uni064A;
layers = (
{
anchors = (
{
name = t.uni064B;
position = "{443, 799}";
},
{
name = b.uni064D_1;
position = "{371, -799}";
}
);
layerId = "445A555C-B070-40FB-B385-62320451654E";
paths = (
{
closed = 1;
nodes = (
"619 -423 OFFCURVE",
"666 -475 OFFCURVE",
"722 -522 QCURVE",
"614 -635 LINE",
"554 -598 OFFCURVE",
"502 -523 QCURVE",
"595 -432 OFFCURVE",
"605 -420 QCURVE"
);
},
{
closed = 1;
nodes = (
"398 -423 OFFCURVE",
"444 -476 OFFCURVE",
"501 -522 QCURVE",
"502 -524 LINE",
"392 -635 LINE",
"332 -598 OFFCURVE",
"281 -523 QCURVE",
"374 -432 OFFCURVE",
"384 -420 QCURVE"
);
},
{
closed = 1;
nodes = (
"1339 833 LINE",
"1408 819 OFFCURVE",
"1408 773 QCURVE SMOOTH",
"1408 764 LINE SMOOTH",
"1408 669 OFFCURVE",
"1348 604 QCURVE",
"1337 604 OFFCURVE",
"1331 644 QCURVE",
"1314 664 OFFCURVE",
"1288 664 QCURVE SMOOTH",
"1243 664 LINE",
"1059 632 OFFCURVE",
"837 467 QCURVE",
"807 436 OFFCURVE",
"794 436 QCURVE",
"833 397 OFFCURVE",
"962 367 QCURVE",
"1163 325 OFFCURVE",
"1163 210 QCURVE SMOOTH",
"1163 199 LINE SMOOTH",
"1163 104 OFFCURVE",
"1087 22 QCURVE",
"756 -203 OFFCURVE",
"513 -203 QCURVE SMOOTH",
"473 -203 LINE SMOOTH",
"191 -203 OFFCURVE",
"79 42 QCURVE",
"55 121 OFFCURVE",
"55 183 QCURVE SMOOTH",
"55 360 OFFCURVE",
"167 536 QCURVE",
"187 548 LINE",
"203 539 OFFCURVE",
"204 528 QCURVE",
"128 374 OFFCURVE",
"128 283 QCURVE SMOOTH",
"128 37 OFFCURVE",
"452 -18 QCURVE SMOOTH",
"478 -22 OFFCURVE",
"521 -22 QCURVE SMOOTH",
"541 -22 LINE SMOOTH",
"765 -22 OFFCURVE",
"1058 130 QCURVE",
"1058 138 LINE",
"986 180 OFFCURVE",
"810 226 QCURVE",
"709 274 OFFCURVE",
"709 359 QCURVE SMOOTH",
"709 379 LINE SMOOTH",
"709 508 OFFCURVE",
"955 692 QCURVE",
"1170 833 OFFCURVE",
"1323 833 QCURVE SMOOTH"
);
}
);
width = 1436;
}
);
unicode = 064A;
},
